M48
; DRILL file {KiCad (5.1.5-0-10_14)} date Monday, August 31, 2020 at 10:02:04 AM
; FORMAT={-:-/ absolute / inch / decimal}
; #@! TF.CreationDate,2020-08-31T10:02:04-05:00
; #@! TF.GenerationSoftware,Kicad,Pcbnew,(5.1.5-0-10_14)
FMAT,2
INCH
T1C0.0157
T2C0.0866
%
G90
G05
T1
X1.435Y-5.635
X1.4541Y-5.5891
X1.4541Y-5.6809
X1.5Y-5.57
X1.5Y-5.7
X1.5459Y-5.5891
X1.5459Y-5.6809
X1.565Y-5.635
X10.7788Y-5.635
X10.7978Y-5.5891
X10.7978Y-5.6809
X10.8438Y-5.57
X10.8438Y-5.7
X10.8897Y-5.5891
X10.8897Y-5.6809
X10.9087Y-5.635
X10.0288Y-1.9062
X10.0478Y-1.8603
X10.0478Y-1.9522
X10.0938Y-1.8413
X10.0938Y-1.9712
X10.1397Y-1.8603
X10.1397Y-1.9522
X10.1587Y-1.9062
X1.4038Y-1.9062
X1.4228Y-1.8603
X1.4228Y-1.9522
X1.4688Y-1.8413
X1.4688Y-1.9712
X1.5147Y-1.8603
X1.5147Y-1.9522
X1.5337Y-1.9062
T2
X1.5Y-5.635
X10.8438Y-5.635
X10.0938Y-1.9062
X1.4688Y-1.9062
T0
M30
