G04 #@! TF.GenerationSoftware,KiCad,Pcbnew,(5.1.5-0-10_14)*
G04 #@! TF.CreationDate,2020-08-31T10:02:03-05:00*
G04 #@! TF.ProjectId,SithZhuyin40,53697468-5a68-4757-9969-6e34302e6b69,rev?*
G04 #@! TF.SameCoordinates,Original*
G04 #@! TF.FileFunction,Soldermask,Top*
G04 #@! TF.FilePolarity,Negative*
%FSLAX46Y46*%
G04 Gerber Fmt 4.6, Leading zero omitted, Abs format (unit mm)*
G04 Created by KiCad (PCBNEW (5.1.5-0-10_14)) date 2020-08-31 10:02:03*
%MOMM*%
%LPD*%
G04 APERTURE LIST*
%ADD10C,0.100000*%
G04 APERTURE END LIST*
D10*
G36*
X275707130Y-140888776D02*
G01*
X276087843Y-140964504D01*
X276497499Y-141134189D01*
X276866179Y-141380534D01*
X277179716Y-141694071D01*
X277426061Y-142062751D01*
X277595746Y-142472407D01*
X277682250Y-142907296D01*
X277682250Y-143350704D01*
X277595746Y-143785593D01*
X277426061Y-144195249D01*
X277179716Y-144563929D01*
X276866179Y-144877466D01*
X276497499Y-145123811D01*
X276087843Y-145293496D01*
X275707130Y-145369224D01*
X275652955Y-145380000D01*
X275209545Y-145380000D01*
X275155370Y-145369224D01*
X274774657Y-145293496D01*
X274365001Y-145123811D01*
X273996321Y-144877466D01*
X273682784Y-144563929D01*
X273436439Y-144195249D01*
X273266754Y-143785593D01*
X273180250Y-143350704D01*
X273180250Y-142907296D01*
X273266754Y-142472407D01*
X273436439Y-142062751D01*
X273682784Y-141694071D01*
X273996321Y-141380534D01*
X274365001Y-141134189D01*
X274774657Y-140964504D01*
X275155370Y-140888776D01*
X275209545Y-140878000D01*
X275652955Y-140878000D01*
X275707130Y-140888776D01*
G37*
G36*
X38375880Y-140888776D02*
G01*
X38756593Y-140964504D01*
X39166249Y-141134189D01*
X39534929Y-141380534D01*
X39848466Y-141694071D01*
X40094811Y-142062751D01*
X40264496Y-142472407D01*
X40351000Y-142907296D01*
X40351000Y-143350704D01*
X40264496Y-143785593D01*
X40094811Y-144195249D01*
X39848466Y-144563929D01*
X39534929Y-144877466D01*
X39166249Y-145123811D01*
X38756593Y-145293496D01*
X38375880Y-145369224D01*
X38321705Y-145380000D01*
X37878295Y-145380000D01*
X37824120Y-145369224D01*
X37443407Y-145293496D01*
X37033751Y-145123811D01*
X36665071Y-144877466D01*
X36351534Y-144563929D01*
X36105189Y-144195249D01*
X35935504Y-143785593D01*
X35849000Y-143350704D01*
X35849000Y-142907296D01*
X35935504Y-142472407D01*
X36105189Y-142062751D01*
X36351534Y-141694071D01*
X36665071Y-141380534D01*
X37033751Y-141134189D01*
X37443407Y-140964504D01*
X37824120Y-140888776D01*
X37878295Y-140878000D01*
X38321705Y-140878000D01*
X38375880Y-140888776D01*
G37*
G36*
X52482437Y-123035493D02*
G01*
X52649769Y-123086253D01*
X52803975Y-123168678D01*
X52939143Y-123279607D01*
X53050072Y-123414775D01*
X53132497Y-123568981D01*
X53183257Y-123736313D01*
X53201000Y-123916466D01*
X53201000Y-138021034D01*
X53183257Y-138201187D01*
X53132497Y-138368519D01*
X53050072Y-138522725D01*
X52939143Y-138657893D01*
X52803975Y-138768822D01*
X52649769Y-138851247D01*
X52482437Y-138902007D01*
X52302284Y-138919750D01*
X36597716Y-138919750D01*
X36417563Y-138902007D01*
X36250231Y-138851247D01*
X36096025Y-138768822D01*
X35960857Y-138657893D01*
X35849928Y-138522725D01*
X35767503Y-138368519D01*
X35716743Y-138201187D01*
X35699000Y-138021034D01*
X35699000Y-123916466D01*
X35716743Y-123736313D01*
X35767503Y-123568981D01*
X35849928Y-123414775D01*
X35960857Y-123279607D01*
X36096025Y-123168678D01*
X36250231Y-123086253D01*
X36417563Y-123035493D01*
X36597716Y-123017750D01*
X52302284Y-123017750D01*
X52482437Y-123035493D01*
G37*
G36*
X278701187Y-123035493D02*
G01*
X278868519Y-123086253D01*
X279022725Y-123168678D01*
X279157893Y-123279607D01*
X279268822Y-123414775D01*
X279351247Y-123568981D01*
X279402007Y-123736313D01*
X279419750Y-123916466D01*
X279419750Y-138021034D01*
X279402007Y-138201187D01*
X279351247Y-138368519D01*
X279268822Y-138522725D01*
X279157893Y-138657893D01*
X279022725Y-138768822D01*
X278868519Y-138851247D01*
X278701187Y-138902007D01*
X278521034Y-138919750D01*
X262816466Y-138919750D01*
X262636313Y-138902007D01*
X262468981Y-138851247D01*
X262314775Y-138768822D01*
X262179607Y-138657893D01*
X262068678Y-138522725D01*
X261986253Y-138368519D01*
X261935493Y-138201187D01*
X261917750Y-138021034D01*
X261917750Y-123916466D01*
X261935493Y-123736313D01*
X261986253Y-123568981D01*
X262068678Y-123414775D01*
X262179607Y-123279607D01*
X262314775Y-123168678D01*
X262468981Y-123086253D01*
X262636313Y-123035493D01*
X262816466Y-123017750D01*
X278521034Y-123017750D01*
X278701187Y-123035493D01*
G37*
G36*
X76294937Y-123035493D02*
G01*
X76462269Y-123086253D01*
X76616475Y-123168678D01*
X76751643Y-123279607D01*
X76862572Y-123414775D01*
X76944997Y-123568981D01*
X76995757Y-123736313D01*
X77013500Y-123916466D01*
X77013500Y-138021034D01*
X76995757Y-138201187D01*
X76944997Y-138368519D01*
X76862572Y-138522725D01*
X76751643Y-138657893D01*
X76616475Y-138768822D01*
X76462269Y-138851247D01*
X76294937Y-138902007D01*
X76114784Y-138919750D01*
X60410216Y-138919750D01*
X60230063Y-138902007D01*
X60062731Y-138851247D01*
X59908525Y-138768822D01*
X59773357Y-138657893D01*
X59662428Y-138522725D01*
X59580003Y-138368519D01*
X59529243Y-138201187D01*
X59511500Y-138021034D01*
X59511500Y-123916466D01*
X59529243Y-123736313D01*
X59580003Y-123568981D01*
X59662428Y-123414775D01*
X59773357Y-123279607D01*
X59908525Y-123168678D01*
X60062731Y-123086253D01*
X60230063Y-123035493D01*
X60410216Y-123017750D01*
X76114784Y-123017750D01*
X76294937Y-123035493D01*
G37*
G36*
X100107437Y-123035493D02*
G01*
X100274769Y-123086253D01*
X100428975Y-123168678D01*
X100564143Y-123279607D01*
X100675072Y-123414775D01*
X100757497Y-123568981D01*
X100808257Y-123736313D01*
X100826000Y-123916466D01*
X100826000Y-138021034D01*
X100808257Y-138201187D01*
X100757497Y-138368519D01*
X100675072Y-138522725D01*
X100564143Y-138657893D01*
X100428975Y-138768822D01*
X100274769Y-138851247D01*
X100107437Y-138902007D01*
X99927284Y-138919750D01*
X84222716Y-138919750D01*
X84042563Y-138902007D01*
X83875231Y-138851247D01*
X83721025Y-138768822D01*
X83585857Y-138657893D01*
X83474928Y-138522725D01*
X83392503Y-138368519D01*
X83341743Y-138201187D01*
X83324000Y-138021034D01*
X83324000Y-123916466D01*
X83341743Y-123736313D01*
X83392503Y-123568981D01*
X83474928Y-123414775D01*
X83585857Y-123279607D01*
X83721025Y-123168678D01*
X83875231Y-123086253D01*
X84042563Y-123035493D01*
X84222716Y-123017750D01*
X99927284Y-123017750D01*
X100107437Y-123035493D01*
G37*
G36*
X123919937Y-123035493D02*
G01*
X124087269Y-123086253D01*
X124241475Y-123168678D01*
X124376643Y-123279607D01*
X124487572Y-123414775D01*
X124569997Y-123568981D01*
X124620757Y-123736313D01*
X124638500Y-123916466D01*
X124638500Y-138021034D01*
X124620757Y-138201187D01*
X124569997Y-138368519D01*
X124487572Y-138522725D01*
X124376643Y-138657893D01*
X124241475Y-138768822D01*
X124087269Y-138851247D01*
X123919937Y-138902007D01*
X123739784Y-138919750D01*
X108035216Y-138919750D01*
X107855063Y-138902007D01*
X107687731Y-138851247D01*
X107533525Y-138768822D01*
X107398357Y-138657893D01*
X107287428Y-138522725D01*
X107205003Y-138368519D01*
X107154243Y-138201187D01*
X107136500Y-138021034D01*
X107136500Y-123916466D01*
X107154243Y-123736313D01*
X107205003Y-123568981D01*
X107287428Y-123414775D01*
X107398357Y-123279607D01*
X107533525Y-123168678D01*
X107687731Y-123086253D01*
X107855063Y-123035493D01*
X108035216Y-123017750D01*
X123739784Y-123017750D01*
X123919937Y-123035493D01*
G37*
G36*
X152494937Y-123035493D02*
G01*
X152662269Y-123086253D01*
X152816475Y-123168678D01*
X152951643Y-123279607D01*
X153062572Y-123414775D01*
X153144997Y-123568981D01*
X153195757Y-123736313D01*
X153213500Y-123916466D01*
X153213500Y-138021034D01*
X153195757Y-138201187D01*
X153144997Y-138368519D01*
X153062572Y-138522725D01*
X152951643Y-138657893D01*
X152816475Y-138768822D01*
X152662269Y-138851247D01*
X152494937Y-138902007D01*
X152314784Y-138919750D01*
X136610216Y-138919750D01*
X136430063Y-138902007D01*
X136262731Y-138851247D01*
X136108525Y-138768822D01*
X135973357Y-138657893D01*
X135862428Y-138522725D01*
X135780003Y-138368519D01*
X135729243Y-138201187D01*
X135711500Y-138021034D01*
X135711500Y-123916466D01*
X135729243Y-123736313D01*
X135780003Y-123568981D01*
X135862428Y-123414775D01*
X135973357Y-123279607D01*
X136108525Y-123168678D01*
X136262731Y-123086253D01*
X136430063Y-123035493D01*
X136610216Y-123017750D01*
X152314784Y-123017750D01*
X152494937Y-123035493D01*
G37*
G36*
X185832437Y-123035493D02*
G01*
X185999769Y-123086253D01*
X186153975Y-123168678D01*
X186289143Y-123279607D01*
X186400072Y-123414775D01*
X186482497Y-123568981D01*
X186533257Y-123736313D01*
X186551000Y-123916466D01*
X186551000Y-138021034D01*
X186533257Y-138201187D01*
X186482497Y-138368519D01*
X186400072Y-138522725D01*
X186289143Y-138657893D01*
X186153975Y-138768822D01*
X185999769Y-138851247D01*
X185832437Y-138902007D01*
X185652284Y-138919750D01*
X169947716Y-138919750D01*
X169767563Y-138902007D01*
X169600231Y-138851247D01*
X169446025Y-138768822D01*
X169310857Y-138657893D01*
X169199928Y-138522725D01*
X169117503Y-138368519D01*
X169066743Y-138201187D01*
X169049000Y-138021034D01*
X169049000Y-123916466D01*
X169066743Y-123736313D01*
X169117503Y-123568981D01*
X169199928Y-123414775D01*
X169310857Y-123279607D01*
X169446025Y-123168678D01*
X169600231Y-123086253D01*
X169767563Y-123035493D01*
X169947716Y-123017750D01*
X185652284Y-123017750D01*
X185832437Y-123035493D01*
G37*
G36*
X216788687Y-123035493D02*
G01*
X216956019Y-123086253D01*
X217110225Y-123168678D01*
X217245393Y-123279607D01*
X217356322Y-123414775D01*
X217438747Y-123568981D01*
X217489507Y-123736313D01*
X217507250Y-123916466D01*
X217507250Y-138021034D01*
X217489507Y-138201187D01*
X217438747Y-138368519D01*
X217356322Y-138522725D01*
X217245393Y-138657893D01*
X217110225Y-138768822D01*
X216956019Y-138851247D01*
X216788687Y-138902007D01*
X216608534Y-138919750D01*
X200903966Y-138919750D01*
X200723813Y-138902007D01*
X200556481Y-138851247D01*
X200402275Y-138768822D01*
X200267107Y-138657893D01*
X200156178Y-138522725D01*
X200073753Y-138368519D01*
X200022993Y-138201187D01*
X200005250Y-138021034D01*
X200005250Y-123916466D01*
X200022993Y-123736313D01*
X200073753Y-123568981D01*
X200156178Y-123414775D01*
X200267107Y-123279607D01*
X200402275Y-123168678D01*
X200556481Y-123086253D01*
X200723813Y-123035493D01*
X200903966Y-123017750D01*
X216608534Y-123017750D01*
X216788687Y-123035493D01*
G37*
G36*
X240601187Y-123035493D02*
G01*
X240768519Y-123086253D01*
X240922725Y-123168678D01*
X241057893Y-123279607D01*
X241168822Y-123414775D01*
X241251247Y-123568981D01*
X241302007Y-123736313D01*
X241319750Y-123916466D01*
X241319750Y-138021034D01*
X241302007Y-138201187D01*
X241251247Y-138368519D01*
X241168822Y-138522725D01*
X241057893Y-138657893D01*
X240922725Y-138768822D01*
X240768519Y-138851247D01*
X240601187Y-138902007D01*
X240421034Y-138919750D01*
X224716466Y-138919750D01*
X224536313Y-138902007D01*
X224368981Y-138851247D01*
X224214775Y-138768822D01*
X224079607Y-138657893D01*
X223968678Y-138522725D01*
X223886253Y-138368519D01*
X223835493Y-138201187D01*
X223817750Y-138021034D01*
X223817750Y-123916466D01*
X223835493Y-123736313D01*
X223886253Y-123568981D01*
X223968678Y-123414775D01*
X224079607Y-123279607D01*
X224214775Y-123168678D01*
X224368981Y-123086253D01*
X224536313Y-123035493D01*
X224716466Y-123017750D01*
X240421034Y-123017750D01*
X240601187Y-123035493D01*
G37*
G36*
X259651187Y-123035493D02*
G01*
X259818519Y-123086253D01*
X259972725Y-123168678D01*
X260107893Y-123279607D01*
X260218822Y-123414775D01*
X260301247Y-123568981D01*
X260352007Y-123736313D01*
X260369750Y-123916466D01*
X260369750Y-138021034D01*
X260352007Y-138201187D01*
X260301247Y-138368519D01*
X260218822Y-138522725D01*
X260107893Y-138657893D01*
X259972725Y-138768822D01*
X259818519Y-138851247D01*
X259651187Y-138902007D01*
X259471034Y-138919750D01*
X243766466Y-138919750D01*
X243586313Y-138902007D01*
X243418981Y-138851247D01*
X243264775Y-138768822D01*
X243129607Y-138657893D01*
X243018678Y-138522725D01*
X242936253Y-138368519D01*
X242885493Y-138201187D01*
X242867750Y-138021034D01*
X242867750Y-123916466D01*
X242885493Y-123736313D01*
X242936253Y-123568981D01*
X243018678Y-123414775D01*
X243129607Y-123279607D01*
X243264775Y-123168678D01*
X243418981Y-123086253D01*
X243586313Y-123035493D01*
X243766466Y-123017750D01*
X259471034Y-123017750D01*
X259651187Y-123035493D01*
G37*
G36*
X102488687Y-103985493D02*
G01*
X102656019Y-104036253D01*
X102810225Y-104118678D01*
X102945393Y-104229607D01*
X103056322Y-104364775D01*
X103138747Y-104518981D01*
X103189507Y-104686313D01*
X103207250Y-104866466D01*
X103207250Y-118971034D01*
X103189507Y-119151187D01*
X103138747Y-119318519D01*
X103056322Y-119472725D01*
X102945393Y-119607893D01*
X102810225Y-119718822D01*
X102656019Y-119801247D01*
X102488687Y-119852007D01*
X102308534Y-119869750D01*
X86603966Y-119869750D01*
X86423813Y-119852007D01*
X86256481Y-119801247D01*
X86102275Y-119718822D01*
X85967107Y-119607893D01*
X85856178Y-119472725D01*
X85773753Y-119318519D01*
X85722993Y-119151187D01*
X85705250Y-118971034D01*
X85705250Y-104866466D01*
X85722993Y-104686313D01*
X85773753Y-104518981D01*
X85856178Y-104364775D01*
X85967107Y-104229607D01*
X86102275Y-104118678D01*
X86256481Y-104036253D01*
X86423813Y-103985493D01*
X86603966Y-103967750D01*
X102308534Y-103967750D01*
X102488687Y-103985493D01*
G37*
G36*
X254888687Y-103985493D02*
G01*
X255056019Y-104036253D01*
X255210225Y-104118678D01*
X255345393Y-104229607D01*
X255456322Y-104364775D01*
X255538747Y-104518981D01*
X255589507Y-104686313D01*
X255607250Y-104866466D01*
X255607250Y-118971034D01*
X255589507Y-119151187D01*
X255538747Y-119318519D01*
X255456322Y-119472725D01*
X255345393Y-119607893D01*
X255210225Y-119718822D01*
X255056019Y-119801247D01*
X254888687Y-119852007D01*
X254708534Y-119869750D01*
X239003966Y-119869750D01*
X238823813Y-119852007D01*
X238656481Y-119801247D01*
X238502275Y-119718822D01*
X238367107Y-119607893D01*
X238256178Y-119472725D01*
X238173753Y-119318519D01*
X238122993Y-119151187D01*
X238105250Y-118971034D01*
X238105250Y-104866466D01*
X238122993Y-104686313D01*
X238173753Y-104518981D01*
X238256178Y-104364775D01*
X238367107Y-104229607D01*
X238502275Y-104118678D01*
X238656481Y-104036253D01*
X238823813Y-103985493D01*
X239003966Y-103967750D01*
X254708534Y-103967750D01*
X254888687Y-103985493D01*
G37*
G36*
X121538687Y-103985493D02*
G01*
X121706019Y-104036253D01*
X121860225Y-104118678D01*
X121995393Y-104229607D01*
X122106322Y-104364775D01*
X122188747Y-104518981D01*
X122239507Y-104686313D01*
X122257250Y-104866466D01*
X122257250Y-118971034D01*
X122239507Y-119151187D01*
X122188747Y-119318519D01*
X122106322Y-119472725D01*
X121995393Y-119607893D01*
X121860225Y-119718822D01*
X121706019Y-119801247D01*
X121538687Y-119852007D01*
X121358534Y-119869750D01*
X105653966Y-119869750D01*
X105473813Y-119852007D01*
X105306481Y-119801247D01*
X105152275Y-119718822D01*
X105017107Y-119607893D01*
X104906178Y-119472725D01*
X104823753Y-119318519D01*
X104772993Y-119151187D01*
X104755250Y-118971034D01*
X104755250Y-104866466D01*
X104772993Y-104686313D01*
X104823753Y-104518981D01*
X104906178Y-104364775D01*
X105017107Y-104229607D01*
X105152275Y-104118678D01*
X105306481Y-104036253D01*
X105473813Y-103985493D01*
X105653966Y-103967750D01*
X121358534Y-103967750D01*
X121538687Y-103985493D01*
G37*
G36*
X235838687Y-103985493D02*
G01*
X236006019Y-104036253D01*
X236160225Y-104118678D01*
X236295393Y-104229607D01*
X236406322Y-104364775D01*
X236488747Y-104518981D01*
X236539507Y-104686313D01*
X236557250Y-104866466D01*
X236557250Y-118971034D01*
X236539507Y-119151187D01*
X236488747Y-119318519D01*
X236406322Y-119472725D01*
X236295393Y-119607893D01*
X236160225Y-119718822D01*
X236006019Y-119801247D01*
X235838687Y-119852007D01*
X235658534Y-119869750D01*
X219953966Y-119869750D01*
X219773813Y-119852007D01*
X219606481Y-119801247D01*
X219452275Y-119718822D01*
X219317107Y-119607893D01*
X219206178Y-119472725D01*
X219123753Y-119318519D01*
X219072993Y-119151187D01*
X219055250Y-118971034D01*
X219055250Y-104866466D01*
X219072993Y-104686313D01*
X219123753Y-104518981D01*
X219206178Y-104364775D01*
X219317107Y-104229607D01*
X219452275Y-104118678D01*
X219606481Y-104036253D01*
X219773813Y-103985493D01*
X219953966Y-103967750D01*
X235658534Y-103967750D01*
X235838687Y-103985493D01*
G37*
G36*
X216788687Y-103985493D02*
G01*
X216956019Y-104036253D01*
X217110225Y-104118678D01*
X217245393Y-104229607D01*
X217356322Y-104364775D01*
X217438747Y-104518981D01*
X217489507Y-104686313D01*
X217507250Y-104866466D01*
X217507250Y-118971034D01*
X217489507Y-119151187D01*
X217438747Y-119318519D01*
X217356322Y-119472725D01*
X217245393Y-119607893D01*
X217110225Y-119718822D01*
X216956019Y-119801247D01*
X216788687Y-119852007D01*
X216608534Y-119869750D01*
X200903966Y-119869750D01*
X200723813Y-119852007D01*
X200556481Y-119801247D01*
X200402275Y-119718822D01*
X200267107Y-119607893D01*
X200156178Y-119472725D01*
X200073753Y-119318519D01*
X200022993Y-119151187D01*
X200005250Y-118971034D01*
X200005250Y-104866466D01*
X200022993Y-104686313D01*
X200073753Y-104518981D01*
X200156178Y-104364775D01*
X200267107Y-104229607D01*
X200402275Y-104118678D01*
X200556481Y-104036253D01*
X200723813Y-103985493D01*
X200903966Y-103967750D01*
X216608534Y-103967750D01*
X216788687Y-103985493D01*
G37*
G36*
X197738687Y-103985493D02*
G01*
X197906019Y-104036253D01*
X198060225Y-104118678D01*
X198195393Y-104229607D01*
X198306322Y-104364775D01*
X198388747Y-104518981D01*
X198439507Y-104686313D01*
X198457250Y-104866466D01*
X198457250Y-118971034D01*
X198439507Y-119151187D01*
X198388747Y-119318519D01*
X198306322Y-119472725D01*
X198195393Y-119607893D01*
X198060225Y-119718822D01*
X197906019Y-119801247D01*
X197738687Y-119852007D01*
X197558534Y-119869750D01*
X181853966Y-119869750D01*
X181673813Y-119852007D01*
X181506481Y-119801247D01*
X181352275Y-119718822D01*
X181217107Y-119607893D01*
X181106178Y-119472725D01*
X181023753Y-119318519D01*
X180972993Y-119151187D01*
X180955250Y-118971034D01*
X180955250Y-104866466D01*
X180972993Y-104686313D01*
X181023753Y-104518981D01*
X181106178Y-104364775D01*
X181217107Y-104229607D01*
X181352275Y-104118678D01*
X181506481Y-104036253D01*
X181673813Y-103985493D01*
X181853966Y-103967750D01*
X197558534Y-103967750D01*
X197738687Y-103985493D01*
G37*
G36*
X178688687Y-103985493D02*
G01*
X178856019Y-104036253D01*
X179010225Y-104118678D01*
X179145393Y-104229607D01*
X179256322Y-104364775D01*
X179338747Y-104518981D01*
X179389507Y-104686313D01*
X179407250Y-104866466D01*
X179407250Y-118971034D01*
X179389507Y-119151187D01*
X179338747Y-119318519D01*
X179256322Y-119472725D01*
X179145393Y-119607893D01*
X179010225Y-119718822D01*
X178856019Y-119801247D01*
X178688687Y-119852007D01*
X178508534Y-119869750D01*
X162803966Y-119869750D01*
X162623813Y-119852007D01*
X162456481Y-119801247D01*
X162302275Y-119718822D01*
X162167107Y-119607893D01*
X162056178Y-119472725D01*
X161973753Y-119318519D01*
X161922993Y-119151187D01*
X161905250Y-118971034D01*
X161905250Y-104866466D01*
X161922993Y-104686313D01*
X161973753Y-104518981D01*
X162056178Y-104364775D01*
X162167107Y-104229607D01*
X162302275Y-104118678D01*
X162456481Y-104036253D01*
X162623813Y-103985493D01*
X162803966Y-103967750D01*
X178508534Y-103967750D01*
X178688687Y-103985493D01*
G37*
G36*
X159638687Y-103985493D02*
G01*
X159806019Y-104036253D01*
X159960225Y-104118678D01*
X160095393Y-104229607D01*
X160206322Y-104364775D01*
X160288747Y-104518981D01*
X160339507Y-104686313D01*
X160357250Y-104866466D01*
X160357250Y-118971034D01*
X160339507Y-119151187D01*
X160288747Y-119318519D01*
X160206322Y-119472725D01*
X160095393Y-119607893D01*
X159960225Y-119718822D01*
X159806019Y-119801247D01*
X159638687Y-119852007D01*
X159458534Y-119869750D01*
X143753966Y-119869750D01*
X143573813Y-119852007D01*
X143406481Y-119801247D01*
X143252275Y-119718822D01*
X143117107Y-119607893D01*
X143006178Y-119472725D01*
X142923753Y-119318519D01*
X142872993Y-119151187D01*
X142855250Y-118971034D01*
X142855250Y-104866466D01*
X142872993Y-104686313D01*
X142923753Y-104518981D01*
X143006178Y-104364775D01*
X143117107Y-104229607D01*
X143252275Y-104118678D01*
X143406481Y-104036253D01*
X143573813Y-103985493D01*
X143753966Y-103967750D01*
X159458534Y-103967750D01*
X159638687Y-103985493D01*
G37*
G36*
X140588687Y-103985493D02*
G01*
X140756019Y-104036253D01*
X140910225Y-104118678D01*
X141045393Y-104229607D01*
X141156322Y-104364775D01*
X141238747Y-104518981D01*
X141289507Y-104686313D01*
X141307250Y-104866466D01*
X141307250Y-118971034D01*
X141289507Y-119151187D01*
X141238747Y-119318519D01*
X141156322Y-119472725D01*
X141045393Y-119607893D01*
X140910225Y-119718822D01*
X140756019Y-119801247D01*
X140588687Y-119852007D01*
X140408534Y-119869750D01*
X124703966Y-119869750D01*
X124523813Y-119852007D01*
X124356481Y-119801247D01*
X124202275Y-119718822D01*
X124067107Y-119607893D01*
X123956178Y-119472725D01*
X123873753Y-119318519D01*
X123822993Y-119151187D01*
X123805250Y-118971034D01*
X123805250Y-104866466D01*
X123822993Y-104686313D01*
X123873753Y-104518981D01*
X123956178Y-104364775D01*
X124067107Y-104229607D01*
X124202275Y-104118678D01*
X124356481Y-104036253D01*
X124523813Y-103985493D01*
X124703966Y-103967750D01*
X140408534Y-103967750D01*
X140588687Y-103985493D01*
G37*
G36*
X57244937Y-103985493D02*
G01*
X57412269Y-104036253D01*
X57566475Y-104118678D01*
X57701643Y-104229607D01*
X57812572Y-104364775D01*
X57894997Y-104518981D01*
X57945757Y-104686313D01*
X57963500Y-104866466D01*
X57963500Y-118971034D01*
X57945757Y-119151187D01*
X57894997Y-119318519D01*
X57812572Y-119472725D01*
X57701643Y-119607893D01*
X57566475Y-119718822D01*
X57412269Y-119801247D01*
X57244937Y-119852007D01*
X57064784Y-119869750D01*
X41360216Y-119869750D01*
X41180063Y-119852007D01*
X41012731Y-119801247D01*
X40858525Y-119718822D01*
X40723357Y-119607893D01*
X40612428Y-119472725D01*
X40530003Y-119318519D01*
X40479243Y-119151187D01*
X40461500Y-118971034D01*
X40461500Y-104866466D01*
X40479243Y-104686313D01*
X40530003Y-104518981D01*
X40612428Y-104364775D01*
X40723357Y-104229607D01*
X40858525Y-104118678D01*
X41012731Y-104036253D01*
X41180063Y-103985493D01*
X41360216Y-103967750D01*
X57064784Y-103967750D01*
X57244937Y-103985493D01*
G37*
G36*
X83438687Y-103985493D02*
G01*
X83606019Y-104036253D01*
X83760225Y-104118678D01*
X83895393Y-104229607D01*
X84006322Y-104364775D01*
X84088747Y-104518981D01*
X84139507Y-104686313D01*
X84157250Y-104866466D01*
X84157250Y-118971034D01*
X84139507Y-119151187D01*
X84088747Y-119318519D01*
X84006322Y-119472725D01*
X83895393Y-119607893D01*
X83760225Y-119718822D01*
X83606019Y-119801247D01*
X83438687Y-119852007D01*
X83258534Y-119869750D01*
X67553966Y-119869750D01*
X67373813Y-119852007D01*
X67206481Y-119801247D01*
X67052275Y-119718822D01*
X66917107Y-119607893D01*
X66806178Y-119472725D01*
X66723753Y-119318519D01*
X66672993Y-119151187D01*
X66655250Y-118971034D01*
X66655250Y-104866466D01*
X66672993Y-104686313D01*
X66723753Y-104518981D01*
X66806178Y-104364775D01*
X66917107Y-104229607D01*
X67052275Y-104118678D01*
X67206481Y-104036253D01*
X67373813Y-103985493D01*
X67553966Y-103967750D01*
X83258534Y-103967750D01*
X83438687Y-103985493D01*
G37*
G36*
X276319937Y-103985493D02*
G01*
X276487269Y-104036253D01*
X276641475Y-104118678D01*
X276776643Y-104229607D01*
X276887572Y-104364775D01*
X276969997Y-104518981D01*
X277020757Y-104686313D01*
X277038500Y-104866466D01*
X277038500Y-118971034D01*
X277020757Y-119151187D01*
X276969997Y-119318519D01*
X276887572Y-119472725D01*
X276776643Y-119607893D01*
X276641475Y-119718822D01*
X276487269Y-119801247D01*
X276319937Y-119852007D01*
X276139784Y-119869750D01*
X260435216Y-119869750D01*
X260255063Y-119852007D01*
X260087731Y-119801247D01*
X259933525Y-119718822D01*
X259798357Y-119607893D01*
X259687428Y-119472725D01*
X259605003Y-119318519D01*
X259554243Y-119151187D01*
X259536500Y-118971034D01*
X259536500Y-104866466D01*
X259554243Y-104686313D01*
X259605003Y-104518981D01*
X259687428Y-104364775D01*
X259798357Y-104229607D01*
X259933525Y-104118678D01*
X260087731Y-104036253D01*
X260255063Y-103985493D01*
X260435216Y-103967750D01*
X276139784Y-103967750D01*
X276319937Y-103985493D01*
G37*
G36*
X271557437Y-84935493D02*
G01*
X271724769Y-84986253D01*
X271878975Y-85068678D01*
X272014143Y-85179607D01*
X272125072Y-85314775D01*
X272207497Y-85468981D01*
X272258257Y-85636313D01*
X272276000Y-85816466D01*
X272276000Y-99921034D01*
X272258257Y-100101187D01*
X272207497Y-100268519D01*
X272125072Y-100422725D01*
X272014143Y-100557893D01*
X271878975Y-100668822D01*
X271724769Y-100751247D01*
X271557437Y-100802007D01*
X271377284Y-100819750D01*
X255672716Y-100819750D01*
X255492563Y-100802007D01*
X255325231Y-100751247D01*
X255171025Y-100668822D01*
X255035857Y-100557893D01*
X254924928Y-100422725D01*
X254842503Y-100268519D01*
X254791743Y-100101187D01*
X254774000Y-99921034D01*
X254774000Y-85816466D01*
X254791743Y-85636313D01*
X254842503Y-85468981D01*
X254924928Y-85314775D01*
X255035857Y-85179607D01*
X255171025Y-85068678D01*
X255325231Y-84986253D01*
X255492563Y-84935493D01*
X255672716Y-84917750D01*
X271377284Y-84917750D01*
X271557437Y-84935493D01*
G37*
G36*
X245363687Y-84935493D02*
G01*
X245531019Y-84986253D01*
X245685225Y-85068678D01*
X245820393Y-85179607D01*
X245931322Y-85314775D01*
X246013747Y-85468981D01*
X246064507Y-85636313D01*
X246082250Y-85816466D01*
X246082250Y-99921034D01*
X246064507Y-100101187D01*
X246013747Y-100268519D01*
X245931322Y-100422725D01*
X245820393Y-100557893D01*
X245685225Y-100668822D01*
X245531019Y-100751247D01*
X245363687Y-100802007D01*
X245183534Y-100819750D01*
X229478966Y-100819750D01*
X229298813Y-100802007D01*
X229131481Y-100751247D01*
X228977275Y-100668822D01*
X228842107Y-100557893D01*
X228731178Y-100422725D01*
X228648753Y-100268519D01*
X228597993Y-100101187D01*
X228580250Y-99921034D01*
X228580250Y-85816466D01*
X228597993Y-85636313D01*
X228648753Y-85468981D01*
X228731178Y-85314775D01*
X228842107Y-85179607D01*
X228977275Y-85068678D01*
X229131481Y-84986253D01*
X229298813Y-84935493D01*
X229478966Y-84917750D01*
X245183534Y-84917750D01*
X245363687Y-84935493D01*
G37*
G36*
X226313687Y-84935493D02*
G01*
X226481019Y-84986253D01*
X226635225Y-85068678D01*
X226770393Y-85179607D01*
X226881322Y-85314775D01*
X226963747Y-85468981D01*
X227014507Y-85636313D01*
X227032250Y-85816466D01*
X227032250Y-99921034D01*
X227014507Y-100101187D01*
X226963747Y-100268519D01*
X226881322Y-100422725D01*
X226770393Y-100557893D01*
X226635225Y-100668822D01*
X226481019Y-100751247D01*
X226313687Y-100802007D01*
X226133534Y-100819750D01*
X210428966Y-100819750D01*
X210248813Y-100802007D01*
X210081481Y-100751247D01*
X209927275Y-100668822D01*
X209792107Y-100557893D01*
X209681178Y-100422725D01*
X209598753Y-100268519D01*
X209547993Y-100101187D01*
X209530250Y-99921034D01*
X209530250Y-85816466D01*
X209547993Y-85636313D01*
X209598753Y-85468981D01*
X209681178Y-85314775D01*
X209792107Y-85179607D01*
X209927275Y-85068678D01*
X210081481Y-84986253D01*
X210248813Y-84935493D01*
X210428966Y-84917750D01*
X226133534Y-84917750D01*
X226313687Y-84935493D01*
G37*
G36*
X207263687Y-84935493D02*
G01*
X207431019Y-84986253D01*
X207585225Y-85068678D01*
X207720393Y-85179607D01*
X207831322Y-85314775D01*
X207913747Y-85468981D01*
X207964507Y-85636313D01*
X207982250Y-85816466D01*
X207982250Y-99921034D01*
X207964507Y-100101187D01*
X207913747Y-100268519D01*
X207831322Y-100422725D01*
X207720393Y-100557893D01*
X207585225Y-100668822D01*
X207431019Y-100751247D01*
X207263687Y-100802007D01*
X207083534Y-100819750D01*
X191378966Y-100819750D01*
X191198813Y-100802007D01*
X191031481Y-100751247D01*
X190877275Y-100668822D01*
X190742107Y-100557893D01*
X190631178Y-100422725D01*
X190548753Y-100268519D01*
X190497993Y-100101187D01*
X190480250Y-99921034D01*
X190480250Y-85816466D01*
X190497993Y-85636313D01*
X190548753Y-85468981D01*
X190631178Y-85314775D01*
X190742107Y-85179607D01*
X190877275Y-85068678D01*
X191031481Y-84986253D01*
X191198813Y-84935493D01*
X191378966Y-84917750D01*
X207083534Y-84917750D01*
X207263687Y-84935493D01*
G37*
G36*
X188213687Y-84935493D02*
G01*
X188381019Y-84986253D01*
X188535225Y-85068678D01*
X188670393Y-85179607D01*
X188781322Y-85314775D01*
X188863747Y-85468981D01*
X188914507Y-85636313D01*
X188932250Y-85816466D01*
X188932250Y-99921034D01*
X188914507Y-100101187D01*
X188863747Y-100268519D01*
X188781322Y-100422725D01*
X188670393Y-100557893D01*
X188535225Y-100668822D01*
X188381019Y-100751247D01*
X188213687Y-100802007D01*
X188033534Y-100819750D01*
X172328966Y-100819750D01*
X172148813Y-100802007D01*
X171981481Y-100751247D01*
X171827275Y-100668822D01*
X171692107Y-100557893D01*
X171581178Y-100422725D01*
X171498753Y-100268519D01*
X171447993Y-100101187D01*
X171430250Y-99921034D01*
X171430250Y-85816466D01*
X171447993Y-85636313D01*
X171498753Y-85468981D01*
X171581178Y-85314775D01*
X171692107Y-85179607D01*
X171827275Y-85068678D01*
X171981481Y-84986253D01*
X172148813Y-84935493D01*
X172328966Y-84917750D01*
X188033534Y-84917750D01*
X188213687Y-84935493D01*
G37*
G36*
X169163687Y-84935493D02*
G01*
X169331019Y-84986253D01*
X169485225Y-85068678D01*
X169620393Y-85179607D01*
X169731322Y-85314775D01*
X169813747Y-85468981D01*
X169864507Y-85636313D01*
X169882250Y-85816466D01*
X169882250Y-99921034D01*
X169864507Y-100101187D01*
X169813747Y-100268519D01*
X169731322Y-100422725D01*
X169620393Y-100557893D01*
X169485225Y-100668822D01*
X169331019Y-100751247D01*
X169163687Y-100802007D01*
X168983534Y-100819750D01*
X153278966Y-100819750D01*
X153098813Y-100802007D01*
X152931481Y-100751247D01*
X152777275Y-100668822D01*
X152642107Y-100557893D01*
X152531178Y-100422725D01*
X152448753Y-100268519D01*
X152397993Y-100101187D01*
X152380250Y-99921034D01*
X152380250Y-85816466D01*
X152397993Y-85636313D01*
X152448753Y-85468981D01*
X152531178Y-85314775D01*
X152642107Y-85179607D01*
X152777275Y-85068678D01*
X152931481Y-84986253D01*
X153098813Y-84935493D01*
X153278966Y-84917750D01*
X168983534Y-84917750D01*
X169163687Y-84935493D01*
G37*
G36*
X150113687Y-84935493D02*
G01*
X150281019Y-84986253D01*
X150435225Y-85068678D01*
X150570393Y-85179607D01*
X150681322Y-85314775D01*
X150763747Y-85468981D01*
X150814507Y-85636313D01*
X150832250Y-85816466D01*
X150832250Y-99921034D01*
X150814507Y-100101187D01*
X150763747Y-100268519D01*
X150681322Y-100422725D01*
X150570393Y-100557893D01*
X150435225Y-100668822D01*
X150281019Y-100751247D01*
X150113687Y-100802007D01*
X149933534Y-100819750D01*
X134228966Y-100819750D01*
X134048813Y-100802007D01*
X133881481Y-100751247D01*
X133727275Y-100668822D01*
X133592107Y-100557893D01*
X133481178Y-100422725D01*
X133398753Y-100268519D01*
X133347993Y-100101187D01*
X133330250Y-99921034D01*
X133330250Y-85816466D01*
X133347993Y-85636313D01*
X133398753Y-85468981D01*
X133481178Y-85314775D01*
X133592107Y-85179607D01*
X133727275Y-85068678D01*
X133881481Y-84986253D01*
X134048813Y-84935493D01*
X134228966Y-84917750D01*
X149933534Y-84917750D01*
X150113687Y-84935493D01*
G37*
G36*
X131063687Y-84935493D02*
G01*
X131231019Y-84986253D01*
X131385225Y-85068678D01*
X131520393Y-85179607D01*
X131631322Y-85314775D01*
X131713747Y-85468981D01*
X131764507Y-85636313D01*
X131782250Y-85816466D01*
X131782250Y-99921034D01*
X131764507Y-100101187D01*
X131713747Y-100268519D01*
X131631322Y-100422725D01*
X131520393Y-100557893D01*
X131385225Y-100668822D01*
X131231019Y-100751247D01*
X131063687Y-100802007D01*
X130883534Y-100819750D01*
X115178966Y-100819750D01*
X114998813Y-100802007D01*
X114831481Y-100751247D01*
X114677275Y-100668822D01*
X114542107Y-100557893D01*
X114431178Y-100422725D01*
X114348753Y-100268519D01*
X114297993Y-100101187D01*
X114280250Y-99921034D01*
X114280250Y-85816466D01*
X114297993Y-85636313D01*
X114348753Y-85468981D01*
X114431178Y-85314775D01*
X114542107Y-85179607D01*
X114677275Y-85068678D01*
X114831481Y-84986253D01*
X114998813Y-84935493D01*
X115178966Y-84917750D01*
X130883534Y-84917750D01*
X131063687Y-84935493D01*
G37*
G36*
X52482437Y-84935493D02*
G01*
X52649769Y-84986253D01*
X52803975Y-85068678D01*
X52939143Y-85179607D01*
X53050072Y-85314775D01*
X53132497Y-85468981D01*
X53183257Y-85636313D01*
X53201000Y-85816466D01*
X53201000Y-99921034D01*
X53183257Y-100101187D01*
X53132497Y-100268519D01*
X53050072Y-100422725D01*
X52939143Y-100557893D01*
X52803975Y-100668822D01*
X52649769Y-100751247D01*
X52482437Y-100802007D01*
X52302284Y-100819750D01*
X36597716Y-100819750D01*
X36417563Y-100802007D01*
X36250231Y-100751247D01*
X36096025Y-100668822D01*
X35960857Y-100557893D01*
X35849928Y-100422725D01*
X35767503Y-100268519D01*
X35716743Y-100101187D01*
X35699000Y-99921034D01*
X35699000Y-85816466D01*
X35716743Y-85636313D01*
X35767503Y-85468981D01*
X35849928Y-85314775D01*
X35960857Y-85179607D01*
X36096025Y-85068678D01*
X36250231Y-84986253D01*
X36417563Y-84935493D01*
X36597716Y-84917750D01*
X52302284Y-84917750D01*
X52482437Y-84935493D01*
G37*
G36*
X112013687Y-84935493D02*
G01*
X112181019Y-84986253D01*
X112335225Y-85068678D01*
X112470393Y-85179607D01*
X112581322Y-85314775D01*
X112663747Y-85468981D01*
X112714507Y-85636313D01*
X112732250Y-85816466D01*
X112732250Y-99921034D01*
X112714507Y-100101187D01*
X112663747Y-100268519D01*
X112581322Y-100422725D01*
X112470393Y-100557893D01*
X112335225Y-100668822D01*
X112181019Y-100751247D01*
X112013687Y-100802007D01*
X111833534Y-100819750D01*
X96128966Y-100819750D01*
X95948813Y-100802007D01*
X95781481Y-100751247D01*
X95627275Y-100668822D01*
X95492107Y-100557893D01*
X95381178Y-100422725D01*
X95298753Y-100268519D01*
X95247993Y-100101187D01*
X95230250Y-99921034D01*
X95230250Y-85816466D01*
X95247993Y-85636313D01*
X95298753Y-85468981D01*
X95381178Y-85314775D01*
X95492107Y-85179607D01*
X95627275Y-85068678D01*
X95781481Y-84986253D01*
X95948813Y-84935493D01*
X96128966Y-84917750D01*
X111833534Y-84917750D01*
X112013687Y-84935493D01*
G37*
G36*
X92963687Y-84935493D02*
G01*
X93131019Y-84986253D01*
X93285225Y-85068678D01*
X93420393Y-85179607D01*
X93531322Y-85314775D01*
X93613747Y-85468981D01*
X93664507Y-85636313D01*
X93682250Y-85816466D01*
X93682250Y-99921034D01*
X93664507Y-100101187D01*
X93613747Y-100268519D01*
X93531322Y-100422725D01*
X93420393Y-100557893D01*
X93285225Y-100668822D01*
X93131019Y-100751247D01*
X92963687Y-100802007D01*
X92783534Y-100819750D01*
X77078966Y-100819750D01*
X76898813Y-100802007D01*
X76731481Y-100751247D01*
X76577275Y-100668822D01*
X76442107Y-100557893D01*
X76331178Y-100422725D01*
X76248753Y-100268519D01*
X76197993Y-100101187D01*
X76180250Y-99921034D01*
X76180250Y-85816466D01*
X76197993Y-85636313D01*
X76248753Y-85468981D01*
X76331178Y-85314775D01*
X76442107Y-85179607D01*
X76577275Y-85068678D01*
X76731481Y-84986253D01*
X76898813Y-84935493D01*
X77078966Y-84917750D01*
X92783534Y-84917750D01*
X92963687Y-84935493D01*
G37*
G36*
X73913687Y-84935493D02*
G01*
X74081019Y-84986253D01*
X74235225Y-85068678D01*
X74370393Y-85179607D01*
X74481322Y-85314775D01*
X74563747Y-85468981D01*
X74614507Y-85636313D01*
X74632250Y-85816466D01*
X74632250Y-99921034D01*
X74614507Y-100101187D01*
X74563747Y-100268519D01*
X74481322Y-100422725D01*
X74370393Y-100557893D01*
X74235225Y-100668822D01*
X74081019Y-100751247D01*
X73913687Y-100802007D01*
X73733534Y-100819750D01*
X58028966Y-100819750D01*
X57848813Y-100802007D01*
X57681481Y-100751247D01*
X57527275Y-100668822D01*
X57392107Y-100557893D01*
X57281178Y-100422725D01*
X57198753Y-100268519D01*
X57147993Y-100101187D01*
X57130250Y-99921034D01*
X57130250Y-85816466D01*
X57147993Y-85636313D01*
X57198753Y-85468981D01*
X57281178Y-85314775D01*
X57392107Y-85179607D01*
X57527275Y-85068678D01*
X57681481Y-84986253D01*
X57848813Y-84935493D01*
X58028966Y-84917750D01*
X73733534Y-84917750D01*
X73913687Y-84935493D01*
G37*
G36*
X202501187Y-65885493D02*
G01*
X202668519Y-65936253D01*
X202822725Y-66018678D01*
X202957893Y-66129607D01*
X203068822Y-66264775D01*
X203151247Y-66418981D01*
X203202007Y-66586313D01*
X203219750Y-66766466D01*
X203219750Y-80871034D01*
X203202007Y-81051187D01*
X203151247Y-81218519D01*
X203068822Y-81372725D01*
X202957893Y-81507893D01*
X202822725Y-81618822D01*
X202668519Y-81701247D01*
X202501187Y-81752007D01*
X202321034Y-81769750D01*
X186616466Y-81769750D01*
X186436313Y-81752007D01*
X186268981Y-81701247D01*
X186114775Y-81618822D01*
X185979607Y-81507893D01*
X185868678Y-81372725D01*
X185786253Y-81218519D01*
X185735493Y-81051187D01*
X185717750Y-80871034D01*
X185717750Y-66766466D01*
X185735493Y-66586313D01*
X185786253Y-66418981D01*
X185868678Y-66264775D01*
X185979607Y-66129607D01*
X186114775Y-66018678D01*
X186268981Y-65936253D01*
X186436313Y-65885493D01*
X186616466Y-65867750D01*
X202321034Y-65867750D01*
X202501187Y-65885493D01*
G37*
G36*
X259651187Y-65885493D02*
G01*
X259818519Y-65936253D01*
X259972725Y-66018678D01*
X260107893Y-66129607D01*
X260218822Y-66264775D01*
X260301247Y-66418981D01*
X260352007Y-66586313D01*
X260369750Y-66766466D01*
X260369750Y-80871034D01*
X260352007Y-81051187D01*
X260301247Y-81218519D01*
X260218822Y-81372725D01*
X260107893Y-81507893D01*
X259972725Y-81618822D01*
X259818519Y-81701247D01*
X259651187Y-81752007D01*
X259471034Y-81769750D01*
X243766466Y-81769750D01*
X243586313Y-81752007D01*
X243418981Y-81701247D01*
X243264775Y-81618822D01*
X243129607Y-81507893D01*
X243018678Y-81372725D01*
X242936253Y-81218519D01*
X242885493Y-81051187D01*
X242867750Y-80871034D01*
X242867750Y-66766466D01*
X242885493Y-66586313D01*
X242936253Y-66418981D01*
X243018678Y-66264775D01*
X243129607Y-66129607D01*
X243264775Y-66018678D01*
X243418981Y-65936253D01*
X243586313Y-65885493D01*
X243766466Y-65867750D01*
X259471034Y-65867750D01*
X259651187Y-65885493D01*
G37*
G36*
X50101187Y-65885493D02*
G01*
X50268519Y-65936253D01*
X50422725Y-66018678D01*
X50557893Y-66129607D01*
X50668822Y-66264775D01*
X50751247Y-66418981D01*
X50802007Y-66586313D01*
X50819750Y-66766466D01*
X50819750Y-80871034D01*
X50802007Y-81051187D01*
X50751247Y-81218519D01*
X50668822Y-81372725D01*
X50557893Y-81507893D01*
X50422725Y-81618822D01*
X50268519Y-81701247D01*
X50101187Y-81752007D01*
X49921034Y-81769750D01*
X34216466Y-81769750D01*
X34036313Y-81752007D01*
X33868981Y-81701247D01*
X33714775Y-81618822D01*
X33579607Y-81507893D01*
X33468678Y-81372725D01*
X33386253Y-81218519D01*
X33335493Y-81051187D01*
X33317750Y-80871034D01*
X33317750Y-66766466D01*
X33335493Y-66586313D01*
X33386253Y-66418981D01*
X33468678Y-66264775D01*
X33579607Y-66129607D01*
X33714775Y-66018678D01*
X33868981Y-65936253D01*
X34036313Y-65885493D01*
X34216466Y-65867750D01*
X49921034Y-65867750D01*
X50101187Y-65885493D01*
G37*
G36*
X69151187Y-65885493D02*
G01*
X69318519Y-65936253D01*
X69472725Y-66018678D01*
X69607893Y-66129607D01*
X69718822Y-66264775D01*
X69801247Y-66418981D01*
X69852007Y-66586313D01*
X69869750Y-66766466D01*
X69869750Y-80871034D01*
X69852007Y-81051187D01*
X69801247Y-81218519D01*
X69718822Y-81372725D01*
X69607893Y-81507893D01*
X69472725Y-81618822D01*
X69318519Y-81701247D01*
X69151187Y-81752007D01*
X68971034Y-81769750D01*
X53266466Y-81769750D01*
X53086313Y-81752007D01*
X52918981Y-81701247D01*
X52764775Y-81618822D01*
X52629607Y-81507893D01*
X52518678Y-81372725D01*
X52436253Y-81218519D01*
X52385493Y-81051187D01*
X52367750Y-80871034D01*
X52367750Y-66766466D01*
X52385493Y-66586313D01*
X52436253Y-66418981D01*
X52518678Y-66264775D01*
X52629607Y-66129607D01*
X52764775Y-66018678D01*
X52918981Y-65936253D01*
X53086313Y-65885493D01*
X53266466Y-65867750D01*
X68971034Y-65867750D01*
X69151187Y-65885493D01*
G37*
G36*
X88201187Y-65885493D02*
G01*
X88368519Y-65936253D01*
X88522725Y-66018678D01*
X88657893Y-66129607D01*
X88768822Y-66264775D01*
X88851247Y-66418981D01*
X88902007Y-66586313D01*
X88919750Y-66766466D01*
X88919750Y-80871034D01*
X88902007Y-81051187D01*
X88851247Y-81218519D01*
X88768822Y-81372725D01*
X88657893Y-81507893D01*
X88522725Y-81618822D01*
X88368519Y-81701247D01*
X88201187Y-81752007D01*
X88021034Y-81769750D01*
X72316466Y-81769750D01*
X72136313Y-81752007D01*
X71968981Y-81701247D01*
X71814775Y-81618822D01*
X71679607Y-81507893D01*
X71568678Y-81372725D01*
X71486253Y-81218519D01*
X71435493Y-81051187D01*
X71417750Y-80871034D01*
X71417750Y-66766466D01*
X71435493Y-66586313D01*
X71486253Y-66418981D01*
X71568678Y-66264775D01*
X71679607Y-66129607D01*
X71814775Y-66018678D01*
X71968981Y-65936253D01*
X72136313Y-65885493D01*
X72316466Y-65867750D01*
X88021034Y-65867750D01*
X88201187Y-65885493D01*
G37*
G36*
X107251187Y-65885493D02*
G01*
X107418519Y-65936253D01*
X107572725Y-66018678D01*
X107707893Y-66129607D01*
X107818822Y-66264775D01*
X107901247Y-66418981D01*
X107952007Y-66586313D01*
X107969750Y-66766466D01*
X107969750Y-80871034D01*
X107952007Y-81051187D01*
X107901247Y-81218519D01*
X107818822Y-81372725D01*
X107707893Y-81507893D01*
X107572725Y-81618822D01*
X107418519Y-81701247D01*
X107251187Y-81752007D01*
X107071034Y-81769750D01*
X91366466Y-81769750D01*
X91186313Y-81752007D01*
X91018981Y-81701247D01*
X90864775Y-81618822D01*
X90729607Y-81507893D01*
X90618678Y-81372725D01*
X90536253Y-81218519D01*
X90485493Y-81051187D01*
X90467750Y-80871034D01*
X90467750Y-66766466D01*
X90485493Y-66586313D01*
X90536253Y-66418981D01*
X90618678Y-66264775D01*
X90729607Y-66129607D01*
X90864775Y-66018678D01*
X91018981Y-65936253D01*
X91186313Y-65885493D01*
X91366466Y-65867750D01*
X107071034Y-65867750D01*
X107251187Y-65885493D01*
G37*
G36*
X126301187Y-65885493D02*
G01*
X126468519Y-65936253D01*
X126622725Y-66018678D01*
X126757893Y-66129607D01*
X126868822Y-66264775D01*
X126951247Y-66418981D01*
X127002007Y-66586313D01*
X127019750Y-66766466D01*
X127019750Y-80871034D01*
X127002007Y-81051187D01*
X126951247Y-81218519D01*
X126868822Y-81372725D01*
X126757893Y-81507893D01*
X126622725Y-81618822D01*
X126468519Y-81701247D01*
X126301187Y-81752007D01*
X126121034Y-81769750D01*
X110416466Y-81769750D01*
X110236313Y-81752007D01*
X110068981Y-81701247D01*
X109914775Y-81618822D01*
X109779607Y-81507893D01*
X109668678Y-81372725D01*
X109586253Y-81218519D01*
X109535493Y-81051187D01*
X109517750Y-80871034D01*
X109517750Y-66766466D01*
X109535493Y-66586313D01*
X109586253Y-66418981D01*
X109668678Y-66264775D01*
X109779607Y-66129607D01*
X109914775Y-66018678D01*
X110068981Y-65936253D01*
X110236313Y-65885493D01*
X110416466Y-65867750D01*
X126121034Y-65867750D01*
X126301187Y-65885493D01*
G37*
G36*
X145351187Y-65885493D02*
G01*
X145518519Y-65936253D01*
X145672725Y-66018678D01*
X145807893Y-66129607D01*
X145918822Y-66264775D01*
X146001247Y-66418981D01*
X146052007Y-66586313D01*
X146069750Y-66766466D01*
X146069750Y-80871034D01*
X146052007Y-81051187D01*
X146001247Y-81218519D01*
X145918822Y-81372725D01*
X145807893Y-81507893D01*
X145672725Y-81618822D01*
X145518519Y-81701247D01*
X145351187Y-81752007D01*
X145171034Y-81769750D01*
X129466466Y-81769750D01*
X129286313Y-81752007D01*
X129118981Y-81701247D01*
X128964775Y-81618822D01*
X128829607Y-81507893D01*
X128718678Y-81372725D01*
X128636253Y-81218519D01*
X128585493Y-81051187D01*
X128567750Y-80871034D01*
X128567750Y-66766466D01*
X128585493Y-66586313D01*
X128636253Y-66418981D01*
X128718678Y-66264775D01*
X128829607Y-66129607D01*
X128964775Y-66018678D01*
X129118981Y-65936253D01*
X129286313Y-65885493D01*
X129466466Y-65867750D01*
X145171034Y-65867750D01*
X145351187Y-65885493D01*
G37*
G36*
X164401187Y-65885493D02*
G01*
X164568519Y-65936253D01*
X164722725Y-66018678D01*
X164857893Y-66129607D01*
X164968822Y-66264775D01*
X165051247Y-66418981D01*
X165102007Y-66586313D01*
X165119750Y-66766466D01*
X165119750Y-80871034D01*
X165102007Y-81051187D01*
X165051247Y-81218519D01*
X164968822Y-81372725D01*
X164857893Y-81507893D01*
X164722725Y-81618822D01*
X164568519Y-81701247D01*
X164401187Y-81752007D01*
X164221034Y-81769750D01*
X148516466Y-81769750D01*
X148336313Y-81752007D01*
X148168981Y-81701247D01*
X148014775Y-81618822D01*
X147879607Y-81507893D01*
X147768678Y-81372725D01*
X147686253Y-81218519D01*
X147635493Y-81051187D01*
X147617750Y-80871034D01*
X147617750Y-66766466D01*
X147635493Y-66586313D01*
X147686253Y-66418981D01*
X147768678Y-66264775D01*
X147879607Y-66129607D01*
X148014775Y-66018678D01*
X148168981Y-65936253D01*
X148336313Y-65885493D01*
X148516466Y-65867750D01*
X164221034Y-65867750D01*
X164401187Y-65885493D01*
G37*
G36*
X183451187Y-65885493D02*
G01*
X183618519Y-65936253D01*
X183772725Y-66018678D01*
X183907893Y-66129607D01*
X184018822Y-66264775D01*
X184101247Y-66418981D01*
X184152007Y-66586313D01*
X184169750Y-66766466D01*
X184169750Y-80871034D01*
X184152007Y-81051187D01*
X184101247Y-81218519D01*
X184018822Y-81372725D01*
X183907893Y-81507893D01*
X183772725Y-81618822D01*
X183618519Y-81701247D01*
X183451187Y-81752007D01*
X183271034Y-81769750D01*
X167566466Y-81769750D01*
X167386313Y-81752007D01*
X167218981Y-81701247D01*
X167064775Y-81618822D01*
X166929607Y-81507893D01*
X166818678Y-81372725D01*
X166736253Y-81218519D01*
X166685493Y-81051187D01*
X166667750Y-80871034D01*
X166667750Y-66766466D01*
X166685493Y-66586313D01*
X166736253Y-66418981D01*
X166818678Y-66264775D01*
X166929607Y-66129607D01*
X167064775Y-66018678D01*
X167218981Y-65936253D01*
X167386313Y-65885493D01*
X167566466Y-65867750D01*
X183271034Y-65867750D01*
X183451187Y-65885493D01*
G37*
G36*
X278701187Y-65885493D02*
G01*
X278868519Y-65936253D01*
X279022725Y-66018678D01*
X279157893Y-66129607D01*
X279268822Y-66264775D01*
X279351247Y-66418981D01*
X279402007Y-66586313D01*
X279419750Y-66766466D01*
X279419750Y-80871034D01*
X279402007Y-81051187D01*
X279351247Y-81218519D01*
X279268822Y-81372725D01*
X279157893Y-81507893D01*
X279022725Y-81618822D01*
X278868519Y-81701247D01*
X278701187Y-81752007D01*
X278521034Y-81769750D01*
X262816466Y-81769750D01*
X262636313Y-81752007D01*
X262468981Y-81701247D01*
X262314775Y-81618822D01*
X262179607Y-81507893D01*
X262068678Y-81372725D01*
X261986253Y-81218519D01*
X261935493Y-81051187D01*
X261917750Y-80871034D01*
X261917750Y-66766466D01*
X261935493Y-66586313D01*
X261986253Y-66418981D01*
X262068678Y-66264775D01*
X262179607Y-66129607D01*
X262314775Y-66018678D01*
X262468981Y-65936253D01*
X262636313Y-65885493D01*
X262816466Y-65867750D01*
X278521034Y-65867750D01*
X278701187Y-65885493D01*
G37*
G36*
X240601187Y-65885493D02*
G01*
X240768519Y-65936253D01*
X240922725Y-66018678D01*
X241057893Y-66129607D01*
X241168822Y-66264775D01*
X241251247Y-66418981D01*
X241302007Y-66586313D01*
X241319750Y-66766466D01*
X241319750Y-80871034D01*
X241302007Y-81051187D01*
X241251247Y-81218519D01*
X241168822Y-81372725D01*
X241057893Y-81507893D01*
X240922725Y-81618822D01*
X240768519Y-81701247D01*
X240601187Y-81752007D01*
X240421034Y-81769750D01*
X224716466Y-81769750D01*
X224536313Y-81752007D01*
X224368981Y-81701247D01*
X224214775Y-81618822D01*
X224079607Y-81507893D01*
X223968678Y-81372725D01*
X223886253Y-81218519D01*
X223835493Y-81051187D01*
X223817750Y-80871034D01*
X223817750Y-66766466D01*
X223835493Y-66586313D01*
X223886253Y-66418981D01*
X223968678Y-66264775D01*
X224079607Y-66129607D01*
X224214775Y-66018678D01*
X224368981Y-65936253D01*
X224536313Y-65885493D01*
X224716466Y-65867750D01*
X240421034Y-65867750D01*
X240601187Y-65885493D01*
G37*
G36*
X221551187Y-65885493D02*
G01*
X221718519Y-65936253D01*
X221872725Y-66018678D01*
X222007893Y-66129607D01*
X222118822Y-66264775D01*
X222201247Y-66418981D01*
X222252007Y-66586313D01*
X222269750Y-66766466D01*
X222269750Y-80871034D01*
X222252007Y-81051187D01*
X222201247Y-81218519D01*
X222118822Y-81372725D01*
X222007893Y-81507893D01*
X221872725Y-81618822D01*
X221718519Y-81701247D01*
X221551187Y-81752007D01*
X221371034Y-81769750D01*
X205666466Y-81769750D01*
X205486313Y-81752007D01*
X205318981Y-81701247D01*
X205164775Y-81618822D01*
X205029607Y-81507893D01*
X204918678Y-81372725D01*
X204836253Y-81218519D01*
X204785493Y-81051187D01*
X204767750Y-80871034D01*
X204767750Y-66766466D01*
X204785493Y-66586313D01*
X204836253Y-66418981D01*
X204918678Y-66264775D01*
X205029607Y-66129607D01*
X205164775Y-66018678D01*
X205318981Y-65936253D01*
X205486313Y-65885493D01*
X205666466Y-65867750D01*
X221371034Y-65867750D01*
X221551187Y-65885493D01*
G37*
G36*
X59626187Y-46835493D02*
G01*
X59793519Y-46886253D01*
X59947725Y-46968678D01*
X60082893Y-47079607D01*
X60193822Y-47214775D01*
X60276247Y-47368981D01*
X60327007Y-47536313D01*
X60344750Y-47716466D01*
X60344750Y-61821034D01*
X60327007Y-62001187D01*
X60276247Y-62168519D01*
X60193822Y-62322725D01*
X60082893Y-62457893D01*
X59947725Y-62568822D01*
X59793519Y-62651247D01*
X59626187Y-62702007D01*
X59446034Y-62719750D01*
X43741466Y-62719750D01*
X43561313Y-62702007D01*
X43393981Y-62651247D01*
X43239775Y-62568822D01*
X43104607Y-62457893D01*
X42993678Y-62322725D01*
X42911253Y-62168519D01*
X42860493Y-62001187D01*
X42842750Y-61821034D01*
X42842750Y-47716466D01*
X42860493Y-47536313D01*
X42911253Y-47368981D01*
X42993678Y-47214775D01*
X43104607Y-47079607D01*
X43239775Y-46968678D01*
X43393981Y-46886253D01*
X43561313Y-46835493D01*
X43741466Y-46817750D01*
X59446034Y-46817750D01*
X59626187Y-46835493D01*
G37*
G36*
X78676187Y-46835493D02*
G01*
X78843519Y-46886253D01*
X78997725Y-46968678D01*
X79132893Y-47079607D01*
X79243822Y-47214775D01*
X79326247Y-47368981D01*
X79377007Y-47536313D01*
X79394750Y-47716466D01*
X79394750Y-61821034D01*
X79377007Y-62001187D01*
X79326247Y-62168519D01*
X79243822Y-62322725D01*
X79132893Y-62457893D01*
X78997725Y-62568822D01*
X78843519Y-62651247D01*
X78676187Y-62702007D01*
X78496034Y-62719750D01*
X62791466Y-62719750D01*
X62611313Y-62702007D01*
X62443981Y-62651247D01*
X62289775Y-62568822D01*
X62154607Y-62457893D01*
X62043678Y-62322725D01*
X61961253Y-62168519D01*
X61910493Y-62001187D01*
X61892750Y-61821034D01*
X61892750Y-47716466D01*
X61910493Y-47536313D01*
X61961253Y-47368981D01*
X62043678Y-47214775D01*
X62154607Y-47079607D01*
X62289775Y-46968678D01*
X62443981Y-46886253D01*
X62611313Y-46835493D01*
X62791466Y-46817750D01*
X78496034Y-46817750D01*
X78676187Y-46835493D01*
G37*
G36*
X97726187Y-46835493D02*
G01*
X97893519Y-46886253D01*
X98047725Y-46968678D01*
X98182893Y-47079607D01*
X98293822Y-47214775D01*
X98376247Y-47368981D01*
X98427007Y-47536313D01*
X98444750Y-47716466D01*
X98444750Y-61821034D01*
X98427007Y-62001187D01*
X98376247Y-62168519D01*
X98293822Y-62322725D01*
X98182893Y-62457893D01*
X98047725Y-62568822D01*
X97893519Y-62651247D01*
X97726187Y-62702007D01*
X97546034Y-62719750D01*
X81841466Y-62719750D01*
X81661313Y-62702007D01*
X81493981Y-62651247D01*
X81339775Y-62568822D01*
X81204607Y-62457893D01*
X81093678Y-62322725D01*
X81011253Y-62168519D01*
X80960493Y-62001187D01*
X80942750Y-61821034D01*
X80942750Y-47716466D01*
X80960493Y-47536313D01*
X81011253Y-47368981D01*
X81093678Y-47214775D01*
X81204607Y-47079607D01*
X81339775Y-46968678D01*
X81493981Y-46886253D01*
X81661313Y-46835493D01*
X81841466Y-46817750D01*
X97546034Y-46817750D01*
X97726187Y-46835493D01*
G37*
G36*
X116776187Y-46835493D02*
G01*
X116943519Y-46886253D01*
X117097725Y-46968678D01*
X117232893Y-47079607D01*
X117343822Y-47214775D01*
X117426247Y-47368981D01*
X117477007Y-47536313D01*
X117494750Y-47716466D01*
X117494750Y-61821034D01*
X117477007Y-62001187D01*
X117426247Y-62168519D01*
X117343822Y-62322725D01*
X117232893Y-62457893D01*
X117097725Y-62568822D01*
X116943519Y-62651247D01*
X116776187Y-62702007D01*
X116596034Y-62719750D01*
X100891466Y-62719750D01*
X100711313Y-62702007D01*
X100543981Y-62651247D01*
X100389775Y-62568822D01*
X100254607Y-62457893D01*
X100143678Y-62322725D01*
X100061253Y-62168519D01*
X100010493Y-62001187D01*
X99992750Y-61821034D01*
X99992750Y-47716466D01*
X100010493Y-47536313D01*
X100061253Y-47368981D01*
X100143678Y-47214775D01*
X100254607Y-47079607D01*
X100389775Y-46968678D01*
X100543981Y-46886253D01*
X100711313Y-46835493D01*
X100891466Y-46817750D01*
X116596034Y-46817750D01*
X116776187Y-46835493D01*
G37*
G36*
X135826187Y-46835493D02*
G01*
X135993519Y-46886253D01*
X136147725Y-46968678D01*
X136282893Y-47079607D01*
X136393822Y-47214775D01*
X136476247Y-47368981D01*
X136527007Y-47536313D01*
X136544750Y-47716466D01*
X136544750Y-61821034D01*
X136527007Y-62001187D01*
X136476247Y-62168519D01*
X136393822Y-62322725D01*
X136282893Y-62457893D01*
X136147725Y-62568822D01*
X135993519Y-62651247D01*
X135826187Y-62702007D01*
X135646034Y-62719750D01*
X119941466Y-62719750D01*
X119761313Y-62702007D01*
X119593981Y-62651247D01*
X119439775Y-62568822D01*
X119304607Y-62457893D01*
X119193678Y-62322725D01*
X119111253Y-62168519D01*
X119060493Y-62001187D01*
X119042750Y-61821034D01*
X119042750Y-47716466D01*
X119060493Y-47536313D01*
X119111253Y-47368981D01*
X119193678Y-47214775D01*
X119304607Y-47079607D01*
X119439775Y-46968678D01*
X119593981Y-46886253D01*
X119761313Y-46835493D01*
X119941466Y-46817750D01*
X135646034Y-46817750D01*
X135826187Y-46835493D01*
G37*
G36*
X154876187Y-46835493D02*
G01*
X155043519Y-46886253D01*
X155197725Y-46968678D01*
X155332893Y-47079607D01*
X155443822Y-47214775D01*
X155526247Y-47368981D01*
X155577007Y-47536313D01*
X155594750Y-47716466D01*
X155594750Y-61821034D01*
X155577007Y-62001187D01*
X155526247Y-62168519D01*
X155443822Y-62322725D01*
X155332893Y-62457893D01*
X155197725Y-62568822D01*
X155043519Y-62651247D01*
X154876187Y-62702007D01*
X154696034Y-62719750D01*
X138991466Y-62719750D01*
X138811313Y-62702007D01*
X138643981Y-62651247D01*
X138489775Y-62568822D01*
X138354607Y-62457893D01*
X138243678Y-62322725D01*
X138161253Y-62168519D01*
X138110493Y-62001187D01*
X138092750Y-61821034D01*
X138092750Y-47716466D01*
X138110493Y-47536313D01*
X138161253Y-47368981D01*
X138243678Y-47214775D01*
X138354607Y-47079607D01*
X138489775Y-46968678D01*
X138643981Y-46886253D01*
X138811313Y-46835493D01*
X138991466Y-46817750D01*
X154696034Y-46817750D01*
X154876187Y-46835493D01*
G37*
G36*
X173926187Y-46835493D02*
G01*
X174093519Y-46886253D01*
X174247725Y-46968678D01*
X174382893Y-47079607D01*
X174493822Y-47214775D01*
X174576247Y-47368981D01*
X174627007Y-47536313D01*
X174644750Y-47716466D01*
X174644750Y-61821034D01*
X174627007Y-62001187D01*
X174576247Y-62168519D01*
X174493822Y-62322725D01*
X174382893Y-62457893D01*
X174247725Y-62568822D01*
X174093519Y-62651247D01*
X173926187Y-62702007D01*
X173746034Y-62719750D01*
X158041466Y-62719750D01*
X157861313Y-62702007D01*
X157693981Y-62651247D01*
X157539775Y-62568822D01*
X157404607Y-62457893D01*
X157293678Y-62322725D01*
X157211253Y-62168519D01*
X157160493Y-62001187D01*
X157142750Y-61821034D01*
X157142750Y-47716466D01*
X157160493Y-47536313D01*
X157211253Y-47368981D01*
X157293678Y-47214775D01*
X157404607Y-47079607D01*
X157539775Y-46968678D01*
X157693981Y-46886253D01*
X157861313Y-46835493D01*
X158041466Y-46817750D01*
X173746034Y-46817750D01*
X173926187Y-46835493D01*
G37*
G36*
X192976187Y-46835493D02*
G01*
X193143519Y-46886253D01*
X193297725Y-46968678D01*
X193432893Y-47079607D01*
X193543822Y-47214775D01*
X193626247Y-47368981D01*
X193677007Y-47536313D01*
X193694750Y-47716466D01*
X193694750Y-61821034D01*
X193677007Y-62001187D01*
X193626247Y-62168519D01*
X193543822Y-62322725D01*
X193432893Y-62457893D01*
X193297725Y-62568822D01*
X193143519Y-62651247D01*
X192976187Y-62702007D01*
X192796034Y-62719750D01*
X177091466Y-62719750D01*
X176911313Y-62702007D01*
X176743981Y-62651247D01*
X176589775Y-62568822D01*
X176454607Y-62457893D01*
X176343678Y-62322725D01*
X176261253Y-62168519D01*
X176210493Y-62001187D01*
X176192750Y-61821034D01*
X176192750Y-47716466D01*
X176210493Y-47536313D01*
X176261253Y-47368981D01*
X176343678Y-47214775D01*
X176454607Y-47079607D01*
X176589775Y-46968678D01*
X176743981Y-46886253D01*
X176911313Y-46835493D01*
X177091466Y-46817750D01*
X192796034Y-46817750D01*
X192976187Y-46835493D01*
G37*
G36*
X231076187Y-46835493D02*
G01*
X231243519Y-46886253D01*
X231397725Y-46968678D01*
X231532893Y-47079607D01*
X231643822Y-47214775D01*
X231726247Y-47368981D01*
X231777007Y-47536313D01*
X231794750Y-47716466D01*
X231794750Y-61821034D01*
X231777007Y-62001187D01*
X231726247Y-62168519D01*
X231643822Y-62322725D01*
X231532893Y-62457893D01*
X231397725Y-62568822D01*
X231243519Y-62651247D01*
X231076187Y-62702007D01*
X230896034Y-62719750D01*
X215191466Y-62719750D01*
X215011313Y-62702007D01*
X214843981Y-62651247D01*
X214689775Y-62568822D01*
X214554607Y-62457893D01*
X214443678Y-62322725D01*
X214361253Y-62168519D01*
X214310493Y-62001187D01*
X214292750Y-61821034D01*
X214292750Y-47716466D01*
X214310493Y-47536313D01*
X214361253Y-47368981D01*
X214443678Y-47214775D01*
X214554607Y-47079607D01*
X214689775Y-46968678D01*
X214843981Y-46886253D01*
X215011313Y-46835493D01*
X215191466Y-46817750D01*
X230896034Y-46817750D01*
X231076187Y-46835493D01*
G37*
G36*
X250126187Y-46835493D02*
G01*
X250293519Y-46886253D01*
X250447725Y-46968678D01*
X250582893Y-47079607D01*
X250693822Y-47214775D01*
X250776247Y-47368981D01*
X250827007Y-47536313D01*
X250844750Y-47716466D01*
X250844750Y-61821034D01*
X250827007Y-62001187D01*
X250776247Y-62168519D01*
X250693822Y-62322725D01*
X250582893Y-62457893D01*
X250447725Y-62568822D01*
X250293519Y-62651247D01*
X250126187Y-62702007D01*
X249946034Y-62719750D01*
X234241466Y-62719750D01*
X234061313Y-62702007D01*
X233893981Y-62651247D01*
X233739775Y-62568822D01*
X233604607Y-62457893D01*
X233493678Y-62322725D01*
X233411253Y-62168519D01*
X233360493Y-62001187D01*
X233342750Y-61821034D01*
X233342750Y-47716466D01*
X233360493Y-47536313D01*
X233411253Y-47368981D01*
X233493678Y-47214775D01*
X233604607Y-47079607D01*
X233739775Y-46968678D01*
X233893981Y-46886253D01*
X234061313Y-46835493D01*
X234241466Y-46817750D01*
X249946034Y-46817750D01*
X250126187Y-46835493D01*
G37*
G36*
X212026187Y-46835493D02*
G01*
X212193519Y-46886253D01*
X212347725Y-46968678D01*
X212482893Y-47079607D01*
X212593822Y-47214775D01*
X212676247Y-47368981D01*
X212727007Y-47536313D01*
X212744750Y-47716466D01*
X212744750Y-61821034D01*
X212727007Y-62001187D01*
X212676247Y-62168519D01*
X212593822Y-62322725D01*
X212482893Y-62457893D01*
X212347725Y-62568822D01*
X212193519Y-62651247D01*
X212026187Y-62702007D01*
X211846034Y-62719750D01*
X196141466Y-62719750D01*
X195961313Y-62702007D01*
X195793981Y-62651247D01*
X195639775Y-62568822D01*
X195504607Y-62457893D01*
X195393678Y-62322725D01*
X195311253Y-62168519D01*
X195260493Y-62001187D01*
X195242750Y-61821034D01*
X195242750Y-47716466D01*
X195260493Y-47536313D01*
X195311253Y-47368981D01*
X195393678Y-47214775D01*
X195504607Y-47079607D01*
X195639775Y-46968678D01*
X195793981Y-46886253D01*
X195961313Y-46835493D01*
X196141466Y-46817750D01*
X211846034Y-46817750D01*
X212026187Y-46835493D01*
G37*
G36*
X37582130Y-46178526D02*
G01*
X37962843Y-46254254D01*
X38372499Y-46423939D01*
X38741179Y-46670284D01*
X39054716Y-46983821D01*
X39301061Y-47352501D01*
X39470746Y-47762157D01*
X39557250Y-48197046D01*
X39557250Y-48640454D01*
X39470746Y-49075343D01*
X39301061Y-49484999D01*
X39054716Y-49853679D01*
X38741179Y-50167216D01*
X38372499Y-50413561D01*
X37962843Y-50583246D01*
X37582130Y-50658974D01*
X37527955Y-50669750D01*
X37084545Y-50669750D01*
X37030370Y-50658974D01*
X36649657Y-50583246D01*
X36240001Y-50413561D01*
X35871321Y-50167216D01*
X35557784Y-49853679D01*
X35311439Y-49484999D01*
X35141754Y-49075343D01*
X35055250Y-48640454D01*
X35055250Y-48197046D01*
X35141754Y-47762157D01*
X35311439Y-47352501D01*
X35557784Y-46983821D01*
X35871321Y-46670284D01*
X36240001Y-46423939D01*
X36649657Y-46254254D01*
X37030370Y-46178526D01*
X37084545Y-46167750D01*
X37527955Y-46167750D01*
X37582130Y-46178526D01*
G37*
G36*
X256657130Y-46178526D02*
G01*
X257037843Y-46254254D01*
X257447499Y-46423939D01*
X257816179Y-46670284D01*
X258129716Y-46983821D01*
X258376061Y-47352501D01*
X258545746Y-47762157D01*
X258632250Y-48197046D01*
X258632250Y-48640454D01*
X258545746Y-49075343D01*
X258376061Y-49484999D01*
X258129716Y-49853679D01*
X257816179Y-50167216D01*
X257447499Y-50413561D01*
X257037843Y-50583246D01*
X256657130Y-50658974D01*
X256602955Y-50669750D01*
X256159545Y-50669750D01*
X256105370Y-50658974D01*
X255724657Y-50583246D01*
X255315001Y-50413561D01*
X254946321Y-50167216D01*
X254632784Y-49853679D01*
X254386439Y-49484999D01*
X254216754Y-49075343D01*
X254130250Y-48640454D01*
X254130250Y-48197046D01*
X254216754Y-47762157D01*
X254386439Y-47352501D01*
X254632784Y-46983821D01*
X254946321Y-46670284D01*
X255315001Y-46423939D01*
X255724657Y-46254254D01*
X256105370Y-46178526D01*
X256159545Y-46167750D01*
X256602955Y-46167750D01*
X256657130Y-46178526D01*
G37*
M02*
