G04 #@! TF.GenerationSoftware,KiCad,Pcbnew,(5.1.5-0-10_14)*
G04 #@! TF.CreationDate,2020-08-31T10:03:10-05:00*
G04 #@! TF.ProjectId,SithZhuyin40,53697468-5a68-4757-9969-6e34302e6b69,rev?*
G04 #@! TF.SameCoordinates,Original*
G04 #@! TF.FileFunction,Legend,Bot*
G04 #@! TF.FilePolarity,Positive*
%FSLAX46Y46*%
G04 Gerber Fmt 4.6, Leading zero omitted, Abs format (unit mm)*
G04 Created by KiCad (PCBNEW (5.1.5-0-10_14)) date 2020-08-31 10:03:10*
%MOMM*%
%LPD*%
G04 APERTURE LIST*
%ADD10C,0.381000*%
%ADD11C,0.150000*%
G04 APERTURE END LIST*
D10*
X264318750Y-54768750D02*
X261778750Y-54768750D01*
X264318750Y-52228750D02*
X264318750Y-54768750D01*
X279558750Y-82708750D02*
X279558750Y-52228750D01*
X261778750Y-82708750D02*
X279558750Y-82708750D01*
X261778750Y-52228750D02*
X261778750Y-82708750D01*
X279558750Y-52228750D02*
X261778750Y-52228750D01*
D11*
X261969250Y-131603750D02*
X261969250Y-136683750D01*
X261969250Y-136683750D02*
X263493250Y-136683750D01*
X263493250Y-136683750D02*
X263493250Y-131603750D01*
X263493250Y-131603750D02*
X261969250Y-131603750D01*
X261969250Y-136302750D02*
X263493250Y-136302750D01*
X263493250Y-136429750D02*
X261969250Y-136429750D01*
X261969250Y-136556750D02*
X263493250Y-136556750D01*
X263493250Y-136175750D02*
X261969250Y-136175750D01*
X261969250Y-136048750D02*
X263493250Y-136048750D01*
X261969250Y-135921750D02*
X263493250Y-135921750D01*
X242919250Y-131603750D02*
X242919250Y-136683750D01*
X242919250Y-136683750D02*
X244443250Y-136683750D01*
X244443250Y-136683750D02*
X244443250Y-131603750D01*
X244443250Y-131603750D02*
X242919250Y-131603750D01*
X242919250Y-136302750D02*
X244443250Y-136302750D01*
X244443250Y-136429750D02*
X242919250Y-136429750D01*
X242919250Y-136556750D02*
X244443250Y-136556750D01*
X244443250Y-136175750D02*
X242919250Y-136175750D01*
X242919250Y-136048750D02*
X244443250Y-136048750D01*
X242919250Y-135921750D02*
X244443250Y-135921750D01*
X223869250Y-131603750D02*
X223869250Y-136683750D01*
X223869250Y-136683750D02*
X225393250Y-136683750D01*
X225393250Y-136683750D02*
X225393250Y-131603750D01*
X225393250Y-131603750D02*
X223869250Y-131603750D01*
X223869250Y-136302750D02*
X225393250Y-136302750D01*
X225393250Y-136429750D02*
X223869250Y-136429750D01*
X223869250Y-136556750D02*
X225393250Y-136556750D01*
X225393250Y-136175750D02*
X223869250Y-136175750D01*
X223869250Y-136048750D02*
X225393250Y-136048750D01*
X223869250Y-135921750D02*
X225393250Y-135921750D01*
X200056750Y-131603750D02*
X200056750Y-136683750D01*
X200056750Y-136683750D02*
X201580750Y-136683750D01*
X201580750Y-136683750D02*
X201580750Y-131603750D01*
X201580750Y-131603750D02*
X200056750Y-131603750D01*
X200056750Y-136302750D02*
X201580750Y-136302750D01*
X201580750Y-136429750D02*
X200056750Y-136429750D01*
X200056750Y-136556750D02*
X201580750Y-136556750D01*
X201580750Y-136175750D02*
X200056750Y-136175750D01*
X200056750Y-136048750D02*
X201580750Y-136048750D01*
X200056750Y-135921750D02*
X201580750Y-135921750D01*
X169100500Y-131603750D02*
X169100500Y-136683750D01*
X169100500Y-136683750D02*
X170624500Y-136683750D01*
X170624500Y-136683750D02*
X170624500Y-131603750D01*
X170624500Y-131603750D02*
X169100500Y-131603750D01*
X169100500Y-136302750D02*
X170624500Y-136302750D01*
X170624500Y-136429750D02*
X169100500Y-136429750D01*
X169100500Y-136556750D02*
X170624500Y-136556750D01*
X170624500Y-136175750D02*
X169100500Y-136175750D01*
X169100500Y-136048750D02*
X170624500Y-136048750D01*
X169100500Y-135921750D02*
X170624500Y-135921750D01*
X135763000Y-131603750D02*
X135763000Y-136683750D01*
X135763000Y-136683750D02*
X137287000Y-136683750D01*
X137287000Y-136683750D02*
X137287000Y-131603750D01*
X137287000Y-131603750D02*
X135763000Y-131603750D01*
X135763000Y-136302750D02*
X137287000Y-136302750D01*
X137287000Y-136429750D02*
X135763000Y-136429750D01*
X135763000Y-136556750D02*
X137287000Y-136556750D01*
X137287000Y-136175750D02*
X135763000Y-136175750D01*
X135763000Y-136048750D02*
X137287000Y-136048750D01*
X135763000Y-135921750D02*
X137287000Y-135921750D01*
X107188000Y-131603750D02*
X107188000Y-136683750D01*
X107188000Y-136683750D02*
X108712000Y-136683750D01*
X108712000Y-136683750D02*
X108712000Y-131603750D01*
X108712000Y-131603750D02*
X107188000Y-131603750D01*
X107188000Y-136302750D02*
X108712000Y-136302750D01*
X108712000Y-136429750D02*
X107188000Y-136429750D01*
X107188000Y-136556750D02*
X108712000Y-136556750D01*
X108712000Y-136175750D02*
X107188000Y-136175750D01*
X107188000Y-136048750D02*
X108712000Y-136048750D01*
X107188000Y-135921750D02*
X108712000Y-135921750D01*
X83375500Y-131603750D02*
X83375500Y-136683750D01*
X83375500Y-136683750D02*
X84899500Y-136683750D01*
X84899500Y-136683750D02*
X84899500Y-131603750D01*
X84899500Y-131603750D02*
X83375500Y-131603750D01*
X83375500Y-136302750D02*
X84899500Y-136302750D01*
X84899500Y-136429750D02*
X83375500Y-136429750D01*
X83375500Y-136556750D02*
X84899500Y-136556750D01*
X84899500Y-136175750D02*
X83375500Y-136175750D01*
X83375500Y-136048750D02*
X84899500Y-136048750D01*
X83375500Y-135921750D02*
X84899500Y-135921750D01*
X59563000Y-131603750D02*
X59563000Y-136683750D01*
X59563000Y-136683750D02*
X61087000Y-136683750D01*
X61087000Y-136683750D02*
X61087000Y-131603750D01*
X61087000Y-131603750D02*
X59563000Y-131603750D01*
X59563000Y-136302750D02*
X61087000Y-136302750D01*
X61087000Y-136429750D02*
X59563000Y-136429750D01*
X59563000Y-136556750D02*
X61087000Y-136556750D01*
X61087000Y-136175750D02*
X59563000Y-136175750D01*
X59563000Y-136048750D02*
X61087000Y-136048750D01*
X59563000Y-135921750D02*
X61087000Y-135921750D01*
X35750500Y-131603750D02*
X35750500Y-136683750D01*
X35750500Y-136683750D02*
X37274500Y-136683750D01*
X37274500Y-136683750D02*
X37274500Y-131603750D01*
X37274500Y-131603750D02*
X35750500Y-131603750D01*
X35750500Y-136302750D02*
X37274500Y-136302750D01*
X37274500Y-136429750D02*
X35750500Y-136429750D01*
X35750500Y-136556750D02*
X37274500Y-136556750D01*
X37274500Y-136175750D02*
X35750500Y-136175750D01*
X35750500Y-136048750D02*
X37274500Y-136048750D01*
X35750500Y-135921750D02*
X37274500Y-135921750D01*
X259588000Y-112553750D02*
X259588000Y-117633750D01*
X259588000Y-117633750D02*
X261112000Y-117633750D01*
X261112000Y-117633750D02*
X261112000Y-112553750D01*
X261112000Y-112553750D02*
X259588000Y-112553750D01*
X259588000Y-117252750D02*
X261112000Y-117252750D01*
X261112000Y-117379750D02*
X259588000Y-117379750D01*
X259588000Y-117506750D02*
X261112000Y-117506750D01*
X261112000Y-117125750D02*
X259588000Y-117125750D01*
X259588000Y-116998750D02*
X261112000Y-116998750D01*
X259588000Y-116871750D02*
X261112000Y-116871750D01*
X238156750Y-112553750D02*
X238156750Y-117633750D01*
X238156750Y-117633750D02*
X239680750Y-117633750D01*
X239680750Y-117633750D02*
X239680750Y-112553750D01*
X239680750Y-112553750D02*
X238156750Y-112553750D01*
X238156750Y-117252750D02*
X239680750Y-117252750D01*
X239680750Y-117379750D02*
X238156750Y-117379750D01*
X238156750Y-117506750D02*
X239680750Y-117506750D01*
X239680750Y-117125750D02*
X238156750Y-117125750D01*
X238156750Y-116998750D02*
X239680750Y-116998750D01*
X238156750Y-116871750D02*
X239680750Y-116871750D01*
X219106750Y-112553750D02*
X219106750Y-117633750D01*
X219106750Y-117633750D02*
X220630750Y-117633750D01*
X220630750Y-117633750D02*
X220630750Y-112553750D01*
X220630750Y-112553750D02*
X219106750Y-112553750D01*
X219106750Y-117252750D02*
X220630750Y-117252750D01*
X220630750Y-117379750D02*
X219106750Y-117379750D01*
X219106750Y-117506750D02*
X220630750Y-117506750D01*
X220630750Y-117125750D02*
X219106750Y-117125750D01*
X219106750Y-116998750D02*
X220630750Y-116998750D01*
X219106750Y-116871750D02*
X220630750Y-116871750D01*
X200056750Y-112553750D02*
X200056750Y-117633750D01*
X200056750Y-117633750D02*
X201580750Y-117633750D01*
X201580750Y-117633750D02*
X201580750Y-112553750D01*
X201580750Y-112553750D02*
X200056750Y-112553750D01*
X200056750Y-117252750D02*
X201580750Y-117252750D01*
X201580750Y-117379750D02*
X200056750Y-117379750D01*
X200056750Y-117506750D02*
X201580750Y-117506750D01*
X201580750Y-117125750D02*
X200056750Y-117125750D01*
X200056750Y-116998750D02*
X201580750Y-116998750D01*
X200056750Y-116871750D02*
X201580750Y-116871750D01*
X181006750Y-112553750D02*
X181006750Y-117633750D01*
X181006750Y-117633750D02*
X182530750Y-117633750D01*
X182530750Y-117633750D02*
X182530750Y-112553750D01*
X182530750Y-112553750D02*
X181006750Y-112553750D01*
X181006750Y-117252750D02*
X182530750Y-117252750D01*
X182530750Y-117379750D02*
X181006750Y-117379750D01*
X181006750Y-117506750D02*
X182530750Y-117506750D01*
X182530750Y-117125750D02*
X181006750Y-117125750D01*
X181006750Y-116998750D02*
X182530750Y-116998750D01*
X181006750Y-116871750D02*
X182530750Y-116871750D01*
X161956750Y-112553750D02*
X161956750Y-117633750D01*
X161956750Y-117633750D02*
X163480750Y-117633750D01*
X163480750Y-117633750D02*
X163480750Y-112553750D01*
X163480750Y-112553750D02*
X161956750Y-112553750D01*
X161956750Y-117252750D02*
X163480750Y-117252750D01*
X163480750Y-117379750D02*
X161956750Y-117379750D01*
X161956750Y-117506750D02*
X163480750Y-117506750D01*
X163480750Y-117125750D02*
X161956750Y-117125750D01*
X161956750Y-116998750D02*
X163480750Y-116998750D01*
X161956750Y-116871750D02*
X163480750Y-116871750D01*
X142906750Y-112553750D02*
X142906750Y-117633750D01*
X142906750Y-117633750D02*
X144430750Y-117633750D01*
X144430750Y-117633750D02*
X144430750Y-112553750D01*
X144430750Y-112553750D02*
X142906750Y-112553750D01*
X142906750Y-117252750D02*
X144430750Y-117252750D01*
X144430750Y-117379750D02*
X142906750Y-117379750D01*
X142906750Y-117506750D02*
X144430750Y-117506750D01*
X144430750Y-117125750D02*
X142906750Y-117125750D01*
X142906750Y-116998750D02*
X144430750Y-116998750D01*
X142906750Y-116871750D02*
X144430750Y-116871750D01*
X123856750Y-112553750D02*
X123856750Y-117633750D01*
X123856750Y-117633750D02*
X125380750Y-117633750D01*
X125380750Y-117633750D02*
X125380750Y-112553750D01*
X125380750Y-112553750D02*
X123856750Y-112553750D01*
X123856750Y-117252750D02*
X125380750Y-117252750D01*
X125380750Y-117379750D02*
X123856750Y-117379750D01*
X123856750Y-117506750D02*
X125380750Y-117506750D01*
X125380750Y-117125750D02*
X123856750Y-117125750D01*
X123856750Y-116998750D02*
X125380750Y-116998750D01*
X123856750Y-116871750D02*
X125380750Y-116871750D01*
X104806750Y-112553750D02*
X104806750Y-117633750D01*
X104806750Y-117633750D02*
X106330750Y-117633750D01*
X106330750Y-117633750D02*
X106330750Y-112553750D01*
X106330750Y-112553750D02*
X104806750Y-112553750D01*
X104806750Y-117252750D02*
X106330750Y-117252750D01*
X106330750Y-117379750D02*
X104806750Y-117379750D01*
X104806750Y-117506750D02*
X106330750Y-117506750D01*
X106330750Y-117125750D02*
X104806750Y-117125750D01*
X104806750Y-116998750D02*
X106330750Y-116998750D01*
X104806750Y-116871750D02*
X106330750Y-116871750D01*
X85756750Y-112553750D02*
X85756750Y-117633750D01*
X85756750Y-117633750D02*
X87280750Y-117633750D01*
X87280750Y-117633750D02*
X87280750Y-112553750D01*
X87280750Y-112553750D02*
X85756750Y-112553750D01*
X85756750Y-117252750D02*
X87280750Y-117252750D01*
X87280750Y-117379750D02*
X85756750Y-117379750D01*
X85756750Y-117506750D02*
X87280750Y-117506750D01*
X87280750Y-117125750D02*
X85756750Y-117125750D01*
X85756750Y-116998750D02*
X87280750Y-116998750D01*
X85756750Y-116871750D02*
X87280750Y-116871750D01*
X66706750Y-112553750D02*
X66706750Y-117633750D01*
X66706750Y-117633750D02*
X68230750Y-117633750D01*
X68230750Y-117633750D02*
X68230750Y-112553750D01*
X68230750Y-112553750D02*
X66706750Y-112553750D01*
X66706750Y-117252750D02*
X68230750Y-117252750D01*
X68230750Y-117379750D02*
X66706750Y-117379750D01*
X66706750Y-117506750D02*
X68230750Y-117506750D01*
X68230750Y-117125750D02*
X66706750Y-117125750D01*
X66706750Y-116998750D02*
X68230750Y-116998750D01*
X66706750Y-116871750D02*
X68230750Y-116871750D01*
X40513000Y-112553750D02*
X40513000Y-117633750D01*
X40513000Y-117633750D02*
X42037000Y-117633750D01*
X42037000Y-117633750D02*
X42037000Y-112553750D01*
X42037000Y-112553750D02*
X40513000Y-112553750D01*
X40513000Y-117252750D02*
X42037000Y-117252750D01*
X42037000Y-117379750D02*
X40513000Y-117379750D01*
X40513000Y-117506750D02*
X42037000Y-117506750D01*
X42037000Y-117125750D02*
X40513000Y-117125750D01*
X40513000Y-116998750D02*
X42037000Y-116998750D01*
X40513000Y-116871750D02*
X42037000Y-116871750D01*
X254825500Y-93503750D02*
X254825500Y-98583750D01*
X254825500Y-98583750D02*
X256349500Y-98583750D01*
X256349500Y-98583750D02*
X256349500Y-93503750D01*
X256349500Y-93503750D02*
X254825500Y-93503750D01*
X254825500Y-98202750D02*
X256349500Y-98202750D01*
X256349500Y-98329750D02*
X254825500Y-98329750D01*
X254825500Y-98456750D02*
X256349500Y-98456750D01*
X256349500Y-98075750D02*
X254825500Y-98075750D01*
X254825500Y-97948750D02*
X256349500Y-97948750D01*
X254825500Y-97821750D02*
X256349500Y-97821750D01*
X228631750Y-93503750D02*
X228631750Y-98583750D01*
X228631750Y-98583750D02*
X230155750Y-98583750D01*
X230155750Y-98583750D02*
X230155750Y-93503750D01*
X230155750Y-93503750D02*
X228631750Y-93503750D01*
X228631750Y-98202750D02*
X230155750Y-98202750D01*
X230155750Y-98329750D02*
X228631750Y-98329750D01*
X228631750Y-98456750D02*
X230155750Y-98456750D01*
X230155750Y-98075750D02*
X228631750Y-98075750D01*
X228631750Y-97948750D02*
X230155750Y-97948750D01*
X228631750Y-97821750D02*
X230155750Y-97821750D01*
X209581750Y-93503750D02*
X209581750Y-98583750D01*
X209581750Y-98583750D02*
X211105750Y-98583750D01*
X211105750Y-98583750D02*
X211105750Y-93503750D01*
X211105750Y-93503750D02*
X209581750Y-93503750D01*
X209581750Y-98202750D02*
X211105750Y-98202750D01*
X211105750Y-98329750D02*
X209581750Y-98329750D01*
X209581750Y-98456750D02*
X211105750Y-98456750D01*
X211105750Y-98075750D02*
X209581750Y-98075750D01*
X209581750Y-97948750D02*
X211105750Y-97948750D01*
X209581750Y-97821750D02*
X211105750Y-97821750D01*
X190531750Y-93503750D02*
X190531750Y-98583750D01*
X190531750Y-98583750D02*
X192055750Y-98583750D01*
X192055750Y-98583750D02*
X192055750Y-93503750D01*
X192055750Y-93503750D02*
X190531750Y-93503750D01*
X190531750Y-98202750D02*
X192055750Y-98202750D01*
X192055750Y-98329750D02*
X190531750Y-98329750D01*
X190531750Y-98456750D02*
X192055750Y-98456750D01*
X192055750Y-98075750D02*
X190531750Y-98075750D01*
X190531750Y-97948750D02*
X192055750Y-97948750D01*
X190531750Y-97821750D02*
X192055750Y-97821750D01*
X171481750Y-93503750D02*
X171481750Y-98583750D01*
X171481750Y-98583750D02*
X173005750Y-98583750D01*
X173005750Y-98583750D02*
X173005750Y-93503750D01*
X173005750Y-93503750D02*
X171481750Y-93503750D01*
X171481750Y-98202750D02*
X173005750Y-98202750D01*
X173005750Y-98329750D02*
X171481750Y-98329750D01*
X171481750Y-98456750D02*
X173005750Y-98456750D01*
X173005750Y-98075750D02*
X171481750Y-98075750D01*
X171481750Y-97948750D02*
X173005750Y-97948750D01*
X171481750Y-97821750D02*
X173005750Y-97821750D01*
X152431750Y-93503750D02*
X152431750Y-98583750D01*
X152431750Y-98583750D02*
X153955750Y-98583750D01*
X153955750Y-98583750D02*
X153955750Y-93503750D01*
X153955750Y-93503750D02*
X152431750Y-93503750D01*
X152431750Y-98202750D02*
X153955750Y-98202750D01*
X153955750Y-98329750D02*
X152431750Y-98329750D01*
X152431750Y-98456750D02*
X153955750Y-98456750D01*
X153955750Y-98075750D02*
X152431750Y-98075750D01*
X152431750Y-97948750D02*
X153955750Y-97948750D01*
X152431750Y-97821750D02*
X153955750Y-97821750D01*
X133381750Y-93503750D02*
X133381750Y-98583750D01*
X133381750Y-98583750D02*
X134905750Y-98583750D01*
X134905750Y-98583750D02*
X134905750Y-93503750D01*
X134905750Y-93503750D02*
X133381750Y-93503750D01*
X133381750Y-98202750D02*
X134905750Y-98202750D01*
X134905750Y-98329750D02*
X133381750Y-98329750D01*
X133381750Y-98456750D02*
X134905750Y-98456750D01*
X134905750Y-98075750D02*
X133381750Y-98075750D01*
X133381750Y-97948750D02*
X134905750Y-97948750D01*
X133381750Y-97821750D02*
X134905750Y-97821750D01*
X114331750Y-93503750D02*
X114331750Y-98583750D01*
X114331750Y-98583750D02*
X115855750Y-98583750D01*
X115855750Y-98583750D02*
X115855750Y-93503750D01*
X115855750Y-93503750D02*
X114331750Y-93503750D01*
X114331750Y-98202750D02*
X115855750Y-98202750D01*
X115855750Y-98329750D02*
X114331750Y-98329750D01*
X114331750Y-98456750D02*
X115855750Y-98456750D01*
X115855750Y-98075750D02*
X114331750Y-98075750D01*
X114331750Y-97948750D02*
X115855750Y-97948750D01*
X114331750Y-97821750D02*
X115855750Y-97821750D01*
X95281750Y-93503750D02*
X95281750Y-98583750D01*
X95281750Y-98583750D02*
X96805750Y-98583750D01*
X96805750Y-98583750D02*
X96805750Y-93503750D01*
X96805750Y-93503750D02*
X95281750Y-93503750D01*
X95281750Y-98202750D02*
X96805750Y-98202750D01*
X96805750Y-98329750D02*
X95281750Y-98329750D01*
X95281750Y-98456750D02*
X96805750Y-98456750D01*
X96805750Y-98075750D02*
X95281750Y-98075750D01*
X95281750Y-97948750D02*
X96805750Y-97948750D01*
X95281750Y-97821750D02*
X96805750Y-97821750D01*
X76231750Y-93503750D02*
X76231750Y-98583750D01*
X76231750Y-98583750D02*
X77755750Y-98583750D01*
X77755750Y-98583750D02*
X77755750Y-93503750D01*
X77755750Y-93503750D02*
X76231750Y-93503750D01*
X76231750Y-98202750D02*
X77755750Y-98202750D01*
X77755750Y-98329750D02*
X76231750Y-98329750D01*
X76231750Y-98456750D02*
X77755750Y-98456750D01*
X77755750Y-98075750D02*
X76231750Y-98075750D01*
X76231750Y-97948750D02*
X77755750Y-97948750D01*
X76231750Y-97821750D02*
X77755750Y-97821750D01*
X57181750Y-93503750D02*
X57181750Y-98583750D01*
X57181750Y-98583750D02*
X58705750Y-98583750D01*
X58705750Y-98583750D02*
X58705750Y-93503750D01*
X58705750Y-93503750D02*
X57181750Y-93503750D01*
X57181750Y-98202750D02*
X58705750Y-98202750D01*
X58705750Y-98329750D02*
X57181750Y-98329750D01*
X57181750Y-98456750D02*
X58705750Y-98456750D01*
X58705750Y-98075750D02*
X57181750Y-98075750D01*
X57181750Y-97948750D02*
X58705750Y-97948750D01*
X57181750Y-97821750D02*
X58705750Y-97821750D01*
X35750500Y-93503750D02*
X35750500Y-98583750D01*
X35750500Y-98583750D02*
X37274500Y-98583750D01*
X37274500Y-98583750D02*
X37274500Y-93503750D01*
X37274500Y-93503750D02*
X35750500Y-93503750D01*
X35750500Y-98202750D02*
X37274500Y-98202750D01*
X37274500Y-98329750D02*
X35750500Y-98329750D01*
X35750500Y-98456750D02*
X37274500Y-98456750D01*
X37274500Y-98075750D02*
X35750500Y-98075750D01*
X35750500Y-97948750D02*
X37274500Y-97948750D01*
X35750500Y-97821750D02*
X37274500Y-97821750D01*
X259588000Y-74453750D02*
X259588000Y-79533750D01*
X259588000Y-79533750D02*
X261112000Y-79533750D01*
X261112000Y-79533750D02*
X261112000Y-74453750D01*
X261112000Y-74453750D02*
X259588000Y-74453750D01*
X259588000Y-79152750D02*
X261112000Y-79152750D01*
X261112000Y-79279750D02*
X259588000Y-79279750D01*
X259588000Y-79406750D02*
X261112000Y-79406750D01*
X261112000Y-79025750D02*
X259588000Y-79025750D01*
X259588000Y-78898750D02*
X261112000Y-78898750D01*
X259588000Y-78771750D02*
X261112000Y-78771750D01*
X223869250Y-74453750D02*
X223869250Y-79533750D01*
X223869250Y-79533750D02*
X225393250Y-79533750D01*
X225393250Y-79533750D02*
X225393250Y-74453750D01*
X225393250Y-74453750D02*
X223869250Y-74453750D01*
X223869250Y-79152750D02*
X225393250Y-79152750D01*
X225393250Y-79279750D02*
X223869250Y-79279750D01*
X223869250Y-79406750D02*
X225393250Y-79406750D01*
X225393250Y-79025750D02*
X223869250Y-79025750D01*
X223869250Y-78898750D02*
X225393250Y-78898750D01*
X223869250Y-78771750D02*
X225393250Y-78771750D01*
X204819250Y-74453750D02*
X204819250Y-79533750D01*
X204819250Y-79533750D02*
X206343250Y-79533750D01*
X206343250Y-79533750D02*
X206343250Y-74453750D01*
X206343250Y-74453750D02*
X204819250Y-74453750D01*
X204819250Y-79152750D02*
X206343250Y-79152750D01*
X206343250Y-79279750D02*
X204819250Y-79279750D01*
X204819250Y-79406750D02*
X206343250Y-79406750D01*
X206343250Y-79025750D02*
X204819250Y-79025750D01*
X204819250Y-78898750D02*
X206343250Y-78898750D01*
X204819250Y-78771750D02*
X206343250Y-78771750D01*
X185769250Y-74453750D02*
X185769250Y-79533750D01*
X185769250Y-79533750D02*
X187293250Y-79533750D01*
X187293250Y-79533750D02*
X187293250Y-74453750D01*
X187293250Y-74453750D02*
X185769250Y-74453750D01*
X185769250Y-79152750D02*
X187293250Y-79152750D01*
X187293250Y-79279750D02*
X185769250Y-79279750D01*
X185769250Y-79406750D02*
X187293250Y-79406750D01*
X187293250Y-79025750D02*
X185769250Y-79025750D01*
X185769250Y-78898750D02*
X187293250Y-78898750D01*
X185769250Y-78771750D02*
X187293250Y-78771750D01*
X166719250Y-74453750D02*
X166719250Y-79533750D01*
X166719250Y-79533750D02*
X168243250Y-79533750D01*
X168243250Y-79533750D02*
X168243250Y-74453750D01*
X168243250Y-74453750D02*
X166719250Y-74453750D01*
X166719250Y-79152750D02*
X168243250Y-79152750D01*
X168243250Y-79279750D02*
X166719250Y-79279750D01*
X166719250Y-79406750D02*
X168243250Y-79406750D01*
X168243250Y-79025750D02*
X166719250Y-79025750D01*
X166719250Y-78898750D02*
X168243250Y-78898750D01*
X166719250Y-78771750D02*
X168243250Y-78771750D01*
X147669250Y-74453750D02*
X147669250Y-79533750D01*
X147669250Y-79533750D02*
X149193250Y-79533750D01*
X149193250Y-79533750D02*
X149193250Y-74453750D01*
X149193250Y-74453750D02*
X147669250Y-74453750D01*
X147669250Y-79152750D02*
X149193250Y-79152750D01*
X149193250Y-79279750D02*
X147669250Y-79279750D01*
X147669250Y-79406750D02*
X149193250Y-79406750D01*
X149193250Y-79025750D02*
X147669250Y-79025750D01*
X147669250Y-78898750D02*
X149193250Y-78898750D01*
X147669250Y-78771750D02*
X149193250Y-78771750D01*
X128619250Y-74453750D02*
X128619250Y-79533750D01*
X128619250Y-79533750D02*
X130143250Y-79533750D01*
X130143250Y-79533750D02*
X130143250Y-74453750D01*
X130143250Y-74453750D02*
X128619250Y-74453750D01*
X128619250Y-79152750D02*
X130143250Y-79152750D01*
X130143250Y-79279750D02*
X128619250Y-79279750D01*
X128619250Y-79406750D02*
X130143250Y-79406750D01*
X130143250Y-79025750D02*
X128619250Y-79025750D01*
X128619250Y-78898750D02*
X130143250Y-78898750D01*
X128619250Y-78771750D02*
X130143250Y-78771750D01*
X109569250Y-74453750D02*
X109569250Y-79533750D01*
X109569250Y-79533750D02*
X111093250Y-79533750D01*
X111093250Y-79533750D02*
X111093250Y-74453750D01*
X111093250Y-74453750D02*
X109569250Y-74453750D01*
X109569250Y-79152750D02*
X111093250Y-79152750D01*
X111093250Y-79279750D02*
X109569250Y-79279750D01*
X109569250Y-79406750D02*
X111093250Y-79406750D01*
X111093250Y-79025750D02*
X109569250Y-79025750D01*
X109569250Y-78898750D02*
X111093250Y-78898750D01*
X109569250Y-78771750D02*
X111093250Y-78771750D01*
X90519250Y-74453750D02*
X90519250Y-79533750D01*
X90519250Y-79533750D02*
X92043250Y-79533750D01*
X92043250Y-79533750D02*
X92043250Y-74453750D01*
X92043250Y-74453750D02*
X90519250Y-74453750D01*
X90519250Y-79152750D02*
X92043250Y-79152750D01*
X92043250Y-79279750D02*
X90519250Y-79279750D01*
X90519250Y-79406750D02*
X92043250Y-79406750D01*
X92043250Y-79025750D02*
X90519250Y-79025750D01*
X90519250Y-78898750D02*
X92043250Y-78898750D01*
X90519250Y-78771750D02*
X92043250Y-78771750D01*
X71469250Y-74453750D02*
X71469250Y-79533750D01*
X71469250Y-79533750D02*
X72993250Y-79533750D01*
X72993250Y-79533750D02*
X72993250Y-74453750D01*
X72993250Y-74453750D02*
X71469250Y-74453750D01*
X71469250Y-79152750D02*
X72993250Y-79152750D01*
X72993250Y-79279750D02*
X71469250Y-79279750D01*
X71469250Y-79406750D02*
X72993250Y-79406750D01*
X72993250Y-79025750D02*
X71469250Y-79025750D01*
X71469250Y-78898750D02*
X72993250Y-78898750D01*
X71469250Y-78771750D02*
X72993250Y-78771750D01*
X52419250Y-74453750D02*
X52419250Y-79533750D01*
X52419250Y-79533750D02*
X53943250Y-79533750D01*
X53943250Y-79533750D02*
X53943250Y-74453750D01*
X53943250Y-74453750D02*
X52419250Y-74453750D01*
X52419250Y-79152750D02*
X53943250Y-79152750D01*
X53943250Y-79279750D02*
X52419250Y-79279750D01*
X52419250Y-79406750D02*
X53943250Y-79406750D01*
X53943250Y-79025750D02*
X52419250Y-79025750D01*
X52419250Y-78898750D02*
X53943250Y-78898750D01*
X52419250Y-78771750D02*
X53943250Y-78771750D01*
X33369250Y-74453750D02*
X33369250Y-79533750D01*
X33369250Y-79533750D02*
X34893250Y-79533750D01*
X34893250Y-79533750D02*
X34893250Y-74453750D01*
X34893250Y-74453750D02*
X33369250Y-74453750D01*
X33369250Y-79152750D02*
X34893250Y-79152750D01*
X34893250Y-79279750D02*
X33369250Y-79279750D01*
X33369250Y-79406750D02*
X34893250Y-79406750D01*
X34893250Y-79025750D02*
X33369250Y-79025750D01*
X33369250Y-78898750D02*
X34893250Y-78898750D01*
X33369250Y-78771750D02*
X34893250Y-78771750D01*
X242919250Y-74453750D02*
X242919250Y-79533750D01*
X242919250Y-79533750D02*
X244443250Y-79533750D01*
X244443250Y-79533750D02*
X244443250Y-74453750D01*
X244443250Y-74453750D02*
X242919250Y-74453750D01*
X242919250Y-79152750D02*
X244443250Y-79152750D01*
X244443250Y-79279750D02*
X242919250Y-79279750D01*
X242919250Y-79406750D02*
X244443250Y-79406750D01*
X244443250Y-79025750D02*
X242919250Y-79025750D01*
X242919250Y-78898750D02*
X244443250Y-78898750D01*
X242919250Y-78771750D02*
X244443250Y-78771750D01*
X233394250Y-55403750D02*
X233394250Y-60483750D01*
X233394250Y-60483750D02*
X234918250Y-60483750D01*
X234918250Y-60483750D02*
X234918250Y-55403750D01*
X234918250Y-55403750D02*
X233394250Y-55403750D01*
X233394250Y-60102750D02*
X234918250Y-60102750D01*
X234918250Y-60229750D02*
X233394250Y-60229750D01*
X233394250Y-60356750D02*
X234918250Y-60356750D01*
X234918250Y-59975750D02*
X233394250Y-59975750D01*
X233394250Y-59848750D02*
X234918250Y-59848750D01*
X233394250Y-59721750D02*
X234918250Y-59721750D01*
X214344250Y-55403750D02*
X214344250Y-60483750D01*
X214344250Y-60483750D02*
X215868250Y-60483750D01*
X215868250Y-60483750D02*
X215868250Y-55403750D01*
X215868250Y-55403750D02*
X214344250Y-55403750D01*
X214344250Y-60102750D02*
X215868250Y-60102750D01*
X215868250Y-60229750D02*
X214344250Y-60229750D01*
X214344250Y-60356750D02*
X215868250Y-60356750D01*
X215868250Y-59975750D02*
X214344250Y-59975750D01*
X214344250Y-59848750D02*
X215868250Y-59848750D01*
X214344250Y-59721750D02*
X215868250Y-59721750D01*
X195294250Y-55403750D02*
X195294250Y-60483750D01*
X195294250Y-60483750D02*
X196818250Y-60483750D01*
X196818250Y-60483750D02*
X196818250Y-55403750D01*
X196818250Y-55403750D02*
X195294250Y-55403750D01*
X195294250Y-60102750D02*
X196818250Y-60102750D01*
X196818250Y-60229750D02*
X195294250Y-60229750D01*
X195294250Y-60356750D02*
X196818250Y-60356750D01*
X196818250Y-59975750D02*
X195294250Y-59975750D01*
X195294250Y-59848750D02*
X196818250Y-59848750D01*
X195294250Y-59721750D02*
X196818250Y-59721750D01*
X176244250Y-55403750D02*
X176244250Y-60483750D01*
X176244250Y-60483750D02*
X177768250Y-60483750D01*
X177768250Y-60483750D02*
X177768250Y-55403750D01*
X177768250Y-55403750D02*
X176244250Y-55403750D01*
X176244250Y-60102750D02*
X177768250Y-60102750D01*
X177768250Y-60229750D02*
X176244250Y-60229750D01*
X176244250Y-60356750D02*
X177768250Y-60356750D01*
X177768250Y-59975750D02*
X176244250Y-59975750D01*
X176244250Y-59848750D02*
X177768250Y-59848750D01*
X176244250Y-59721750D02*
X177768250Y-59721750D01*
X157194250Y-55403750D02*
X157194250Y-60483750D01*
X157194250Y-60483750D02*
X158718250Y-60483750D01*
X158718250Y-60483750D02*
X158718250Y-55403750D01*
X158718250Y-55403750D02*
X157194250Y-55403750D01*
X157194250Y-60102750D02*
X158718250Y-60102750D01*
X158718250Y-60229750D02*
X157194250Y-60229750D01*
X157194250Y-60356750D02*
X158718250Y-60356750D01*
X158718250Y-59975750D02*
X157194250Y-59975750D01*
X157194250Y-59848750D02*
X158718250Y-59848750D01*
X157194250Y-59721750D02*
X158718250Y-59721750D01*
X138144250Y-55403750D02*
X138144250Y-60483750D01*
X138144250Y-60483750D02*
X139668250Y-60483750D01*
X139668250Y-60483750D02*
X139668250Y-55403750D01*
X139668250Y-55403750D02*
X138144250Y-55403750D01*
X138144250Y-60102750D02*
X139668250Y-60102750D01*
X139668250Y-60229750D02*
X138144250Y-60229750D01*
X138144250Y-60356750D02*
X139668250Y-60356750D01*
X139668250Y-59975750D02*
X138144250Y-59975750D01*
X138144250Y-59848750D02*
X139668250Y-59848750D01*
X138144250Y-59721750D02*
X139668250Y-59721750D01*
X119094250Y-55403750D02*
X119094250Y-60483750D01*
X119094250Y-60483750D02*
X120618250Y-60483750D01*
X120618250Y-60483750D02*
X120618250Y-55403750D01*
X120618250Y-55403750D02*
X119094250Y-55403750D01*
X119094250Y-60102750D02*
X120618250Y-60102750D01*
X120618250Y-60229750D02*
X119094250Y-60229750D01*
X119094250Y-60356750D02*
X120618250Y-60356750D01*
X120618250Y-59975750D02*
X119094250Y-59975750D01*
X119094250Y-59848750D02*
X120618250Y-59848750D01*
X119094250Y-59721750D02*
X120618250Y-59721750D01*
X100044250Y-55403750D02*
X100044250Y-60483750D01*
X100044250Y-60483750D02*
X101568250Y-60483750D01*
X101568250Y-60483750D02*
X101568250Y-55403750D01*
X101568250Y-55403750D02*
X100044250Y-55403750D01*
X100044250Y-60102750D02*
X101568250Y-60102750D01*
X101568250Y-60229750D02*
X100044250Y-60229750D01*
X100044250Y-60356750D02*
X101568250Y-60356750D01*
X101568250Y-59975750D02*
X100044250Y-59975750D01*
X100044250Y-59848750D02*
X101568250Y-59848750D01*
X100044250Y-59721750D02*
X101568250Y-59721750D01*
X80994250Y-55403750D02*
X80994250Y-60483750D01*
X80994250Y-60483750D02*
X82518250Y-60483750D01*
X82518250Y-60483750D02*
X82518250Y-55403750D01*
X82518250Y-55403750D02*
X80994250Y-55403750D01*
X80994250Y-60102750D02*
X82518250Y-60102750D01*
X82518250Y-60229750D02*
X80994250Y-60229750D01*
X80994250Y-60356750D02*
X82518250Y-60356750D01*
X82518250Y-59975750D02*
X80994250Y-59975750D01*
X80994250Y-59848750D02*
X82518250Y-59848750D01*
X80994250Y-59721750D02*
X82518250Y-59721750D01*
X61944250Y-55403750D02*
X61944250Y-60483750D01*
X61944250Y-60483750D02*
X63468250Y-60483750D01*
X63468250Y-60483750D02*
X63468250Y-55403750D01*
X63468250Y-55403750D02*
X61944250Y-55403750D01*
X61944250Y-60102750D02*
X63468250Y-60102750D01*
X63468250Y-60229750D02*
X61944250Y-60229750D01*
X61944250Y-60356750D02*
X63468250Y-60356750D01*
X63468250Y-59975750D02*
X61944250Y-59975750D01*
X61944250Y-59848750D02*
X63468250Y-59848750D01*
X61944250Y-59721750D02*
X63468250Y-59721750D01*
X42894250Y-55403750D02*
X42894250Y-60483750D01*
X42894250Y-60483750D02*
X44418250Y-60483750D01*
X44418250Y-60483750D02*
X44418250Y-55403750D01*
X44418250Y-55403750D02*
X42894250Y-55403750D01*
X42894250Y-60102750D02*
X44418250Y-60102750D01*
X44418250Y-60229750D02*
X42894250Y-60229750D01*
X42894250Y-60356750D02*
X44418250Y-60356750D01*
X44418250Y-59975750D02*
X42894250Y-59975750D01*
X42894250Y-59848750D02*
X44418250Y-59848750D01*
X42894250Y-59721750D02*
X44418250Y-59721750D01*
X276059226Y-54021130D02*
X276392559Y-53544940D01*
X276630654Y-54021130D02*
X276630654Y-53021130D01*
X276249702Y-53021130D01*
X276154464Y-53068750D01*
X276106845Y-53116369D01*
X276059226Y-53211607D01*
X276059226Y-53354464D01*
X276106845Y-53449702D01*
X276154464Y-53497321D01*
X276249702Y-53544940D01*
X276630654Y-53544940D01*
X275678273Y-53735416D02*
X275202083Y-53735416D01*
X275773511Y-54021130D02*
X275440178Y-53021130D01*
X275106845Y-54021130D01*
X274868750Y-53021130D02*
X274630654Y-54021130D01*
X274440178Y-53306845D01*
X274249702Y-54021130D01*
X274011607Y-53021130D01*
X267306845Y-53021130D02*
X266735416Y-53021130D01*
X267021130Y-54021130D02*
X267021130Y-53021130D01*
X266497321Y-53021130D02*
X265830654Y-54021130D01*
X265830654Y-53021130D02*
X266497321Y-54021130D01*
X265259226Y-53021130D02*
X265163988Y-53021130D01*
X265068750Y-53068750D01*
X265021130Y-53116369D01*
X264973511Y-53211607D01*
X264925892Y-53402083D01*
X264925892Y-53640178D01*
X264973511Y-53830654D01*
X265021130Y-53925892D01*
X265068750Y-53973511D01*
X265163988Y-54021130D01*
X265259226Y-54021130D01*
X265354464Y-53973511D01*
X265402083Y-53925892D01*
X265449702Y-53830654D01*
X265497321Y-53640178D01*
X265497321Y-53402083D01*
X265449702Y-53211607D01*
X265402083Y-53116369D01*
X265354464Y-53068750D01*
X265259226Y-53021130D01*
X261693154Y-133146921D02*
X260893154Y-133146921D01*
X260893154Y-133337397D01*
X260931250Y-133451683D01*
X261007440Y-133527873D01*
X261083630Y-133565969D01*
X261236011Y-133604064D01*
X261350297Y-133604064D01*
X261502678Y-133565969D01*
X261578869Y-133527873D01*
X261655059Y-133451683D01*
X261693154Y-133337397D01*
X261693154Y-133146921D01*
X260893154Y-134327873D02*
X260893154Y-133946921D01*
X261274107Y-133908826D01*
X261236011Y-133946921D01*
X261197916Y-134023111D01*
X261197916Y-134213588D01*
X261236011Y-134289778D01*
X261274107Y-134327873D01*
X261350297Y-134365969D01*
X261540773Y-134365969D01*
X261616964Y-134327873D01*
X261655059Y-134289778D01*
X261693154Y-134213588D01*
X261693154Y-134023111D01*
X261655059Y-133946921D01*
X261616964Y-133908826D01*
X261236011Y-134823111D02*
X261197916Y-134746921D01*
X261159821Y-134708826D01*
X261083630Y-134670730D01*
X261045535Y-134670730D01*
X260969345Y-134708826D01*
X260931250Y-134746921D01*
X260893154Y-134823111D01*
X260893154Y-134975492D01*
X260931250Y-135051683D01*
X260969345Y-135089778D01*
X261045535Y-135127873D01*
X261083630Y-135127873D01*
X261159821Y-135089778D01*
X261197916Y-135051683D01*
X261236011Y-134975492D01*
X261236011Y-134823111D01*
X261274107Y-134746921D01*
X261312202Y-134708826D01*
X261388392Y-134670730D01*
X261540773Y-134670730D01*
X261616964Y-134708826D01*
X261655059Y-134746921D01*
X261693154Y-134823111D01*
X261693154Y-134975492D01*
X261655059Y-135051683D01*
X261616964Y-135089778D01*
X261540773Y-135127873D01*
X261388392Y-135127873D01*
X261312202Y-135089778D01*
X261274107Y-135051683D01*
X261236011Y-134975492D01*
X242643154Y-133146921D02*
X241843154Y-133146921D01*
X241843154Y-133337397D01*
X241881250Y-133451683D01*
X241957440Y-133527873D01*
X242033630Y-133565969D01*
X242186011Y-133604064D01*
X242300297Y-133604064D01*
X242452678Y-133565969D01*
X242528869Y-133527873D01*
X242605059Y-133451683D01*
X242643154Y-133337397D01*
X242643154Y-133146921D01*
X241843154Y-134327873D02*
X241843154Y-133946921D01*
X242224107Y-133908826D01*
X242186011Y-133946921D01*
X242147916Y-134023111D01*
X242147916Y-134213588D01*
X242186011Y-134289778D01*
X242224107Y-134327873D01*
X242300297Y-134365969D01*
X242490773Y-134365969D01*
X242566964Y-134327873D01*
X242605059Y-134289778D01*
X242643154Y-134213588D01*
X242643154Y-134023111D01*
X242605059Y-133946921D01*
X242566964Y-133908826D01*
X241843154Y-134632635D02*
X241843154Y-135165969D01*
X242643154Y-134823111D01*
X223593154Y-133146921D02*
X222793154Y-133146921D01*
X222793154Y-133337397D01*
X222831250Y-133451683D01*
X222907440Y-133527873D01*
X222983630Y-133565969D01*
X223136011Y-133604064D01*
X223250297Y-133604064D01*
X223402678Y-133565969D01*
X223478869Y-133527873D01*
X223555059Y-133451683D01*
X223593154Y-133337397D01*
X223593154Y-133146921D01*
X222793154Y-134327873D02*
X222793154Y-133946921D01*
X223174107Y-133908826D01*
X223136011Y-133946921D01*
X223097916Y-134023111D01*
X223097916Y-134213588D01*
X223136011Y-134289778D01*
X223174107Y-134327873D01*
X223250297Y-134365969D01*
X223440773Y-134365969D01*
X223516964Y-134327873D01*
X223555059Y-134289778D01*
X223593154Y-134213588D01*
X223593154Y-134023111D01*
X223555059Y-133946921D01*
X223516964Y-133908826D01*
X222793154Y-135051683D02*
X222793154Y-134899302D01*
X222831250Y-134823111D01*
X222869345Y-134785016D01*
X222983630Y-134708826D01*
X223136011Y-134670730D01*
X223440773Y-134670730D01*
X223516964Y-134708826D01*
X223555059Y-134746921D01*
X223593154Y-134823111D01*
X223593154Y-134975492D01*
X223555059Y-135051683D01*
X223516964Y-135089778D01*
X223440773Y-135127873D01*
X223250297Y-135127873D01*
X223174107Y-135089778D01*
X223136011Y-135051683D01*
X223097916Y-134975492D01*
X223097916Y-134823111D01*
X223136011Y-134746921D01*
X223174107Y-134708826D01*
X223250297Y-134670730D01*
X199780654Y-133146921D02*
X198980654Y-133146921D01*
X198980654Y-133337397D01*
X199018750Y-133451683D01*
X199094940Y-133527873D01*
X199171130Y-133565969D01*
X199323511Y-133604064D01*
X199437797Y-133604064D01*
X199590178Y-133565969D01*
X199666369Y-133527873D01*
X199742559Y-133451683D01*
X199780654Y-133337397D01*
X199780654Y-133146921D01*
X198980654Y-134327873D02*
X198980654Y-133946921D01*
X199361607Y-133908826D01*
X199323511Y-133946921D01*
X199285416Y-134023111D01*
X199285416Y-134213588D01*
X199323511Y-134289778D01*
X199361607Y-134327873D01*
X199437797Y-134365969D01*
X199628273Y-134365969D01*
X199704464Y-134327873D01*
X199742559Y-134289778D01*
X199780654Y-134213588D01*
X199780654Y-134023111D01*
X199742559Y-133946921D01*
X199704464Y-133908826D01*
X198980654Y-135089778D02*
X198980654Y-134708826D01*
X199361607Y-134670730D01*
X199323511Y-134708826D01*
X199285416Y-134785016D01*
X199285416Y-134975492D01*
X199323511Y-135051683D01*
X199361607Y-135089778D01*
X199437797Y-135127873D01*
X199628273Y-135127873D01*
X199704464Y-135089778D01*
X199742559Y-135051683D01*
X199780654Y-134975492D01*
X199780654Y-134785016D01*
X199742559Y-134708826D01*
X199704464Y-134670730D01*
X168824404Y-133146921D02*
X168024404Y-133146921D01*
X168024404Y-133337397D01*
X168062500Y-133451683D01*
X168138690Y-133527873D01*
X168214880Y-133565969D01*
X168367261Y-133604064D01*
X168481547Y-133604064D01*
X168633928Y-133565969D01*
X168710119Y-133527873D01*
X168786309Y-133451683D01*
X168824404Y-133337397D01*
X168824404Y-133146921D01*
X168024404Y-134327873D02*
X168024404Y-133946921D01*
X168405357Y-133908826D01*
X168367261Y-133946921D01*
X168329166Y-134023111D01*
X168329166Y-134213588D01*
X168367261Y-134289778D01*
X168405357Y-134327873D01*
X168481547Y-134365969D01*
X168672023Y-134365969D01*
X168748214Y-134327873D01*
X168786309Y-134289778D01*
X168824404Y-134213588D01*
X168824404Y-134023111D01*
X168786309Y-133946921D01*
X168748214Y-133908826D01*
X168291071Y-135051683D02*
X168824404Y-135051683D01*
X167986309Y-134861207D02*
X168557738Y-134670730D01*
X168557738Y-135165969D01*
X135486904Y-133146921D02*
X134686904Y-133146921D01*
X134686904Y-133337397D01*
X134725000Y-133451683D01*
X134801190Y-133527873D01*
X134877380Y-133565969D01*
X135029761Y-133604064D01*
X135144047Y-133604064D01*
X135296428Y-133565969D01*
X135372619Y-133527873D01*
X135448809Y-133451683D01*
X135486904Y-133337397D01*
X135486904Y-133146921D01*
X134686904Y-134327873D02*
X134686904Y-133946921D01*
X135067857Y-133908826D01*
X135029761Y-133946921D01*
X134991666Y-134023111D01*
X134991666Y-134213588D01*
X135029761Y-134289778D01*
X135067857Y-134327873D01*
X135144047Y-134365969D01*
X135334523Y-134365969D01*
X135410714Y-134327873D01*
X135448809Y-134289778D01*
X135486904Y-134213588D01*
X135486904Y-134023111D01*
X135448809Y-133946921D01*
X135410714Y-133908826D01*
X134686904Y-134632635D02*
X134686904Y-135127873D01*
X134991666Y-134861207D01*
X134991666Y-134975492D01*
X135029761Y-135051683D01*
X135067857Y-135089778D01*
X135144047Y-135127873D01*
X135334523Y-135127873D01*
X135410714Y-135089778D01*
X135448809Y-135051683D01*
X135486904Y-134975492D01*
X135486904Y-134746921D01*
X135448809Y-134670730D01*
X135410714Y-134632635D01*
X106911904Y-133146921D02*
X106111904Y-133146921D01*
X106111904Y-133337397D01*
X106150000Y-133451683D01*
X106226190Y-133527873D01*
X106302380Y-133565969D01*
X106454761Y-133604064D01*
X106569047Y-133604064D01*
X106721428Y-133565969D01*
X106797619Y-133527873D01*
X106873809Y-133451683D01*
X106911904Y-133337397D01*
X106911904Y-133146921D01*
X106111904Y-134327873D02*
X106111904Y-133946921D01*
X106492857Y-133908826D01*
X106454761Y-133946921D01*
X106416666Y-134023111D01*
X106416666Y-134213588D01*
X106454761Y-134289778D01*
X106492857Y-134327873D01*
X106569047Y-134365969D01*
X106759523Y-134365969D01*
X106835714Y-134327873D01*
X106873809Y-134289778D01*
X106911904Y-134213588D01*
X106911904Y-134023111D01*
X106873809Y-133946921D01*
X106835714Y-133908826D01*
X106188095Y-134670730D02*
X106150000Y-134708826D01*
X106111904Y-134785016D01*
X106111904Y-134975492D01*
X106150000Y-135051683D01*
X106188095Y-135089778D01*
X106264285Y-135127873D01*
X106340476Y-135127873D01*
X106454761Y-135089778D01*
X106911904Y-134632635D01*
X106911904Y-135127873D01*
X83099404Y-133146921D02*
X82299404Y-133146921D01*
X82299404Y-133337397D01*
X82337500Y-133451683D01*
X82413690Y-133527873D01*
X82489880Y-133565969D01*
X82642261Y-133604064D01*
X82756547Y-133604064D01*
X82908928Y-133565969D01*
X82985119Y-133527873D01*
X83061309Y-133451683D01*
X83099404Y-133337397D01*
X83099404Y-133146921D01*
X82299404Y-134327873D02*
X82299404Y-133946921D01*
X82680357Y-133908826D01*
X82642261Y-133946921D01*
X82604166Y-134023111D01*
X82604166Y-134213588D01*
X82642261Y-134289778D01*
X82680357Y-134327873D01*
X82756547Y-134365969D01*
X82947023Y-134365969D01*
X83023214Y-134327873D01*
X83061309Y-134289778D01*
X83099404Y-134213588D01*
X83099404Y-134023111D01*
X83061309Y-133946921D01*
X83023214Y-133908826D01*
X83099404Y-135127873D02*
X83099404Y-134670730D01*
X83099404Y-134899302D02*
X82299404Y-134899302D01*
X82413690Y-134823111D01*
X82489880Y-134746921D01*
X82527976Y-134670730D01*
X59286904Y-133146921D02*
X58486904Y-133146921D01*
X58486904Y-133337397D01*
X58525000Y-133451683D01*
X58601190Y-133527873D01*
X58677380Y-133565969D01*
X58829761Y-133604064D01*
X58944047Y-133604064D01*
X59096428Y-133565969D01*
X59172619Y-133527873D01*
X59248809Y-133451683D01*
X59286904Y-133337397D01*
X59286904Y-133146921D01*
X58486904Y-134327873D02*
X58486904Y-133946921D01*
X58867857Y-133908826D01*
X58829761Y-133946921D01*
X58791666Y-134023111D01*
X58791666Y-134213588D01*
X58829761Y-134289778D01*
X58867857Y-134327873D01*
X58944047Y-134365969D01*
X59134523Y-134365969D01*
X59210714Y-134327873D01*
X59248809Y-134289778D01*
X59286904Y-134213588D01*
X59286904Y-134023111D01*
X59248809Y-133946921D01*
X59210714Y-133908826D01*
X58486904Y-134861207D02*
X58486904Y-134937397D01*
X58525000Y-135013588D01*
X58563095Y-135051683D01*
X58639285Y-135089778D01*
X58791666Y-135127873D01*
X58982142Y-135127873D01*
X59134523Y-135089778D01*
X59210714Y-135051683D01*
X59248809Y-135013588D01*
X59286904Y-134937397D01*
X59286904Y-134861207D01*
X59248809Y-134785016D01*
X59210714Y-134746921D01*
X59134523Y-134708826D01*
X58982142Y-134670730D01*
X58791666Y-134670730D01*
X58639285Y-134708826D01*
X58563095Y-134746921D01*
X58525000Y-134785016D01*
X58486904Y-134861207D01*
X35474404Y-133146921D02*
X34674404Y-133146921D01*
X34674404Y-133337397D01*
X34712500Y-133451683D01*
X34788690Y-133527873D01*
X34864880Y-133565969D01*
X35017261Y-133604064D01*
X35131547Y-133604064D01*
X35283928Y-133565969D01*
X35360119Y-133527873D01*
X35436309Y-133451683D01*
X35474404Y-133337397D01*
X35474404Y-133146921D01*
X34941071Y-134289778D02*
X35474404Y-134289778D01*
X34636309Y-134099302D02*
X35207738Y-133908826D01*
X35207738Y-134404064D01*
X35474404Y-134746921D02*
X35474404Y-134899302D01*
X35436309Y-134975492D01*
X35398214Y-135013588D01*
X35283928Y-135089778D01*
X35131547Y-135127873D01*
X34826785Y-135127873D01*
X34750595Y-135089778D01*
X34712500Y-135051683D01*
X34674404Y-134975492D01*
X34674404Y-134823111D01*
X34712500Y-134746921D01*
X34750595Y-134708826D01*
X34826785Y-134670730D01*
X35017261Y-134670730D01*
X35093452Y-134708826D01*
X35131547Y-134746921D01*
X35169642Y-134823111D01*
X35169642Y-134975492D01*
X35131547Y-135051683D01*
X35093452Y-135089778D01*
X35017261Y-135127873D01*
X259311904Y-114096921D02*
X258511904Y-114096921D01*
X258511904Y-114287397D01*
X258550000Y-114401683D01*
X258626190Y-114477873D01*
X258702380Y-114515969D01*
X258854761Y-114554064D01*
X258969047Y-114554064D01*
X259121428Y-114515969D01*
X259197619Y-114477873D01*
X259273809Y-114401683D01*
X259311904Y-114287397D01*
X259311904Y-114096921D01*
X258778571Y-115239778D02*
X259311904Y-115239778D01*
X258473809Y-115049302D02*
X259045238Y-114858826D01*
X259045238Y-115354064D01*
X258854761Y-115773111D02*
X258816666Y-115696921D01*
X258778571Y-115658826D01*
X258702380Y-115620730D01*
X258664285Y-115620730D01*
X258588095Y-115658826D01*
X258550000Y-115696921D01*
X258511904Y-115773111D01*
X258511904Y-115925492D01*
X258550000Y-116001683D01*
X258588095Y-116039778D01*
X258664285Y-116077873D01*
X258702380Y-116077873D01*
X258778571Y-116039778D01*
X258816666Y-116001683D01*
X258854761Y-115925492D01*
X258854761Y-115773111D01*
X258892857Y-115696921D01*
X258930952Y-115658826D01*
X259007142Y-115620730D01*
X259159523Y-115620730D01*
X259235714Y-115658826D01*
X259273809Y-115696921D01*
X259311904Y-115773111D01*
X259311904Y-115925492D01*
X259273809Y-116001683D01*
X259235714Y-116039778D01*
X259159523Y-116077873D01*
X259007142Y-116077873D01*
X258930952Y-116039778D01*
X258892857Y-116001683D01*
X258854761Y-115925492D01*
X237880654Y-114096921D02*
X237080654Y-114096921D01*
X237080654Y-114287397D01*
X237118750Y-114401683D01*
X237194940Y-114477873D01*
X237271130Y-114515969D01*
X237423511Y-114554064D01*
X237537797Y-114554064D01*
X237690178Y-114515969D01*
X237766369Y-114477873D01*
X237842559Y-114401683D01*
X237880654Y-114287397D01*
X237880654Y-114096921D01*
X237347321Y-115239778D02*
X237880654Y-115239778D01*
X237042559Y-115049302D02*
X237613988Y-114858826D01*
X237613988Y-115354064D01*
X237080654Y-115582635D02*
X237080654Y-116115969D01*
X237880654Y-115773111D01*
X218830654Y-114096921D02*
X218030654Y-114096921D01*
X218030654Y-114287397D01*
X218068750Y-114401683D01*
X218144940Y-114477873D01*
X218221130Y-114515969D01*
X218373511Y-114554064D01*
X218487797Y-114554064D01*
X218640178Y-114515969D01*
X218716369Y-114477873D01*
X218792559Y-114401683D01*
X218830654Y-114287397D01*
X218830654Y-114096921D01*
X218297321Y-115239778D02*
X218830654Y-115239778D01*
X217992559Y-115049302D02*
X218563988Y-114858826D01*
X218563988Y-115354064D01*
X218030654Y-116001683D02*
X218030654Y-115849302D01*
X218068750Y-115773111D01*
X218106845Y-115735016D01*
X218221130Y-115658826D01*
X218373511Y-115620730D01*
X218678273Y-115620730D01*
X218754464Y-115658826D01*
X218792559Y-115696921D01*
X218830654Y-115773111D01*
X218830654Y-115925492D01*
X218792559Y-116001683D01*
X218754464Y-116039778D01*
X218678273Y-116077873D01*
X218487797Y-116077873D01*
X218411607Y-116039778D01*
X218373511Y-116001683D01*
X218335416Y-115925492D01*
X218335416Y-115773111D01*
X218373511Y-115696921D01*
X218411607Y-115658826D01*
X218487797Y-115620730D01*
X199780654Y-114096921D02*
X198980654Y-114096921D01*
X198980654Y-114287397D01*
X199018750Y-114401683D01*
X199094940Y-114477873D01*
X199171130Y-114515969D01*
X199323511Y-114554064D01*
X199437797Y-114554064D01*
X199590178Y-114515969D01*
X199666369Y-114477873D01*
X199742559Y-114401683D01*
X199780654Y-114287397D01*
X199780654Y-114096921D01*
X199247321Y-115239778D02*
X199780654Y-115239778D01*
X198942559Y-115049302D02*
X199513988Y-114858826D01*
X199513988Y-115354064D01*
X198980654Y-116039778D02*
X198980654Y-115658826D01*
X199361607Y-115620730D01*
X199323511Y-115658826D01*
X199285416Y-115735016D01*
X199285416Y-115925492D01*
X199323511Y-116001683D01*
X199361607Y-116039778D01*
X199437797Y-116077873D01*
X199628273Y-116077873D01*
X199704464Y-116039778D01*
X199742559Y-116001683D01*
X199780654Y-115925492D01*
X199780654Y-115735016D01*
X199742559Y-115658826D01*
X199704464Y-115620730D01*
X180730654Y-114096921D02*
X179930654Y-114096921D01*
X179930654Y-114287397D01*
X179968750Y-114401683D01*
X180044940Y-114477873D01*
X180121130Y-114515969D01*
X180273511Y-114554064D01*
X180387797Y-114554064D01*
X180540178Y-114515969D01*
X180616369Y-114477873D01*
X180692559Y-114401683D01*
X180730654Y-114287397D01*
X180730654Y-114096921D01*
X180197321Y-115239778D02*
X180730654Y-115239778D01*
X179892559Y-115049302D02*
X180463988Y-114858826D01*
X180463988Y-115354064D01*
X180197321Y-116001683D02*
X180730654Y-116001683D01*
X179892559Y-115811207D02*
X180463988Y-115620730D01*
X180463988Y-116115969D01*
X161680654Y-114096921D02*
X160880654Y-114096921D01*
X160880654Y-114287397D01*
X160918750Y-114401683D01*
X160994940Y-114477873D01*
X161071130Y-114515969D01*
X161223511Y-114554064D01*
X161337797Y-114554064D01*
X161490178Y-114515969D01*
X161566369Y-114477873D01*
X161642559Y-114401683D01*
X161680654Y-114287397D01*
X161680654Y-114096921D01*
X161147321Y-115239778D02*
X161680654Y-115239778D01*
X160842559Y-115049302D02*
X161413988Y-114858826D01*
X161413988Y-115354064D01*
X160880654Y-115582635D02*
X160880654Y-116077873D01*
X161185416Y-115811207D01*
X161185416Y-115925492D01*
X161223511Y-116001683D01*
X161261607Y-116039778D01*
X161337797Y-116077873D01*
X161528273Y-116077873D01*
X161604464Y-116039778D01*
X161642559Y-116001683D01*
X161680654Y-115925492D01*
X161680654Y-115696921D01*
X161642559Y-115620730D01*
X161604464Y-115582635D01*
X142630654Y-114096921D02*
X141830654Y-114096921D01*
X141830654Y-114287397D01*
X141868750Y-114401683D01*
X141944940Y-114477873D01*
X142021130Y-114515969D01*
X142173511Y-114554064D01*
X142287797Y-114554064D01*
X142440178Y-114515969D01*
X142516369Y-114477873D01*
X142592559Y-114401683D01*
X142630654Y-114287397D01*
X142630654Y-114096921D01*
X142097321Y-115239778D02*
X142630654Y-115239778D01*
X141792559Y-115049302D02*
X142363988Y-114858826D01*
X142363988Y-115354064D01*
X141906845Y-115620730D02*
X141868750Y-115658826D01*
X141830654Y-115735016D01*
X141830654Y-115925492D01*
X141868750Y-116001683D01*
X141906845Y-116039778D01*
X141983035Y-116077873D01*
X142059226Y-116077873D01*
X142173511Y-116039778D01*
X142630654Y-115582635D01*
X142630654Y-116077873D01*
X123580654Y-114096921D02*
X122780654Y-114096921D01*
X122780654Y-114287397D01*
X122818750Y-114401683D01*
X122894940Y-114477873D01*
X122971130Y-114515969D01*
X123123511Y-114554064D01*
X123237797Y-114554064D01*
X123390178Y-114515969D01*
X123466369Y-114477873D01*
X123542559Y-114401683D01*
X123580654Y-114287397D01*
X123580654Y-114096921D01*
X123047321Y-115239778D02*
X123580654Y-115239778D01*
X122742559Y-115049302D02*
X123313988Y-114858826D01*
X123313988Y-115354064D01*
X123580654Y-116077873D02*
X123580654Y-115620730D01*
X123580654Y-115849302D02*
X122780654Y-115849302D01*
X122894940Y-115773111D01*
X122971130Y-115696921D01*
X123009226Y-115620730D01*
X104530654Y-114096921D02*
X103730654Y-114096921D01*
X103730654Y-114287397D01*
X103768750Y-114401683D01*
X103844940Y-114477873D01*
X103921130Y-114515969D01*
X104073511Y-114554064D01*
X104187797Y-114554064D01*
X104340178Y-114515969D01*
X104416369Y-114477873D01*
X104492559Y-114401683D01*
X104530654Y-114287397D01*
X104530654Y-114096921D01*
X103997321Y-115239778D02*
X104530654Y-115239778D01*
X103692559Y-115049302D02*
X104263988Y-114858826D01*
X104263988Y-115354064D01*
X103730654Y-115811207D02*
X103730654Y-115887397D01*
X103768750Y-115963588D01*
X103806845Y-116001683D01*
X103883035Y-116039778D01*
X104035416Y-116077873D01*
X104225892Y-116077873D01*
X104378273Y-116039778D01*
X104454464Y-116001683D01*
X104492559Y-115963588D01*
X104530654Y-115887397D01*
X104530654Y-115811207D01*
X104492559Y-115735016D01*
X104454464Y-115696921D01*
X104378273Y-115658826D01*
X104225892Y-115620730D01*
X104035416Y-115620730D01*
X103883035Y-115658826D01*
X103806845Y-115696921D01*
X103768750Y-115735016D01*
X103730654Y-115811207D01*
X85480654Y-114096921D02*
X84680654Y-114096921D01*
X84680654Y-114287397D01*
X84718750Y-114401683D01*
X84794940Y-114477873D01*
X84871130Y-114515969D01*
X85023511Y-114554064D01*
X85137797Y-114554064D01*
X85290178Y-114515969D01*
X85366369Y-114477873D01*
X85442559Y-114401683D01*
X85480654Y-114287397D01*
X85480654Y-114096921D01*
X84680654Y-114820730D02*
X84680654Y-115315969D01*
X84985416Y-115049302D01*
X84985416Y-115163588D01*
X85023511Y-115239778D01*
X85061607Y-115277873D01*
X85137797Y-115315969D01*
X85328273Y-115315969D01*
X85404464Y-115277873D01*
X85442559Y-115239778D01*
X85480654Y-115163588D01*
X85480654Y-114935016D01*
X85442559Y-114858826D01*
X85404464Y-114820730D01*
X85480654Y-115696921D02*
X85480654Y-115849302D01*
X85442559Y-115925492D01*
X85404464Y-115963588D01*
X85290178Y-116039778D01*
X85137797Y-116077873D01*
X84833035Y-116077873D01*
X84756845Y-116039778D01*
X84718750Y-116001683D01*
X84680654Y-115925492D01*
X84680654Y-115773111D01*
X84718750Y-115696921D01*
X84756845Y-115658826D01*
X84833035Y-115620730D01*
X85023511Y-115620730D01*
X85099702Y-115658826D01*
X85137797Y-115696921D01*
X85175892Y-115773111D01*
X85175892Y-115925492D01*
X85137797Y-116001683D01*
X85099702Y-116039778D01*
X85023511Y-116077873D01*
X66430654Y-114096921D02*
X65630654Y-114096921D01*
X65630654Y-114287397D01*
X65668750Y-114401683D01*
X65744940Y-114477873D01*
X65821130Y-114515969D01*
X65973511Y-114554064D01*
X66087797Y-114554064D01*
X66240178Y-114515969D01*
X66316369Y-114477873D01*
X66392559Y-114401683D01*
X66430654Y-114287397D01*
X66430654Y-114096921D01*
X65630654Y-114820730D02*
X65630654Y-115315969D01*
X65935416Y-115049302D01*
X65935416Y-115163588D01*
X65973511Y-115239778D01*
X66011607Y-115277873D01*
X66087797Y-115315969D01*
X66278273Y-115315969D01*
X66354464Y-115277873D01*
X66392559Y-115239778D01*
X66430654Y-115163588D01*
X66430654Y-114935016D01*
X66392559Y-114858826D01*
X66354464Y-114820730D01*
X65973511Y-115773111D02*
X65935416Y-115696921D01*
X65897321Y-115658826D01*
X65821130Y-115620730D01*
X65783035Y-115620730D01*
X65706845Y-115658826D01*
X65668750Y-115696921D01*
X65630654Y-115773111D01*
X65630654Y-115925492D01*
X65668750Y-116001683D01*
X65706845Y-116039778D01*
X65783035Y-116077873D01*
X65821130Y-116077873D01*
X65897321Y-116039778D01*
X65935416Y-116001683D01*
X65973511Y-115925492D01*
X65973511Y-115773111D01*
X66011607Y-115696921D01*
X66049702Y-115658826D01*
X66125892Y-115620730D01*
X66278273Y-115620730D01*
X66354464Y-115658826D01*
X66392559Y-115696921D01*
X66430654Y-115773111D01*
X66430654Y-115925492D01*
X66392559Y-116001683D01*
X66354464Y-116039778D01*
X66278273Y-116077873D01*
X66125892Y-116077873D01*
X66049702Y-116039778D01*
X66011607Y-116001683D01*
X65973511Y-115925492D01*
X40236904Y-114096921D02*
X39436904Y-114096921D01*
X39436904Y-114287397D01*
X39475000Y-114401683D01*
X39551190Y-114477873D01*
X39627380Y-114515969D01*
X39779761Y-114554064D01*
X39894047Y-114554064D01*
X40046428Y-114515969D01*
X40122619Y-114477873D01*
X40198809Y-114401683D01*
X40236904Y-114287397D01*
X40236904Y-114096921D01*
X39436904Y-114820730D02*
X39436904Y-115315969D01*
X39741666Y-115049302D01*
X39741666Y-115163588D01*
X39779761Y-115239778D01*
X39817857Y-115277873D01*
X39894047Y-115315969D01*
X40084523Y-115315969D01*
X40160714Y-115277873D01*
X40198809Y-115239778D01*
X40236904Y-115163588D01*
X40236904Y-114935016D01*
X40198809Y-114858826D01*
X40160714Y-114820730D01*
X39436904Y-115582635D02*
X39436904Y-116115969D01*
X40236904Y-115773111D01*
X254549404Y-95046921D02*
X253749404Y-95046921D01*
X253749404Y-95237397D01*
X253787500Y-95351683D01*
X253863690Y-95427873D01*
X253939880Y-95465969D01*
X254092261Y-95504064D01*
X254206547Y-95504064D01*
X254358928Y-95465969D01*
X254435119Y-95427873D01*
X254511309Y-95351683D01*
X254549404Y-95237397D01*
X254549404Y-95046921D01*
X253749404Y-95770730D02*
X253749404Y-96265969D01*
X254054166Y-95999302D01*
X254054166Y-96113588D01*
X254092261Y-96189778D01*
X254130357Y-96227873D01*
X254206547Y-96265969D01*
X254397023Y-96265969D01*
X254473214Y-96227873D01*
X254511309Y-96189778D01*
X254549404Y-96113588D01*
X254549404Y-95885016D01*
X254511309Y-95808826D01*
X254473214Y-95770730D01*
X253749404Y-96951683D02*
X253749404Y-96799302D01*
X253787500Y-96723111D01*
X253825595Y-96685016D01*
X253939880Y-96608826D01*
X254092261Y-96570730D01*
X254397023Y-96570730D01*
X254473214Y-96608826D01*
X254511309Y-96646921D01*
X254549404Y-96723111D01*
X254549404Y-96875492D01*
X254511309Y-96951683D01*
X254473214Y-96989778D01*
X254397023Y-97027873D01*
X254206547Y-97027873D01*
X254130357Y-96989778D01*
X254092261Y-96951683D01*
X254054166Y-96875492D01*
X254054166Y-96723111D01*
X254092261Y-96646921D01*
X254130357Y-96608826D01*
X254206547Y-96570730D01*
X228355654Y-95046921D02*
X227555654Y-95046921D01*
X227555654Y-95237397D01*
X227593750Y-95351683D01*
X227669940Y-95427873D01*
X227746130Y-95465969D01*
X227898511Y-95504064D01*
X228012797Y-95504064D01*
X228165178Y-95465969D01*
X228241369Y-95427873D01*
X228317559Y-95351683D01*
X228355654Y-95237397D01*
X228355654Y-95046921D01*
X227555654Y-95770730D02*
X227555654Y-96265969D01*
X227860416Y-95999302D01*
X227860416Y-96113588D01*
X227898511Y-96189778D01*
X227936607Y-96227873D01*
X228012797Y-96265969D01*
X228203273Y-96265969D01*
X228279464Y-96227873D01*
X228317559Y-96189778D01*
X228355654Y-96113588D01*
X228355654Y-95885016D01*
X228317559Y-95808826D01*
X228279464Y-95770730D01*
X227555654Y-96989778D02*
X227555654Y-96608826D01*
X227936607Y-96570730D01*
X227898511Y-96608826D01*
X227860416Y-96685016D01*
X227860416Y-96875492D01*
X227898511Y-96951683D01*
X227936607Y-96989778D01*
X228012797Y-97027873D01*
X228203273Y-97027873D01*
X228279464Y-96989778D01*
X228317559Y-96951683D01*
X228355654Y-96875492D01*
X228355654Y-96685016D01*
X228317559Y-96608826D01*
X228279464Y-96570730D01*
X209305654Y-95046921D02*
X208505654Y-95046921D01*
X208505654Y-95237397D01*
X208543750Y-95351683D01*
X208619940Y-95427873D01*
X208696130Y-95465969D01*
X208848511Y-95504064D01*
X208962797Y-95504064D01*
X209115178Y-95465969D01*
X209191369Y-95427873D01*
X209267559Y-95351683D01*
X209305654Y-95237397D01*
X209305654Y-95046921D01*
X208505654Y-95770730D02*
X208505654Y-96265969D01*
X208810416Y-95999302D01*
X208810416Y-96113588D01*
X208848511Y-96189778D01*
X208886607Y-96227873D01*
X208962797Y-96265969D01*
X209153273Y-96265969D01*
X209229464Y-96227873D01*
X209267559Y-96189778D01*
X209305654Y-96113588D01*
X209305654Y-95885016D01*
X209267559Y-95808826D01*
X209229464Y-95770730D01*
X208772321Y-96951683D02*
X209305654Y-96951683D01*
X208467559Y-96761207D02*
X209038988Y-96570730D01*
X209038988Y-97065969D01*
X190255654Y-95046921D02*
X189455654Y-95046921D01*
X189455654Y-95237397D01*
X189493750Y-95351683D01*
X189569940Y-95427873D01*
X189646130Y-95465969D01*
X189798511Y-95504064D01*
X189912797Y-95504064D01*
X190065178Y-95465969D01*
X190141369Y-95427873D01*
X190217559Y-95351683D01*
X190255654Y-95237397D01*
X190255654Y-95046921D01*
X189455654Y-95770730D02*
X189455654Y-96265969D01*
X189760416Y-95999302D01*
X189760416Y-96113588D01*
X189798511Y-96189778D01*
X189836607Y-96227873D01*
X189912797Y-96265969D01*
X190103273Y-96265969D01*
X190179464Y-96227873D01*
X190217559Y-96189778D01*
X190255654Y-96113588D01*
X190255654Y-95885016D01*
X190217559Y-95808826D01*
X190179464Y-95770730D01*
X189455654Y-96532635D02*
X189455654Y-97027873D01*
X189760416Y-96761207D01*
X189760416Y-96875492D01*
X189798511Y-96951683D01*
X189836607Y-96989778D01*
X189912797Y-97027873D01*
X190103273Y-97027873D01*
X190179464Y-96989778D01*
X190217559Y-96951683D01*
X190255654Y-96875492D01*
X190255654Y-96646921D01*
X190217559Y-96570730D01*
X190179464Y-96532635D01*
X171205654Y-95046921D02*
X170405654Y-95046921D01*
X170405654Y-95237397D01*
X170443750Y-95351683D01*
X170519940Y-95427873D01*
X170596130Y-95465969D01*
X170748511Y-95504064D01*
X170862797Y-95504064D01*
X171015178Y-95465969D01*
X171091369Y-95427873D01*
X171167559Y-95351683D01*
X171205654Y-95237397D01*
X171205654Y-95046921D01*
X170405654Y-95770730D02*
X170405654Y-96265969D01*
X170710416Y-95999302D01*
X170710416Y-96113588D01*
X170748511Y-96189778D01*
X170786607Y-96227873D01*
X170862797Y-96265969D01*
X171053273Y-96265969D01*
X171129464Y-96227873D01*
X171167559Y-96189778D01*
X171205654Y-96113588D01*
X171205654Y-95885016D01*
X171167559Y-95808826D01*
X171129464Y-95770730D01*
X170481845Y-96570730D02*
X170443750Y-96608826D01*
X170405654Y-96685016D01*
X170405654Y-96875492D01*
X170443750Y-96951683D01*
X170481845Y-96989778D01*
X170558035Y-97027873D01*
X170634226Y-97027873D01*
X170748511Y-96989778D01*
X171205654Y-96532635D01*
X171205654Y-97027873D01*
X152155654Y-95046921D02*
X151355654Y-95046921D01*
X151355654Y-95237397D01*
X151393750Y-95351683D01*
X151469940Y-95427873D01*
X151546130Y-95465969D01*
X151698511Y-95504064D01*
X151812797Y-95504064D01*
X151965178Y-95465969D01*
X152041369Y-95427873D01*
X152117559Y-95351683D01*
X152155654Y-95237397D01*
X152155654Y-95046921D01*
X151355654Y-95770730D02*
X151355654Y-96265969D01*
X151660416Y-95999302D01*
X151660416Y-96113588D01*
X151698511Y-96189778D01*
X151736607Y-96227873D01*
X151812797Y-96265969D01*
X152003273Y-96265969D01*
X152079464Y-96227873D01*
X152117559Y-96189778D01*
X152155654Y-96113588D01*
X152155654Y-95885016D01*
X152117559Y-95808826D01*
X152079464Y-95770730D01*
X152155654Y-97027873D02*
X152155654Y-96570730D01*
X152155654Y-96799302D02*
X151355654Y-96799302D01*
X151469940Y-96723111D01*
X151546130Y-96646921D01*
X151584226Y-96570730D01*
X133105654Y-95046921D02*
X132305654Y-95046921D01*
X132305654Y-95237397D01*
X132343750Y-95351683D01*
X132419940Y-95427873D01*
X132496130Y-95465969D01*
X132648511Y-95504064D01*
X132762797Y-95504064D01*
X132915178Y-95465969D01*
X132991369Y-95427873D01*
X133067559Y-95351683D01*
X133105654Y-95237397D01*
X133105654Y-95046921D01*
X132305654Y-95770730D02*
X132305654Y-96265969D01*
X132610416Y-95999302D01*
X132610416Y-96113588D01*
X132648511Y-96189778D01*
X132686607Y-96227873D01*
X132762797Y-96265969D01*
X132953273Y-96265969D01*
X133029464Y-96227873D01*
X133067559Y-96189778D01*
X133105654Y-96113588D01*
X133105654Y-95885016D01*
X133067559Y-95808826D01*
X133029464Y-95770730D01*
X132305654Y-96761207D02*
X132305654Y-96837397D01*
X132343750Y-96913588D01*
X132381845Y-96951683D01*
X132458035Y-96989778D01*
X132610416Y-97027873D01*
X132800892Y-97027873D01*
X132953273Y-96989778D01*
X133029464Y-96951683D01*
X133067559Y-96913588D01*
X133105654Y-96837397D01*
X133105654Y-96761207D01*
X133067559Y-96685016D01*
X133029464Y-96646921D01*
X132953273Y-96608826D01*
X132800892Y-96570730D01*
X132610416Y-96570730D01*
X132458035Y-96608826D01*
X132381845Y-96646921D01*
X132343750Y-96685016D01*
X132305654Y-96761207D01*
X114055654Y-95046921D02*
X113255654Y-95046921D01*
X113255654Y-95237397D01*
X113293750Y-95351683D01*
X113369940Y-95427873D01*
X113446130Y-95465969D01*
X113598511Y-95504064D01*
X113712797Y-95504064D01*
X113865178Y-95465969D01*
X113941369Y-95427873D01*
X114017559Y-95351683D01*
X114055654Y-95237397D01*
X114055654Y-95046921D01*
X113331845Y-95808826D02*
X113293750Y-95846921D01*
X113255654Y-95923111D01*
X113255654Y-96113588D01*
X113293750Y-96189778D01*
X113331845Y-96227873D01*
X113408035Y-96265969D01*
X113484226Y-96265969D01*
X113598511Y-96227873D01*
X114055654Y-95770730D01*
X114055654Y-96265969D01*
X114055654Y-96646921D02*
X114055654Y-96799302D01*
X114017559Y-96875492D01*
X113979464Y-96913588D01*
X113865178Y-96989778D01*
X113712797Y-97027873D01*
X113408035Y-97027873D01*
X113331845Y-96989778D01*
X113293750Y-96951683D01*
X113255654Y-96875492D01*
X113255654Y-96723111D01*
X113293750Y-96646921D01*
X113331845Y-96608826D01*
X113408035Y-96570730D01*
X113598511Y-96570730D01*
X113674702Y-96608826D01*
X113712797Y-96646921D01*
X113750892Y-96723111D01*
X113750892Y-96875492D01*
X113712797Y-96951683D01*
X113674702Y-96989778D01*
X113598511Y-97027873D01*
X95005654Y-95046921D02*
X94205654Y-95046921D01*
X94205654Y-95237397D01*
X94243750Y-95351683D01*
X94319940Y-95427873D01*
X94396130Y-95465969D01*
X94548511Y-95504064D01*
X94662797Y-95504064D01*
X94815178Y-95465969D01*
X94891369Y-95427873D01*
X94967559Y-95351683D01*
X95005654Y-95237397D01*
X95005654Y-95046921D01*
X94281845Y-95808826D02*
X94243750Y-95846921D01*
X94205654Y-95923111D01*
X94205654Y-96113588D01*
X94243750Y-96189778D01*
X94281845Y-96227873D01*
X94358035Y-96265969D01*
X94434226Y-96265969D01*
X94548511Y-96227873D01*
X95005654Y-95770730D01*
X95005654Y-96265969D01*
X94548511Y-96723111D02*
X94510416Y-96646921D01*
X94472321Y-96608826D01*
X94396130Y-96570730D01*
X94358035Y-96570730D01*
X94281845Y-96608826D01*
X94243750Y-96646921D01*
X94205654Y-96723111D01*
X94205654Y-96875492D01*
X94243750Y-96951683D01*
X94281845Y-96989778D01*
X94358035Y-97027873D01*
X94396130Y-97027873D01*
X94472321Y-96989778D01*
X94510416Y-96951683D01*
X94548511Y-96875492D01*
X94548511Y-96723111D01*
X94586607Y-96646921D01*
X94624702Y-96608826D01*
X94700892Y-96570730D01*
X94853273Y-96570730D01*
X94929464Y-96608826D01*
X94967559Y-96646921D01*
X95005654Y-96723111D01*
X95005654Y-96875492D01*
X94967559Y-96951683D01*
X94929464Y-96989778D01*
X94853273Y-97027873D01*
X94700892Y-97027873D01*
X94624702Y-96989778D01*
X94586607Y-96951683D01*
X94548511Y-96875492D01*
X75955654Y-95046921D02*
X75155654Y-95046921D01*
X75155654Y-95237397D01*
X75193750Y-95351683D01*
X75269940Y-95427873D01*
X75346130Y-95465969D01*
X75498511Y-95504064D01*
X75612797Y-95504064D01*
X75765178Y-95465969D01*
X75841369Y-95427873D01*
X75917559Y-95351683D01*
X75955654Y-95237397D01*
X75955654Y-95046921D01*
X75231845Y-95808826D02*
X75193750Y-95846921D01*
X75155654Y-95923111D01*
X75155654Y-96113588D01*
X75193750Y-96189778D01*
X75231845Y-96227873D01*
X75308035Y-96265969D01*
X75384226Y-96265969D01*
X75498511Y-96227873D01*
X75955654Y-95770730D01*
X75955654Y-96265969D01*
X75155654Y-96532635D02*
X75155654Y-97065969D01*
X75955654Y-96723111D01*
X56905654Y-95046921D02*
X56105654Y-95046921D01*
X56105654Y-95237397D01*
X56143750Y-95351683D01*
X56219940Y-95427873D01*
X56296130Y-95465969D01*
X56448511Y-95504064D01*
X56562797Y-95504064D01*
X56715178Y-95465969D01*
X56791369Y-95427873D01*
X56867559Y-95351683D01*
X56905654Y-95237397D01*
X56905654Y-95046921D01*
X56181845Y-95808826D02*
X56143750Y-95846921D01*
X56105654Y-95923111D01*
X56105654Y-96113588D01*
X56143750Y-96189778D01*
X56181845Y-96227873D01*
X56258035Y-96265969D01*
X56334226Y-96265969D01*
X56448511Y-96227873D01*
X56905654Y-95770730D01*
X56905654Y-96265969D01*
X56105654Y-96951683D02*
X56105654Y-96799302D01*
X56143750Y-96723111D01*
X56181845Y-96685016D01*
X56296130Y-96608826D01*
X56448511Y-96570730D01*
X56753273Y-96570730D01*
X56829464Y-96608826D01*
X56867559Y-96646921D01*
X56905654Y-96723111D01*
X56905654Y-96875492D01*
X56867559Y-96951683D01*
X56829464Y-96989778D01*
X56753273Y-97027873D01*
X56562797Y-97027873D01*
X56486607Y-96989778D01*
X56448511Y-96951683D01*
X56410416Y-96875492D01*
X56410416Y-96723111D01*
X56448511Y-96646921D01*
X56486607Y-96608826D01*
X56562797Y-96570730D01*
X35474404Y-95046921D02*
X34674404Y-95046921D01*
X34674404Y-95237397D01*
X34712500Y-95351683D01*
X34788690Y-95427873D01*
X34864880Y-95465969D01*
X35017261Y-95504064D01*
X35131547Y-95504064D01*
X35283928Y-95465969D01*
X35360119Y-95427873D01*
X35436309Y-95351683D01*
X35474404Y-95237397D01*
X35474404Y-95046921D01*
X34750595Y-95808826D02*
X34712500Y-95846921D01*
X34674404Y-95923111D01*
X34674404Y-96113588D01*
X34712500Y-96189778D01*
X34750595Y-96227873D01*
X34826785Y-96265969D01*
X34902976Y-96265969D01*
X35017261Y-96227873D01*
X35474404Y-95770730D01*
X35474404Y-96265969D01*
X34674404Y-96989778D02*
X34674404Y-96608826D01*
X35055357Y-96570730D01*
X35017261Y-96608826D01*
X34979166Y-96685016D01*
X34979166Y-96875492D01*
X35017261Y-96951683D01*
X35055357Y-96989778D01*
X35131547Y-97027873D01*
X35322023Y-97027873D01*
X35398214Y-96989778D01*
X35436309Y-96951683D01*
X35474404Y-96875492D01*
X35474404Y-96685016D01*
X35436309Y-96608826D01*
X35398214Y-96570730D01*
X259311904Y-75996921D02*
X258511904Y-75996921D01*
X258511904Y-76187397D01*
X258550000Y-76301683D01*
X258626190Y-76377873D01*
X258702380Y-76415969D01*
X258854761Y-76454064D01*
X258969047Y-76454064D01*
X259121428Y-76415969D01*
X259197619Y-76377873D01*
X259273809Y-76301683D01*
X259311904Y-76187397D01*
X259311904Y-75996921D01*
X258588095Y-76758826D02*
X258550000Y-76796921D01*
X258511904Y-76873111D01*
X258511904Y-77063588D01*
X258550000Y-77139778D01*
X258588095Y-77177873D01*
X258664285Y-77215969D01*
X258740476Y-77215969D01*
X258854761Y-77177873D01*
X259311904Y-76720730D01*
X259311904Y-77215969D01*
X258778571Y-77901683D02*
X259311904Y-77901683D01*
X258473809Y-77711207D02*
X259045238Y-77520730D01*
X259045238Y-78015969D01*
X223593154Y-75996921D02*
X222793154Y-75996921D01*
X222793154Y-76187397D01*
X222831250Y-76301683D01*
X222907440Y-76377873D01*
X222983630Y-76415969D01*
X223136011Y-76454064D01*
X223250297Y-76454064D01*
X223402678Y-76415969D01*
X223478869Y-76377873D01*
X223555059Y-76301683D01*
X223593154Y-76187397D01*
X223593154Y-75996921D01*
X222869345Y-76758826D02*
X222831250Y-76796921D01*
X222793154Y-76873111D01*
X222793154Y-77063588D01*
X222831250Y-77139778D01*
X222869345Y-77177873D01*
X222945535Y-77215969D01*
X223021726Y-77215969D01*
X223136011Y-77177873D01*
X223593154Y-76720730D01*
X223593154Y-77215969D01*
X222793154Y-77482635D02*
X222793154Y-77977873D01*
X223097916Y-77711207D01*
X223097916Y-77825492D01*
X223136011Y-77901683D01*
X223174107Y-77939778D01*
X223250297Y-77977873D01*
X223440773Y-77977873D01*
X223516964Y-77939778D01*
X223555059Y-77901683D01*
X223593154Y-77825492D01*
X223593154Y-77596921D01*
X223555059Y-77520730D01*
X223516964Y-77482635D01*
X204543154Y-75996921D02*
X203743154Y-75996921D01*
X203743154Y-76187397D01*
X203781250Y-76301683D01*
X203857440Y-76377873D01*
X203933630Y-76415969D01*
X204086011Y-76454064D01*
X204200297Y-76454064D01*
X204352678Y-76415969D01*
X204428869Y-76377873D01*
X204505059Y-76301683D01*
X204543154Y-76187397D01*
X204543154Y-75996921D01*
X203819345Y-76758826D02*
X203781250Y-76796921D01*
X203743154Y-76873111D01*
X203743154Y-77063588D01*
X203781250Y-77139778D01*
X203819345Y-77177873D01*
X203895535Y-77215969D01*
X203971726Y-77215969D01*
X204086011Y-77177873D01*
X204543154Y-76720730D01*
X204543154Y-77215969D01*
X203819345Y-77520730D02*
X203781250Y-77558826D01*
X203743154Y-77635016D01*
X203743154Y-77825492D01*
X203781250Y-77901683D01*
X203819345Y-77939778D01*
X203895535Y-77977873D01*
X203971726Y-77977873D01*
X204086011Y-77939778D01*
X204543154Y-77482635D01*
X204543154Y-77977873D01*
X185493154Y-75996921D02*
X184693154Y-75996921D01*
X184693154Y-76187397D01*
X184731250Y-76301683D01*
X184807440Y-76377873D01*
X184883630Y-76415969D01*
X185036011Y-76454064D01*
X185150297Y-76454064D01*
X185302678Y-76415969D01*
X185378869Y-76377873D01*
X185455059Y-76301683D01*
X185493154Y-76187397D01*
X185493154Y-75996921D01*
X184769345Y-76758826D02*
X184731250Y-76796921D01*
X184693154Y-76873111D01*
X184693154Y-77063588D01*
X184731250Y-77139778D01*
X184769345Y-77177873D01*
X184845535Y-77215969D01*
X184921726Y-77215969D01*
X185036011Y-77177873D01*
X185493154Y-76720730D01*
X185493154Y-77215969D01*
X185493154Y-77977873D02*
X185493154Y-77520730D01*
X185493154Y-77749302D02*
X184693154Y-77749302D01*
X184807440Y-77673111D01*
X184883630Y-77596921D01*
X184921726Y-77520730D01*
X166443154Y-75996921D02*
X165643154Y-75996921D01*
X165643154Y-76187397D01*
X165681250Y-76301683D01*
X165757440Y-76377873D01*
X165833630Y-76415969D01*
X165986011Y-76454064D01*
X166100297Y-76454064D01*
X166252678Y-76415969D01*
X166328869Y-76377873D01*
X166405059Y-76301683D01*
X166443154Y-76187397D01*
X166443154Y-75996921D01*
X165719345Y-76758826D02*
X165681250Y-76796921D01*
X165643154Y-76873111D01*
X165643154Y-77063588D01*
X165681250Y-77139778D01*
X165719345Y-77177873D01*
X165795535Y-77215969D01*
X165871726Y-77215969D01*
X165986011Y-77177873D01*
X166443154Y-76720730D01*
X166443154Y-77215969D01*
X165643154Y-77711207D02*
X165643154Y-77787397D01*
X165681250Y-77863588D01*
X165719345Y-77901683D01*
X165795535Y-77939778D01*
X165947916Y-77977873D01*
X166138392Y-77977873D01*
X166290773Y-77939778D01*
X166366964Y-77901683D01*
X166405059Y-77863588D01*
X166443154Y-77787397D01*
X166443154Y-77711207D01*
X166405059Y-77635016D01*
X166366964Y-77596921D01*
X166290773Y-77558826D01*
X166138392Y-77520730D01*
X165947916Y-77520730D01*
X165795535Y-77558826D01*
X165719345Y-77596921D01*
X165681250Y-77635016D01*
X165643154Y-77711207D01*
X147393154Y-75996921D02*
X146593154Y-75996921D01*
X146593154Y-76187397D01*
X146631250Y-76301683D01*
X146707440Y-76377873D01*
X146783630Y-76415969D01*
X146936011Y-76454064D01*
X147050297Y-76454064D01*
X147202678Y-76415969D01*
X147278869Y-76377873D01*
X147355059Y-76301683D01*
X147393154Y-76187397D01*
X147393154Y-75996921D01*
X147393154Y-77215969D02*
X147393154Y-76758826D01*
X147393154Y-76987397D02*
X146593154Y-76987397D01*
X146707440Y-76911207D01*
X146783630Y-76835016D01*
X146821726Y-76758826D01*
X147393154Y-77596921D02*
X147393154Y-77749302D01*
X147355059Y-77825492D01*
X147316964Y-77863588D01*
X147202678Y-77939778D01*
X147050297Y-77977873D01*
X146745535Y-77977873D01*
X146669345Y-77939778D01*
X146631250Y-77901683D01*
X146593154Y-77825492D01*
X146593154Y-77673111D01*
X146631250Y-77596921D01*
X146669345Y-77558826D01*
X146745535Y-77520730D01*
X146936011Y-77520730D01*
X147012202Y-77558826D01*
X147050297Y-77596921D01*
X147088392Y-77673111D01*
X147088392Y-77825492D01*
X147050297Y-77901683D01*
X147012202Y-77939778D01*
X146936011Y-77977873D01*
X128343154Y-75996921D02*
X127543154Y-75996921D01*
X127543154Y-76187397D01*
X127581250Y-76301683D01*
X127657440Y-76377873D01*
X127733630Y-76415969D01*
X127886011Y-76454064D01*
X128000297Y-76454064D01*
X128152678Y-76415969D01*
X128228869Y-76377873D01*
X128305059Y-76301683D01*
X128343154Y-76187397D01*
X128343154Y-75996921D01*
X128343154Y-77215969D02*
X128343154Y-76758826D01*
X128343154Y-76987397D02*
X127543154Y-76987397D01*
X127657440Y-76911207D01*
X127733630Y-76835016D01*
X127771726Y-76758826D01*
X127886011Y-77673111D02*
X127847916Y-77596921D01*
X127809821Y-77558826D01*
X127733630Y-77520730D01*
X127695535Y-77520730D01*
X127619345Y-77558826D01*
X127581250Y-77596921D01*
X127543154Y-77673111D01*
X127543154Y-77825492D01*
X127581250Y-77901683D01*
X127619345Y-77939778D01*
X127695535Y-77977873D01*
X127733630Y-77977873D01*
X127809821Y-77939778D01*
X127847916Y-77901683D01*
X127886011Y-77825492D01*
X127886011Y-77673111D01*
X127924107Y-77596921D01*
X127962202Y-77558826D01*
X128038392Y-77520730D01*
X128190773Y-77520730D01*
X128266964Y-77558826D01*
X128305059Y-77596921D01*
X128343154Y-77673111D01*
X128343154Y-77825492D01*
X128305059Y-77901683D01*
X128266964Y-77939778D01*
X128190773Y-77977873D01*
X128038392Y-77977873D01*
X127962202Y-77939778D01*
X127924107Y-77901683D01*
X127886011Y-77825492D01*
X109293154Y-75996921D02*
X108493154Y-75996921D01*
X108493154Y-76187397D01*
X108531250Y-76301683D01*
X108607440Y-76377873D01*
X108683630Y-76415969D01*
X108836011Y-76454064D01*
X108950297Y-76454064D01*
X109102678Y-76415969D01*
X109178869Y-76377873D01*
X109255059Y-76301683D01*
X109293154Y-76187397D01*
X109293154Y-75996921D01*
X109293154Y-77215969D02*
X109293154Y-76758826D01*
X109293154Y-76987397D02*
X108493154Y-76987397D01*
X108607440Y-76911207D01*
X108683630Y-76835016D01*
X108721726Y-76758826D01*
X108493154Y-77482635D02*
X108493154Y-78015969D01*
X109293154Y-77673111D01*
X90243154Y-75996921D02*
X89443154Y-75996921D01*
X89443154Y-76187397D01*
X89481250Y-76301683D01*
X89557440Y-76377873D01*
X89633630Y-76415969D01*
X89786011Y-76454064D01*
X89900297Y-76454064D01*
X90052678Y-76415969D01*
X90128869Y-76377873D01*
X90205059Y-76301683D01*
X90243154Y-76187397D01*
X90243154Y-75996921D01*
X90243154Y-77215969D02*
X90243154Y-76758826D01*
X90243154Y-76987397D02*
X89443154Y-76987397D01*
X89557440Y-76911207D01*
X89633630Y-76835016D01*
X89671726Y-76758826D01*
X89443154Y-77901683D02*
X89443154Y-77749302D01*
X89481250Y-77673111D01*
X89519345Y-77635016D01*
X89633630Y-77558826D01*
X89786011Y-77520730D01*
X90090773Y-77520730D01*
X90166964Y-77558826D01*
X90205059Y-77596921D01*
X90243154Y-77673111D01*
X90243154Y-77825492D01*
X90205059Y-77901683D01*
X90166964Y-77939778D01*
X90090773Y-77977873D01*
X89900297Y-77977873D01*
X89824107Y-77939778D01*
X89786011Y-77901683D01*
X89747916Y-77825492D01*
X89747916Y-77673111D01*
X89786011Y-77596921D01*
X89824107Y-77558826D01*
X89900297Y-77520730D01*
X71193154Y-75996921D02*
X70393154Y-75996921D01*
X70393154Y-76187397D01*
X70431250Y-76301683D01*
X70507440Y-76377873D01*
X70583630Y-76415969D01*
X70736011Y-76454064D01*
X70850297Y-76454064D01*
X71002678Y-76415969D01*
X71078869Y-76377873D01*
X71155059Y-76301683D01*
X71193154Y-76187397D01*
X71193154Y-75996921D01*
X71193154Y-77215969D02*
X71193154Y-76758826D01*
X71193154Y-76987397D02*
X70393154Y-76987397D01*
X70507440Y-76911207D01*
X70583630Y-76835016D01*
X70621726Y-76758826D01*
X70393154Y-77939778D02*
X70393154Y-77558826D01*
X70774107Y-77520730D01*
X70736011Y-77558826D01*
X70697916Y-77635016D01*
X70697916Y-77825492D01*
X70736011Y-77901683D01*
X70774107Y-77939778D01*
X70850297Y-77977873D01*
X71040773Y-77977873D01*
X71116964Y-77939778D01*
X71155059Y-77901683D01*
X71193154Y-77825492D01*
X71193154Y-77635016D01*
X71155059Y-77558826D01*
X71116964Y-77520730D01*
X52143154Y-75996921D02*
X51343154Y-75996921D01*
X51343154Y-76187397D01*
X51381250Y-76301683D01*
X51457440Y-76377873D01*
X51533630Y-76415969D01*
X51686011Y-76454064D01*
X51800297Y-76454064D01*
X51952678Y-76415969D01*
X52028869Y-76377873D01*
X52105059Y-76301683D01*
X52143154Y-76187397D01*
X52143154Y-75996921D01*
X52143154Y-77215969D02*
X52143154Y-76758826D01*
X52143154Y-76987397D02*
X51343154Y-76987397D01*
X51457440Y-76911207D01*
X51533630Y-76835016D01*
X51571726Y-76758826D01*
X51609821Y-77901683D02*
X52143154Y-77901683D01*
X51305059Y-77711207D02*
X51876488Y-77520730D01*
X51876488Y-78015969D01*
X33093154Y-75996921D02*
X32293154Y-75996921D01*
X32293154Y-76187397D01*
X32331250Y-76301683D01*
X32407440Y-76377873D01*
X32483630Y-76415969D01*
X32636011Y-76454064D01*
X32750297Y-76454064D01*
X32902678Y-76415969D01*
X32978869Y-76377873D01*
X33055059Y-76301683D01*
X33093154Y-76187397D01*
X33093154Y-75996921D01*
X33093154Y-77215969D02*
X33093154Y-76758826D01*
X33093154Y-76987397D02*
X32293154Y-76987397D01*
X32407440Y-76911207D01*
X32483630Y-76835016D01*
X32521726Y-76758826D01*
X32293154Y-77482635D02*
X32293154Y-77977873D01*
X32597916Y-77711207D01*
X32597916Y-77825492D01*
X32636011Y-77901683D01*
X32674107Y-77939778D01*
X32750297Y-77977873D01*
X32940773Y-77977873D01*
X33016964Y-77939778D01*
X33055059Y-77901683D01*
X33093154Y-77825492D01*
X33093154Y-77596921D01*
X33055059Y-77520730D01*
X33016964Y-77482635D01*
X242643154Y-75996921D02*
X241843154Y-75996921D01*
X241843154Y-76187397D01*
X241881250Y-76301683D01*
X241957440Y-76377873D01*
X242033630Y-76415969D01*
X242186011Y-76454064D01*
X242300297Y-76454064D01*
X242452678Y-76415969D01*
X242528869Y-76377873D01*
X242605059Y-76301683D01*
X242643154Y-76187397D01*
X242643154Y-75996921D01*
X242643154Y-77215969D02*
X242643154Y-76758826D01*
X242643154Y-76987397D02*
X241843154Y-76987397D01*
X241957440Y-76911207D01*
X242033630Y-76835016D01*
X242071726Y-76758826D01*
X241919345Y-77520730D02*
X241881250Y-77558826D01*
X241843154Y-77635016D01*
X241843154Y-77825492D01*
X241881250Y-77901683D01*
X241919345Y-77939778D01*
X241995535Y-77977873D01*
X242071726Y-77977873D01*
X242186011Y-77939778D01*
X242643154Y-77482635D01*
X242643154Y-77977873D01*
X233118154Y-56946921D02*
X232318154Y-56946921D01*
X232318154Y-57137397D01*
X232356250Y-57251683D01*
X232432440Y-57327873D01*
X232508630Y-57365969D01*
X232661011Y-57404064D01*
X232775297Y-57404064D01*
X232927678Y-57365969D01*
X233003869Y-57327873D01*
X233080059Y-57251683D01*
X233118154Y-57137397D01*
X233118154Y-56946921D01*
X233118154Y-58165969D02*
X233118154Y-57708826D01*
X233118154Y-57937397D02*
X232318154Y-57937397D01*
X232432440Y-57861207D01*
X232508630Y-57785016D01*
X232546726Y-57708826D01*
X233118154Y-58927873D02*
X233118154Y-58470730D01*
X233118154Y-58699302D02*
X232318154Y-58699302D01*
X232432440Y-58623111D01*
X232508630Y-58546921D01*
X232546726Y-58470730D01*
X214068154Y-56946921D02*
X213268154Y-56946921D01*
X213268154Y-57137397D01*
X213306250Y-57251683D01*
X213382440Y-57327873D01*
X213458630Y-57365969D01*
X213611011Y-57404064D01*
X213725297Y-57404064D01*
X213877678Y-57365969D01*
X213953869Y-57327873D01*
X214030059Y-57251683D01*
X214068154Y-57137397D01*
X214068154Y-56946921D01*
X214068154Y-58165969D02*
X214068154Y-57708826D01*
X214068154Y-57937397D02*
X213268154Y-57937397D01*
X213382440Y-57861207D01*
X213458630Y-57785016D01*
X213496726Y-57708826D01*
X213268154Y-58661207D02*
X213268154Y-58737397D01*
X213306250Y-58813588D01*
X213344345Y-58851683D01*
X213420535Y-58889778D01*
X213572916Y-58927873D01*
X213763392Y-58927873D01*
X213915773Y-58889778D01*
X213991964Y-58851683D01*
X214030059Y-58813588D01*
X214068154Y-58737397D01*
X214068154Y-58661207D01*
X214030059Y-58585016D01*
X213991964Y-58546921D01*
X213915773Y-58508826D01*
X213763392Y-58470730D01*
X213572916Y-58470730D01*
X213420535Y-58508826D01*
X213344345Y-58546921D01*
X213306250Y-58585016D01*
X213268154Y-58661207D01*
X195018154Y-57327873D02*
X194218154Y-57327873D01*
X194218154Y-57518350D01*
X194256250Y-57632635D01*
X194332440Y-57708826D01*
X194408630Y-57746921D01*
X194561011Y-57785016D01*
X194675297Y-57785016D01*
X194827678Y-57746921D01*
X194903869Y-57708826D01*
X194980059Y-57632635D01*
X195018154Y-57518350D01*
X195018154Y-57327873D01*
X195018154Y-58165969D02*
X195018154Y-58318350D01*
X194980059Y-58394540D01*
X194941964Y-58432635D01*
X194827678Y-58508826D01*
X194675297Y-58546921D01*
X194370535Y-58546921D01*
X194294345Y-58508826D01*
X194256250Y-58470730D01*
X194218154Y-58394540D01*
X194218154Y-58242159D01*
X194256250Y-58165969D01*
X194294345Y-58127873D01*
X194370535Y-58089778D01*
X194561011Y-58089778D01*
X194637202Y-58127873D01*
X194675297Y-58165969D01*
X194713392Y-58242159D01*
X194713392Y-58394540D01*
X194675297Y-58470730D01*
X194637202Y-58508826D01*
X194561011Y-58546921D01*
X175968154Y-57327873D02*
X175168154Y-57327873D01*
X175168154Y-57518350D01*
X175206250Y-57632635D01*
X175282440Y-57708826D01*
X175358630Y-57746921D01*
X175511011Y-57785016D01*
X175625297Y-57785016D01*
X175777678Y-57746921D01*
X175853869Y-57708826D01*
X175930059Y-57632635D01*
X175968154Y-57518350D01*
X175968154Y-57327873D01*
X175511011Y-58242159D02*
X175472916Y-58165969D01*
X175434821Y-58127873D01*
X175358630Y-58089778D01*
X175320535Y-58089778D01*
X175244345Y-58127873D01*
X175206250Y-58165969D01*
X175168154Y-58242159D01*
X175168154Y-58394540D01*
X175206250Y-58470730D01*
X175244345Y-58508826D01*
X175320535Y-58546921D01*
X175358630Y-58546921D01*
X175434821Y-58508826D01*
X175472916Y-58470730D01*
X175511011Y-58394540D01*
X175511011Y-58242159D01*
X175549107Y-58165969D01*
X175587202Y-58127873D01*
X175663392Y-58089778D01*
X175815773Y-58089778D01*
X175891964Y-58127873D01*
X175930059Y-58165969D01*
X175968154Y-58242159D01*
X175968154Y-58394540D01*
X175930059Y-58470730D01*
X175891964Y-58508826D01*
X175815773Y-58546921D01*
X175663392Y-58546921D01*
X175587202Y-58508826D01*
X175549107Y-58470730D01*
X175511011Y-58394540D01*
X156918154Y-57327873D02*
X156118154Y-57327873D01*
X156118154Y-57518350D01*
X156156250Y-57632635D01*
X156232440Y-57708826D01*
X156308630Y-57746921D01*
X156461011Y-57785016D01*
X156575297Y-57785016D01*
X156727678Y-57746921D01*
X156803869Y-57708826D01*
X156880059Y-57632635D01*
X156918154Y-57518350D01*
X156918154Y-57327873D01*
X156118154Y-58051683D02*
X156118154Y-58585016D01*
X156918154Y-58242159D01*
X137868154Y-57327873D02*
X137068154Y-57327873D01*
X137068154Y-57518350D01*
X137106250Y-57632635D01*
X137182440Y-57708826D01*
X137258630Y-57746921D01*
X137411011Y-57785016D01*
X137525297Y-57785016D01*
X137677678Y-57746921D01*
X137753869Y-57708826D01*
X137830059Y-57632635D01*
X137868154Y-57518350D01*
X137868154Y-57327873D01*
X137068154Y-58470730D02*
X137068154Y-58318350D01*
X137106250Y-58242159D01*
X137144345Y-58204064D01*
X137258630Y-58127873D01*
X137411011Y-58089778D01*
X137715773Y-58089778D01*
X137791964Y-58127873D01*
X137830059Y-58165969D01*
X137868154Y-58242159D01*
X137868154Y-58394540D01*
X137830059Y-58470730D01*
X137791964Y-58508826D01*
X137715773Y-58546921D01*
X137525297Y-58546921D01*
X137449107Y-58508826D01*
X137411011Y-58470730D01*
X137372916Y-58394540D01*
X137372916Y-58242159D01*
X137411011Y-58165969D01*
X137449107Y-58127873D01*
X137525297Y-58089778D01*
X118818154Y-57327873D02*
X118018154Y-57327873D01*
X118018154Y-57518350D01*
X118056250Y-57632635D01*
X118132440Y-57708826D01*
X118208630Y-57746921D01*
X118361011Y-57785016D01*
X118475297Y-57785016D01*
X118627678Y-57746921D01*
X118703869Y-57708826D01*
X118780059Y-57632635D01*
X118818154Y-57518350D01*
X118818154Y-57327873D01*
X118018154Y-58508826D02*
X118018154Y-58127873D01*
X118399107Y-58089778D01*
X118361011Y-58127873D01*
X118322916Y-58204064D01*
X118322916Y-58394540D01*
X118361011Y-58470730D01*
X118399107Y-58508826D01*
X118475297Y-58546921D01*
X118665773Y-58546921D01*
X118741964Y-58508826D01*
X118780059Y-58470730D01*
X118818154Y-58394540D01*
X118818154Y-58204064D01*
X118780059Y-58127873D01*
X118741964Y-58089778D01*
X99768154Y-57327873D02*
X98968154Y-57327873D01*
X98968154Y-57518350D01*
X99006250Y-57632635D01*
X99082440Y-57708826D01*
X99158630Y-57746921D01*
X99311011Y-57785016D01*
X99425297Y-57785016D01*
X99577678Y-57746921D01*
X99653869Y-57708826D01*
X99730059Y-57632635D01*
X99768154Y-57518350D01*
X99768154Y-57327873D01*
X99234821Y-58470730D02*
X99768154Y-58470730D01*
X98930059Y-58280254D02*
X99501488Y-58089778D01*
X99501488Y-58585016D01*
X80718154Y-57327873D02*
X79918154Y-57327873D01*
X79918154Y-57518350D01*
X79956250Y-57632635D01*
X80032440Y-57708826D01*
X80108630Y-57746921D01*
X80261011Y-57785016D01*
X80375297Y-57785016D01*
X80527678Y-57746921D01*
X80603869Y-57708826D01*
X80680059Y-57632635D01*
X80718154Y-57518350D01*
X80718154Y-57327873D01*
X79918154Y-58051683D02*
X79918154Y-58546921D01*
X80222916Y-58280254D01*
X80222916Y-58394540D01*
X80261011Y-58470730D01*
X80299107Y-58508826D01*
X80375297Y-58546921D01*
X80565773Y-58546921D01*
X80641964Y-58508826D01*
X80680059Y-58470730D01*
X80718154Y-58394540D01*
X80718154Y-58165969D01*
X80680059Y-58089778D01*
X80641964Y-58051683D01*
X61668154Y-57327873D02*
X60868154Y-57327873D01*
X60868154Y-57518350D01*
X60906250Y-57632635D01*
X60982440Y-57708826D01*
X61058630Y-57746921D01*
X61211011Y-57785016D01*
X61325297Y-57785016D01*
X61477678Y-57746921D01*
X61553869Y-57708826D01*
X61630059Y-57632635D01*
X61668154Y-57518350D01*
X61668154Y-57327873D01*
X60944345Y-58089778D02*
X60906250Y-58127873D01*
X60868154Y-58204064D01*
X60868154Y-58394540D01*
X60906250Y-58470730D01*
X60944345Y-58508826D01*
X61020535Y-58546921D01*
X61096726Y-58546921D01*
X61211011Y-58508826D01*
X61668154Y-58051683D01*
X61668154Y-58546921D01*
X42618154Y-57327873D02*
X41818154Y-57327873D01*
X41818154Y-57518350D01*
X41856250Y-57632635D01*
X41932440Y-57708826D01*
X42008630Y-57746921D01*
X42161011Y-57785016D01*
X42275297Y-57785016D01*
X42427678Y-57746921D01*
X42503869Y-57708826D01*
X42580059Y-57632635D01*
X42618154Y-57518350D01*
X42618154Y-57327873D01*
X42618154Y-58546921D02*
X42618154Y-58089778D01*
X42618154Y-58318350D02*
X41818154Y-58318350D01*
X41932440Y-58242159D01*
X42008630Y-58165969D01*
X42046726Y-58089778D01*
M02*
