G04 #@! TF.GenerationSoftware,KiCad,Pcbnew,(5.1.5-0-10_14)*
G04 #@! TF.CreationDate,2020-08-31T10:03:10-05:00*
G04 #@! TF.ProjectId,SithZhuyin40,53697468-5a68-4757-9969-6e34302e6b69,rev?*
G04 #@! TF.SameCoordinates,Original*
G04 #@! TF.FileFunction,Copper,L1,Top*
G04 #@! TF.FilePolarity,Positive*
%FSLAX46Y46*%
G04 Gerber Fmt 4.6, Leading zero omitted, Abs format (unit mm)*
G04 Created by KiCad (PCBNEW (5.1.5-0-10_14)) date 2020-08-31 10:03:10*
%MOMM*%
%LPD*%
G04 APERTURE LIST*
%ADD10C,1.752600*%
%ADD11R,1.752600X1.752600*%
%ADD12C,2.250000*%
%ADD13R,1.600000X1.600000*%
%ADD14C,1.600000*%
%ADD15C,0.800000*%
%ADD16C,0.250000*%
G04 APERTURE END LIST*
D10*
X278288750Y-53498750D03*
X263048750Y-81438750D03*
X278288750Y-56038750D03*
X278288750Y-58578750D03*
X278288750Y-61118750D03*
X278288750Y-63658750D03*
X278288750Y-66198750D03*
X278288750Y-68738750D03*
X278288750Y-71278750D03*
X278288750Y-73818750D03*
X278288750Y-76358750D03*
X278288750Y-78898750D03*
X278288750Y-81438750D03*
X263048750Y-78898750D03*
X263048750Y-76358750D03*
X263048750Y-73818750D03*
X263048750Y-71278750D03*
X263048750Y-68738750D03*
X263048750Y-66198750D03*
X263048750Y-63658750D03*
X263048750Y-61118750D03*
X263048750Y-58578750D03*
X263048750Y-56038750D03*
D11*
X263048750Y-53498750D03*
D12*
X273208750Y-125888750D03*
X266858750Y-128428750D03*
X254158750Y-125888750D03*
X247808750Y-128428750D03*
X235108750Y-125888750D03*
X228758750Y-128428750D03*
X211296250Y-125888750D03*
X204946250Y-128428750D03*
X180340000Y-125888750D03*
X173990000Y-128428750D03*
X147002500Y-125888750D03*
X140652500Y-128428750D03*
X118427500Y-125888750D03*
X112077500Y-128428750D03*
X94615000Y-125888750D03*
X88265000Y-128428750D03*
X70802500Y-125888750D03*
X64452500Y-128428750D03*
X46990000Y-125888750D03*
X40640000Y-128428750D03*
X270827500Y-106838750D03*
X264477500Y-109378750D03*
X249396250Y-106838750D03*
X243046250Y-109378750D03*
X230346250Y-106838750D03*
X223996250Y-109378750D03*
X211296250Y-106838750D03*
X204946250Y-109378750D03*
X192246250Y-106838750D03*
X185896250Y-109378750D03*
X173196250Y-106838750D03*
X166846250Y-109378750D03*
X154146250Y-106838750D03*
X147796250Y-109378750D03*
X135096250Y-106838750D03*
X128746250Y-109378750D03*
X116046250Y-106838750D03*
X109696250Y-109378750D03*
X96996250Y-106838750D03*
X90646250Y-109378750D03*
X77946250Y-106838750D03*
X71596250Y-109378750D03*
X51752500Y-106838750D03*
X45402500Y-109378750D03*
X266065000Y-87788750D03*
X259715000Y-90328750D03*
X239871250Y-87788750D03*
X233521250Y-90328750D03*
X220821250Y-87788750D03*
X214471250Y-90328750D03*
X201771250Y-87788750D03*
X195421250Y-90328750D03*
X182721250Y-87788750D03*
X176371250Y-90328750D03*
X163671250Y-87788750D03*
X157321250Y-90328750D03*
X144621250Y-87788750D03*
X138271250Y-90328750D03*
X125571250Y-87788750D03*
X119221250Y-90328750D03*
X106521250Y-87788750D03*
X100171250Y-90328750D03*
X87471250Y-87788750D03*
X81121250Y-90328750D03*
X68421250Y-87788750D03*
X62071250Y-90328750D03*
X46990000Y-87788750D03*
X40640000Y-90328750D03*
X273208750Y-68738750D03*
X266858750Y-71278750D03*
X235108750Y-68738750D03*
X228758750Y-71278750D03*
X216058750Y-68738750D03*
X209708750Y-71278750D03*
X197008750Y-68738750D03*
X190658750Y-71278750D03*
X177958750Y-68738750D03*
X171608750Y-71278750D03*
X158908750Y-68738750D03*
X152558750Y-71278750D03*
X139858750Y-68738750D03*
X133508750Y-71278750D03*
X120808750Y-68738750D03*
X114458750Y-71278750D03*
X101758750Y-68738750D03*
X95408750Y-71278750D03*
X82708750Y-68738750D03*
X76358750Y-71278750D03*
X63658750Y-68738750D03*
X57308750Y-71278750D03*
X44608750Y-68738750D03*
X38258750Y-71278750D03*
X254158750Y-68738750D03*
X247808750Y-71278750D03*
X244633750Y-49688750D03*
X238283750Y-52228750D03*
X225583750Y-49688750D03*
X219233750Y-52228750D03*
X206533750Y-49688750D03*
X200183750Y-52228750D03*
X187483750Y-49688750D03*
X181133750Y-52228750D03*
X168433750Y-49688750D03*
X162083750Y-52228750D03*
X149383750Y-49688750D03*
X143033750Y-52228750D03*
X130333750Y-49688750D03*
X123983750Y-52228750D03*
X111283750Y-49688750D03*
X104933750Y-52228750D03*
X92233750Y-49688750D03*
X85883750Y-52228750D03*
X73183750Y-49688750D03*
X66833750Y-52228750D03*
X54133750Y-49688750D03*
X47783750Y-52228750D03*
D13*
X262731250Y-138043750D03*
D14*
X262731250Y-130243750D03*
D13*
X243681250Y-138043750D03*
D14*
X243681250Y-130243750D03*
D13*
X224631250Y-138043750D03*
D14*
X224631250Y-130243750D03*
D13*
X200818750Y-138043750D03*
D14*
X200818750Y-130243750D03*
D13*
X169862500Y-138043750D03*
D14*
X169862500Y-130243750D03*
D13*
X136525000Y-138043750D03*
D14*
X136525000Y-130243750D03*
D13*
X107950000Y-138043750D03*
D14*
X107950000Y-130243750D03*
D13*
X84137500Y-138043750D03*
D14*
X84137500Y-130243750D03*
D13*
X60325000Y-138043750D03*
D14*
X60325000Y-130243750D03*
D13*
X36512500Y-138043750D03*
D14*
X36512500Y-130243750D03*
D13*
X260350000Y-118993750D03*
D14*
X260350000Y-111193750D03*
D13*
X238918750Y-118993750D03*
D14*
X238918750Y-111193750D03*
D13*
X219868750Y-118993750D03*
D14*
X219868750Y-111193750D03*
D13*
X200818750Y-118993750D03*
D14*
X200818750Y-111193750D03*
D13*
X181768750Y-118993750D03*
D14*
X181768750Y-111193750D03*
D13*
X162718750Y-118993750D03*
D14*
X162718750Y-111193750D03*
D13*
X143668750Y-118993750D03*
D14*
X143668750Y-111193750D03*
D13*
X124618750Y-118993750D03*
D14*
X124618750Y-111193750D03*
D13*
X105568750Y-118993750D03*
D14*
X105568750Y-111193750D03*
D13*
X86518750Y-118993750D03*
D14*
X86518750Y-111193750D03*
D13*
X67468750Y-118993750D03*
D14*
X67468750Y-111193750D03*
D13*
X41275000Y-118993750D03*
D14*
X41275000Y-111193750D03*
D13*
X255587500Y-99943750D03*
D14*
X255587500Y-92143750D03*
D13*
X229393750Y-99943750D03*
D14*
X229393750Y-92143750D03*
D13*
X210343750Y-99943750D03*
D14*
X210343750Y-92143750D03*
D13*
X191293750Y-99943750D03*
D14*
X191293750Y-92143750D03*
D13*
X172243750Y-99943750D03*
D14*
X172243750Y-92143750D03*
D13*
X153193750Y-99943750D03*
D14*
X153193750Y-92143750D03*
D13*
X134143750Y-99943750D03*
D14*
X134143750Y-92143750D03*
D13*
X115093750Y-99943750D03*
D14*
X115093750Y-92143750D03*
D13*
X96043750Y-99943750D03*
D14*
X96043750Y-92143750D03*
D13*
X76993750Y-99943750D03*
D14*
X76993750Y-92143750D03*
D13*
X57943750Y-99943750D03*
D14*
X57943750Y-92143750D03*
D13*
X36512500Y-99943750D03*
D14*
X36512500Y-92143750D03*
D13*
X260350000Y-80893750D03*
D14*
X260350000Y-73093750D03*
D13*
X224631250Y-80893750D03*
D14*
X224631250Y-73093750D03*
D13*
X205581250Y-80893750D03*
D14*
X205581250Y-73093750D03*
D13*
X186531250Y-80893750D03*
D14*
X186531250Y-73093750D03*
D13*
X167481250Y-80893750D03*
D14*
X167481250Y-73093750D03*
D13*
X148431250Y-80893750D03*
D14*
X148431250Y-73093750D03*
D13*
X129381250Y-80893750D03*
D14*
X129381250Y-73093750D03*
D13*
X110331250Y-80893750D03*
D14*
X110331250Y-73093750D03*
D13*
X91281250Y-80893750D03*
D14*
X91281250Y-73093750D03*
D13*
X72231250Y-80893750D03*
D14*
X72231250Y-73093750D03*
D13*
X53181250Y-80893750D03*
D14*
X53181250Y-73093750D03*
D13*
X34131250Y-80893750D03*
D14*
X34131250Y-73093750D03*
D13*
X243681250Y-80893750D03*
D14*
X243681250Y-73093750D03*
D13*
X234156250Y-61843750D03*
D14*
X234156250Y-54043750D03*
D13*
X215106250Y-61843750D03*
D14*
X215106250Y-54043750D03*
D13*
X196056250Y-61843750D03*
D14*
X196056250Y-54043750D03*
D13*
X177006250Y-61843750D03*
D14*
X177006250Y-54043750D03*
D13*
X157956250Y-61843750D03*
D14*
X157956250Y-54043750D03*
D13*
X138906250Y-61843750D03*
D14*
X138906250Y-54043750D03*
D13*
X119856250Y-61843750D03*
D14*
X119856250Y-54043750D03*
D13*
X100806250Y-61843750D03*
D14*
X100806250Y-54043750D03*
D13*
X81756250Y-61843750D03*
D14*
X81756250Y-54043750D03*
D13*
X62706250Y-61843750D03*
D14*
X62706250Y-54043750D03*
D13*
X43656250Y-61843750D03*
D14*
X43656250Y-54043750D03*
D15*
X213360000Y-70485000D03*
D16*
X213360000Y-62540000D02*
X213360000Y-70485000D01*
X214056250Y-61843750D02*
X213360000Y-62540000D01*
X215106250Y-61843750D02*
X214056250Y-61843750D01*
X54133750Y-59213750D02*
X44608750Y-68738750D01*
X54133750Y-49688750D02*
X54133750Y-59213750D01*
X44608750Y-85407500D02*
X46990000Y-87788750D01*
X44608750Y-68738750D02*
X44608750Y-85407500D01*
X46990000Y-102076250D02*
X51974750Y-107061000D01*
X46990000Y-87788750D02*
X46990000Y-102076250D01*
X51752500Y-121126250D02*
X46990000Y-125888750D01*
X51752500Y-106838750D02*
X51752500Y-121126250D01*
X73183750Y-59213750D02*
X63658750Y-68738750D01*
X73183750Y-49688750D02*
X73183750Y-59213750D01*
X63658750Y-83026250D02*
X68421250Y-87788750D01*
X63658750Y-68738750D02*
X63658750Y-83026250D01*
X68421250Y-97313750D02*
X77946250Y-106838750D01*
X68421250Y-87788750D02*
X68421250Y-97313750D01*
X77946250Y-118745000D02*
X70802500Y-125888750D01*
X77946250Y-106838750D02*
X77946250Y-118745000D01*
X83833749Y-67613751D02*
X82708750Y-68738750D01*
X92012651Y-59434849D02*
X83833749Y-67613751D01*
X92012651Y-49909849D02*
X92012651Y-59434849D01*
X92233750Y-49688750D02*
X92012651Y-49909849D01*
X82708750Y-83026250D02*
X87471250Y-87788750D01*
X82708750Y-68738750D02*
X82708750Y-83026250D01*
X87471250Y-97313750D02*
X96996250Y-106838750D01*
X87471250Y-87788750D02*
X87471250Y-97313750D01*
X96996250Y-123507500D02*
X94615000Y-125888750D01*
X96996250Y-106838750D02*
X96996250Y-123507500D01*
X111283750Y-59213750D02*
X101758750Y-68738750D01*
X111283750Y-49688750D02*
X111283750Y-59213750D01*
X101758750Y-83026250D02*
X106521250Y-87788750D01*
X101758750Y-68738750D02*
X101758750Y-83026250D01*
X106521250Y-97313750D02*
X116046250Y-106838750D01*
X106521250Y-87788750D02*
X106521250Y-97313750D01*
X116046250Y-123507500D02*
X118427500Y-125888750D01*
X116046250Y-106838750D02*
X116046250Y-123507500D01*
X130333750Y-59213750D02*
X120808750Y-68738750D01*
X130333750Y-49688750D02*
X130333750Y-59213750D01*
X120808750Y-83026250D02*
X125571250Y-87788750D01*
X120808750Y-68738750D02*
X120808750Y-83026250D01*
X125571250Y-97313750D02*
X135096250Y-106838750D01*
X125571250Y-87788750D02*
X125571250Y-97313750D01*
X135096250Y-113982500D02*
X147002500Y-125888750D01*
X135096250Y-106838750D02*
X135096250Y-113982500D01*
X149383750Y-59213750D02*
X139858750Y-68738750D01*
X149383750Y-49688750D02*
X149383750Y-59213750D01*
X139858750Y-83026250D02*
X144621250Y-87788750D01*
X139858750Y-68738750D02*
X139858750Y-83026250D01*
X144621250Y-97313750D02*
X154146250Y-106838750D01*
X144621250Y-87788750D02*
X144621250Y-97313750D01*
X168433750Y-59213750D02*
X158908750Y-68738750D01*
X168433750Y-49688750D02*
X168433750Y-59213750D01*
X158908750Y-83026250D02*
X163671250Y-87788750D01*
X158908750Y-68738750D02*
X158908750Y-83026250D01*
X163671250Y-97313750D02*
X173196250Y-106838750D01*
X163671250Y-87788750D02*
X163671250Y-97313750D01*
X173196250Y-118745000D02*
X180340000Y-125888750D01*
X173196250Y-106838750D02*
X173196250Y-118745000D01*
X179083749Y-67613751D02*
X177958750Y-68738750D01*
X188608749Y-58088751D02*
X179083749Y-67613751D01*
X188608749Y-50813749D02*
X188608749Y-58088751D01*
X187483750Y-49688750D02*
X188608749Y-50813749D01*
X177958750Y-83026250D02*
X182721250Y-87788750D01*
X177958750Y-68738750D02*
X177958750Y-83026250D01*
X182721250Y-97313750D02*
X192246250Y-106838750D01*
X182721250Y-87788750D02*
X182721250Y-97313750D01*
X206533750Y-59213750D02*
X197008750Y-68738750D01*
X206533750Y-49688750D02*
X206533750Y-59213750D01*
X197008750Y-83026250D02*
X201771250Y-87788750D01*
X197008750Y-68738750D02*
X197008750Y-83026250D01*
X201771250Y-97313750D02*
X211296250Y-106838750D01*
X201771250Y-87788750D02*
X201771250Y-97313750D01*
X211296250Y-106838750D02*
X211296250Y-125888750D01*
X225583750Y-59213750D02*
X216058750Y-68738750D01*
X225583750Y-49688750D02*
X225583750Y-59213750D01*
X216058750Y-83026250D02*
X220821250Y-87788750D01*
X216058750Y-68738750D02*
X216058750Y-83026250D01*
X220821250Y-97313750D02*
X230346250Y-106838750D01*
X220821250Y-87788750D02*
X220821250Y-97313750D01*
X230346250Y-121126250D02*
X235108750Y-125888750D01*
X230346250Y-106838750D02*
X230346250Y-121126250D01*
X244633750Y-59213750D02*
X235108750Y-68738750D01*
X244633750Y-49688750D02*
X244633750Y-59213750D01*
X235108750Y-83026250D02*
X239871250Y-87788750D01*
X235108750Y-68738750D02*
X235108750Y-83026250D01*
X239871250Y-97313750D02*
X249396250Y-106838750D01*
X239871250Y-87788750D02*
X239871250Y-97313750D01*
X249396250Y-121126250D02*
X254158750Y-125888750D01*
X249396250Y-106838750D02*
X249396250Y-121126250D01*
X273208750Y-80645000D02*
X266065000Y-87788750D01*
X273208750Y-68738750D02*
X273208750Y-80645000D01*
X266065000Y-102076250D02*
X270827500Y-106838750D01*
X266065000Y-87788750D02*
X266065000Y-102076250D01*
X270827500Y-123507500D02*
X273208750Y-125888750D01*
X270827500Y-106838750D02*
X270827500Y-123507500D01*
X272083751Y-67613751D02*
X273208750Y-68738750D01*
X272007449Y-67537449D02*
X272083751Y-67613751D01*
X255360051Y-67537449D02*
X272007449Y-67537449D01*
X254158750Y-68738750D02*
X255360051Y-67537449D01*
X266065000Y-76835000D02*
X263048750Y-73818750D01*
X266065000Y-87788750D02*
X266065000Y-76835000D01*
M02*
