M48
; DRILL file {KiCad (5.1.5-0-10_14)} date Monday, August 31, 2020 at 10:03:11 AM
; FORMAT={-:-/ absolute / inch / decimal}
; #@! TF.CreationDate,2020-08-31T10:03:11-05:00
; #@! TF.GenerationSoftware,Kicad,Pcbnew,(5.1.5-0-10_14)
FMAT,2
INCH
T1C0.0157
T2C0.0394
T3C0.0430
T4C0.0579
T5C0.0689
T6C0.1570
%
G90
G05
T1
X8.4Y-2.775
T2
X5.375Y-5.1277
X5.375Y-5.4348
X8.6562Y-4.3777
X8.6562Y-4.6848
X6.7812Y-3.6277
X6.7812Y-3.9348
X1.3438Y-2.8777
X1.3438Y-3.1848
X6.6875Y-5.1277
X6.6875Y-5.4348
X2.8438Y-2.8777
X2.8438Y-3.1848
X7.5312Y-3.6277
X7.5312Y-3.9348
X2.0938Y-2.8777
X2.0938Y-3.1848
X7.9062Y-5.1277
X7.9062Y-5.4348
X3.5938Y-2.8777
X3.5938Y-3.1848
X10.25Y-4.3777
X10.25Y-4.6848
X8.2812Y-3.6277
X8.2812Y-3.9348
X6.5938Y-2.8777
X6.5938Y-3.1848
X8.8438Y-5.1277
X8.8438Y-5.4348
X4.3438Y-2.8777
X4.3438Y-3.1848
X1.4375Y-5.1277
X1.4375Y-5.4348
X5.6562Y-4.3777
X5.6562Y-4.6848
X6.2188Y-2.1277
X6.2188Y-2.4348
X5.8438Y-2.8777
X5.8438Y-3.1848
X9.0312Y-3.6277
X9.0312Y-3.9348
X7.3438Y-2.8777
X7.3438Y-3.1848
X1.625Y-4.3777
X1.625Y-4.6848
X9.5938Y-5.1277
X9.5938Y-5.4348
X5.0938Y-2.8777
X5.0938Y-3.1848
X2.375Y-5.1277
X2.375Y-5.4348
X1.7188Y-2.1277
X1.7188Y-2.4348
X6.4062Y-4.3777
X6.4062Y-4.6848
X10.0625Y-3.6277
X10.0625Y-3.9348
X2.2812Y-3.6277
X2.2812Y-3.9348
X10.3438Y-5.1277
X10.3438Y-5.4348
X3.3125Y-5.1277
X3.3125Y-5.4348
X7.1562Y-4.3777
X7.1562Y-4.6848
X7.7188Y-2.1277
X7.7188Y-2.4348
X3.0312Y-3.6277
X3.0312Y-3.9348
X3.4062Y-4.3777
X3.4062Y-4.6848
X6.9688Y-2.1277
X6.9688Y-2.4348
X4.5312Y-3.6277
X4.5312Y-3.9348
X8.4688Y-2.1277
X8.4688Y-2.4348
X2.6562Y-4.3777
X2.6562Y-4.6848
X4.7188Y-2.1277
X4.7188Y-2.4348
X2.4688Y-2.1277
X2.4688Y-2.4348
X3.7812Y-3.6277
X3.7812Y-3.9348
X10.25Y-2.8777
X10.25Y-3.1848
X4.1562Y-4.3777
X4.1562Y-4.6848
X3.9688Y-2.1277
X3.9688Y-2.4348
X5.2812Y-3.6277
X5.2812Y-3.9348
X9.2188Y-2.1277
X9.2188Y-2.4348
X8.8438Y-2.8777
X8.8438Y-3.1848
X5.4688Y-2.1277
X5.4688Y-2.4348
X4.25Y-5.1277
X4.25Y-5.4348
X3.2188Y-2.1277
X3.2188Y-2.4348
X1.4375Y-3.6277
X1.4375Y-3.9348
X7.9062Y-4.3777
X7.9062Y-4.6848
X4.9062Y-4.3777
X4.9062Y-4.6848
X8.0938Y-2.8777
X8.0938Y-3.1848
X6.0312Y-3.6277
X6.0312Y-3.9348
X9.4062Y-4.3777
X9.4062Y-4.6848
X9.5938Y-2.8777
X9.5938Y-3.1848
T3
X10.3562Y-2.1062
X10.3562Y-2.2062
X10.3562Y-2.3062
X10.3562Y-2.4062
X10.3562Y-2.5063
X10.3562Y-2.6062
X10.3562Y-2.7062
X10.3562Y-2.8062
X10.3562Y-2.9062
X10.3562Y-3.0063
X10.3562Y-3.1062
X10.3562Y-3.2062
X10.9562Y-2.1062
X10.9562Y-2.2062
X10.9562Y-2.3062
X10.9562Y-2.4062
X10.9562Y-2.5063
X10.9562Y-2.6062
X10.9562Y-2.7062
X10.9562Y-2.8062
X10.9562Y-2.9062
X10.9562Y-3.0063
X10.9562Y-3.1062
X10.9562Y-3.2062
T4
X8.0687Y-4.3062
X8.3187Y-4.2062
X7.5062Y-2.8062
X7.7562Y-2.7062
X2.8188Y-4.3062
X3.0688Y-4.2062
X10.4125Y-4.3062
X10.6625Y-4.2062
X7.8812Y-2.0562
X8.1312Y-1.9563
X10.5062Y-2.8062
X10.7562Y-2.7062
X6.85Y-5.0562
X7.1Y-4.9562
X5.0687Y-4.3062
X5.3187Y-4.2062
X4.5062Y-2.8062
X4.7562Y-2.7062
X3.475Y-5.0562
X3.725Y-4.9562
X8.4437Y-3.5562
X8.6937Y-3.4562
X9.7562Y-2.8062
X10.0062Y-2.7062
X7.3187Y-4.3062
X7.5687Y-4.2062
X3.1938Y-3.5562
X3.4438Y-3.4562
X8.0687Y-5.0562
X8.3187Y-4.9562
X4.8812Y-2.0562
X5.1312Y-1.9563
X1.7875Y-4.3062
X2.0375Y-4.2062
X5.4437Y-3.5562
X5.6937Y-3.4562
X1.8812Y-2.0562
X2.1313Y-1.9563
X9.7562Y-5.0562
X10.0062Y-4.9562
X6.7562Y-2.8062
X7.0062Y-2.7062
X9.5687Y-4.3062
X9.8187Y-4.2062
X7.1312Y-2.0562
X7.3812Y-1.9563
X4.3187Y-4.3062
X4.5687Y-4.2062
X3.7563Y-2.8062
X4.0062Y-2.7062
X2.5375Y-5.0562
X2.7875Y-4.9562
X7.6937Y-3.5562
X7.9437Y-3.4562
X9.3812Y-2.0562
X9.6312Y-1.9563
X6.5687Y-4.3062
X6.8187Y-4.2062
X2.4438Y-3.5562
X2.6938Y-3.4562
X4.1312Y-2.0562
X4.3812Y-1.9563
X5.5375Y-5.0562
X5.7875Y-4.9562
X10.225Y-3.5562
X10.475Y-3.4562
X2.2563Y-2.8062
X2.5063Y-2.7062
X4.6937Y-3.5562
X4.9437Y-3.4562
X9.0062Y-2.8062
X9.2562Y-2.7062
X3.3813Y-2.0562
X3.6313Y-1.9563
X6.0062Y-2.8062
X6.2562Y-2.7062
X8.8187Y-4.3062
X9.0687Y-4.2062
X6.3812Y-2.0562
X6.6312Y-1.9563
X8.2562Y-2.8062
X8.5062Y-2.7062
X3.5688Y-4.3062
X3.8188Y-4.2062
X3.0063Y-2.8062
X3.2563Y-2.7062
X1.6Y-5.0562
X1.85Y-4.9562
X6.9437Y-3.5562
X7.1937Y-3.4562
X8.6312Y-2.0562
X8.8812Y-1.9563
X1.6Y-3.5562
X1.85Y-3.4562
X5.8187Y-4.3062
X6.0687Y-4.2062
X4.4125Y-5.0562
X4.6625Y-4.9562
X9.1937Y-3.5562
X9.4437Y-3.4562
X1.5062Y-2.8062
X1.7562Y-2.7062
X3.9438Y-3.5562
X4.1937Y-3.4562
X9.0062Y-5.0562
X9.2562Y-4.9562
X5.6312Y-2.0562
X5.8812Y-1.9563
X6.1937Y-3.5562
X6.4437Y-3.4562
X2.6313Y-2.0562
X2.8813Y-1.9563
X10.5062Y-5.0562
X10.7562Y-4.9562
X5.2562Y-2.8062
X5.5062Y-2.7062
T5
X10.4562Y-2.9062
X10.8562Y-2.9062
X6.8Y-5.1562
X7.2Y-5.1562
X5.0187Y-4.4062
X5.4188Y-4.4062
X4.4562Y-2.9062
X4.8563Y-2.9062
X3.425Y-5.1562
X3.825Y-5.1562
X8.3937Y-3.6562
X8.7937Y-3.6562
X9.7062Y-2.9062
X10.1062Y-2.9062
X7.2687Y-4.4062
X7.6688Y-4.4062
X3.1437Y-3.6562
X3.5437Y-3.6562
X8.0187Y-5.1562
X8.4187Y-5.1562
X4.8312Y-2.1562
X5.2313Y-2.1562
X1.7375Y-4.4062
X2.1375Y-4.4062
X5.3937Y-3.6562
X5.7938Y-3.6562
X1.8313Y-2.1562
X2.2312Y-2.1562
X9.7062Y-5.1562
X10.1062Y-5.1562
X6.7062Y-2.9062
X7.1063Y-2.9062
X9.5187Y-4.4062
X9.9187Y-4.4062
X7.0812Y-2.1562
X7.4813Y-2.1562
X4.2687Y-4.4062
X4.6688Y-4.4062
X3.7062Y-2.9062
X4.1063Y-2.9062
X2.4875Y-5.1562
X2.8875Y-5.1562
X7.6437Y-3.6562
X8.0437Y-3.6562
X9.3312Y-2.1562
X9.7312Y-2.1562
X6.5187Y-4.4062
X6.9188Y-4.4062
X2.3937Y-3.6562
X2.7937Y-3.6562
X4.0812Y-2.1562
X4.4813Y-2.1562
X5.4875Y-5.1562
X5.8875Y-5.1562
X10.175Y-3.6562
X10.575Y-3.6562
X2.2062Y-2.9062
X2.6062Y-2.9062
X4.6437Y-3.6562
X5.0438Y-3.6562
X8.9562Y-2.9062
X9.3562Y-2.9062
X3.3312Y-2.1562
X3.7312Y-2.1562
X5.9562Y-2.9062
X6.3563Y-2.9062
X8.7687Y-4.4062
X9.1687Y-4.4062
X6.3312Y-2.1562
X6.7313Y-2.1562
X8.2062Y-2.9062
X8.6062Y-2.9062
X3.5187Y-4.4062
X3.9187Y-4.4062
X2.9562Y-2.9062
X3.3562Y-2.9062
X1.55Y-5.1562
X1.95Y-5.1562
X6.8937Y-3.6562
X7.2938Y-3.6562
X8.5812Y-2.1562
X8.9812Y-2.1562
X1.55Y-3.6562
X1.95Y-3.6562
X5.7687Y-4.4062
X6.1688Y-4.4062
X4.3625Y-5.1562
X4.7625Y-5.1562
X9.1437Y-3.6562
X9.5437Y-3.6562
X1.4563Y-2.9062
X1.8562Y-2.9062
X3.8937Y-3.6562
X4.2938Y-3.6562
X8.9562Y-5.1562
X9.3562Y-5.1562
X5.5812Y-2.1562
X5.9813Y-2.1562
X6.1437Y-3.6562
X6.5438Y-3.6562
X2.5812Y-2.1562
X2.9812Y-2.1562
X10.4562Y-5.1562
X10.8562Y-5.1562
X5.2062Y-2.9062
X5.6063Y-2.9062
X8.0187Y-4.4062
X8.4187Y-4.4062
X7.4562Y-2.9062
X7.8563Y-2.9062
X2.7687Y-4.4062
X3.1687Y-4.4062
X10.3625Y-4.4062
X10.7625Y-4.4062
X7.8312Y-2.1562
X8.2312Y-2.1562
T6
X6.9062Y-2.9062
X9.7188Y-4.4062
X7.2812Y-2.1562
X4.4688Y-4.4062
X3.9062Y-2.9062
X2.6875Y-5.1562
X7.8438Y-3.6562
X9.5312Y-2.1562
X6.7188Y-4.4062
X2.5938Y-3.6562
X4.2812Y-2.1562
X5.6875Y-5.1562
X10.375Y-3.6562
X2.4062Y-2.9062
X4.8438Y-3.6562
X9.1562Y-2.9062
X3.5312Y-2.1562
X6.1562Y-2.9062
X8.9688Y-4.4062
X6.5312Y-2.1562
X8.4062Y-2.9062
X3.7188Y-4.4062
X3.1562Y-2.9062
X1.75Y-5.1562
X7.0938Y-3.6562
X8.7812Y-2.1562
X1.75Y-3.6562
X5.9688Y-4.4062
X4.5625Y-5.1562
X9.3438Y-3.6562
X1.6562Y-2.9062
X4.0938Y-3.6562
X9.1562Y-5.1562
X5.7812Y-2.1562
X6.3438Y-3.6562
X2.7812Y-2.1562
X10.6562Y-5.1562
X5.4062Y-2.9062
X8.2188Y-4.4062
X7.6562Y-2.9062
X2.9688Y-4.4062
X10.5625Y-4.4062
X8.0312Y-2.1562
X10.6562Y-2.9062
X7.0Y-5.1562
X5.2188Y-4.4062
X4.6562Y-2.9062
X3.625Y-5.1562
X8.5938Y-3.6562
X9.9062Y-2.9062
X7.4688Y-4.4062
X3.3438Y-3.6562
X8.2188Y-5.1562
X5.0312Y-2.1562
X1.9375Y-4.4062
X5.5938Y-3.6562
X2.0312Y-2.1562
X9.9062Y-5.1562
T0
M30
