G04 #@! TF.GenerationSoftware,KiCad,Pcbnew,(5.1.5-0-10_14)*
G04 #@! TF.CreationDate,2020-08-31T10:04:04-05:00*
G04 #@! TF.ProjectId,SithZhuyin40,53697468-5a68-4757-9969-6e34302e6b69,rev?*
G04 #@! TF.SameCoordinates,Original*
G04 #@! TF.FileFunction,Soldermask,Top*
G04 #@! TF.FilePolarity,Negative*
%FSLAX46Y46*%
G04 Gerber Fmt 4.6, Leading zero omitted, Abs format (unit mm)*
G04 Created by KiCad (PCBNEW (5.1.5-0-10_14)) date 2020-08-31 10:04:04*
%MOMM*%
%LPD*%
G04 APERTURE LIST*
%ADD10C,0.100000*%
G04 APERTURE END LIST*
D10*
G36*
X275707130Y-140888776D02*
G01*
X276087843Y-140964504D01*
X276497499Y-141134189D01*
X276866179Y-141380534D01*
X277179716Y-141694071D01*
X277426061Y-142062751D01*
X277595746Y-142472407D01*
X277682250Y-142907296D01*
X277682250Y-143350704D01*
X277595746Y-143785593D01*
X277426061Y-144195249D01*
X277179716Y-144563929D01*
X276866179Y-144877466D01*
X276497499Y-145123811D01*
X276087843Y-145293496D01*
X275707130Y-145369224D01*
X275652955Y-145380000D01*
X275209545Y-145380000D01*
X275155370Y-145369224D01*
X274774657Y-145293496D01*
X274365001Y-145123811D01*
X273996321Y-144877466D01*
X273682784Y-144563929D01*
X273436439Y-144195249D01*
X273266754Y-143785593D01*
X273180250Y-143350704D01*
X273180250Y-142907296D01*
X273266754Y-142472407D01*
X273436439Y-142062751D01*
X273682784Y-141694071D01*
X273996321Y-141380534D01*
X274365001Y-141134189D01*
X274774657Y-140964504D01*
X275155370Y-140888776D01*
X275209545Y-140878000D01*
X275652955Y-140878000D01*
X275707130Y-140888776D01*
G37*
G36*
X38375880Y-140888776D02*
G01*
X38756593Y-140964504D01*
X39166249Y-141134189D01*
X39534929Y-141380534D01*
X39848466Y-141694071D01*
X40094811Y-142062751D01*
X40264496Y-142472407D01*
X40351000Y-142907296D01*
X40351000Y-143350704D01*
X40264496Y-143785593D01*
X40094811Y-144195249D01*
X39848466Y-144563929D01*
X39534929Y-144877466D01*
X39166249Y-145123811D01*
X38756593Y-145293496D01*
X38375880Y-145369224D01*
X38321705Y-145380000D01*
X37878295Y-145380000D01*
X37824120Y-145369224D01*
X37443407Y-145293496D01*
X37033751Y-145123811D01*
X36665071Y-144877466D01*
X36351534Y-144563929D01*
X36105189Y-144195249D01*
X35935504Y-143785593D01*
X35849000Y-143350704D01*
X35849000Y-142907296D01*
X35935504Y-142472407D01*
X36105189Y-142062751D01*
X36351534Y-141694071D01*
X36665071Y-141380534D01*
X37033751Y-141134189D01*
X37443407Y-140964504D01*
X37824120Y-140888776D01*
X37878295Y-140878000D01*
X38321705Y-140878000D01*
X38375880Y-140888776D01*
G37*
G36*
X256657130Y-46178526D02*
G01*
X257037843Y-46254254D01*
X257447499Y-46423939D01*
X257816179Y-46670284D01*
X258129716Y-46983821D01*
X258376061Y-47352501D01*
X258545746Y-47762157D01*
X258632250Y-48197046D01*
X258632250Y-48640454D01*
X258545746Y-49075343D01*
X258376061Y-49484999D01*
X258129716Y-49853679D01*
X257816179Y-50167216D01*
X257447499Y-50413561D01*
X257037843Y-50583246D01*
X256657130Y-50658974D01*
X256602955Y-50669750D01*
X256159545Y-50669750D01*
X256105370Y-50658974D01*
X255724657Y-50583246D01*
X255315001Y-50413561D01*
X254946321Y-50167216D01*
X254632784Y-49853679D01*
X254386439Y-49484999D01*
X254216754Y-49075343D01*
X254130250Y-48640454D01*
X254130250Y-48197046D01*
X254216754Y-47762157D01*
X254386439Y-47352501D01*
X254632784Y-46983821D01*
X254946321Y-46670284D01*
X255315001Y-46423939D01*
X255724657Y-46254254D01*
X256105370Y-46178526D01*
X256159545Y-46167750D01*
X256602955Y-46167750D01*
X256657130Y-46178526D01*
G37*
G36*
X37582130Y-46178526D02*
G01*
X37962843Y-46254254D01*
X38372499Y-46423939D01*
X38741179Y-46670284D01*
X39054716Y-46983821D01*
X39301061Y-47352501D01*
X39470746Y-47762157D01*
X39557250Y-48197046D01*
X39557250Y-48640454D01*
X39470746Y-49075343D01*
X39301061Y-49484999D01*
X39054716Y-49853679D01*
X38741179Y-50167216D01*
X38372499Y-50413561D01*
X37962843Y-50583246D01*
X37582130Y-50658974D01*
X37527955Y-50669750D01*
X37084545Y-50669750D01*
X37030370Y-50658974D01*
X36649657Y-50583246D01*
X36240001Y-50413561D01*
X35871321Y-50167216D01*
X35557784Y-49853679D01*
X35311439Y-49484999D01*
X35141754Y-49075343D01*
X35055250Y-48640454D01*
X35055250Y-48197046D01*
X35141754Y-47762157D01*
X35311439Y-47352501D01*
X35557784Y-46983821D01*
X35871321Y-46670284D01*
X36240001Y-46423939D01*
X36649657Y-46254254D01*
X37030370Y-46178526D01*
X37084545Y-46167750D01*
X37527955Y-46167750D01*
X37582130Y-46178526D01*
G37*
M02*
