G04 #@! TF.GenerationSoftware,KiCad,Pcbnew,(5.1.5-0-10_14)*
G04 #@! TF.CreationDate,2020-08-31T10:04:04-05:00*
G04 #@! TF.ProjectId,SithZhuyin40,53697468-5a68-4757-9969-6e34302e6b69,rev?*
G04 #@! TF.SameCoordinates,Original*
G04 #@! TF.FileFunction,Copper,L2,Bot*
G04 #@! TF.FilePolarity,Positive*
%FSLAX46Y46*%
G04 Gerber Fmt 4.6, Leading zero omitted, Abs format (unit mm)*
G04 Created by KiCad (PCBNEW (5.1.5-0-10_14)) date 2020-08-31 10:04:04*
%MOMM*%
%LPD*%
G04 APERTURE LIST*
%ADD10C,0.700000*%
%ADD11C,4.400000*%
%ADD12C,0.254000*%
G04 APERTURE END LIST*
D10*
X257547976Y-47252024D03*
X256381250Y-46768750D03*
X255214524Y-47252024D03*
X254731250Y-48418750D03*
X255214524Y-49585476D03*
X256381250Y-50068750D03*
X257547976Y-49585476D03*
X258031250Y-48418750D03*
D11*
X256381250Y-48418750D03*
D10*
X276597976Y-141962274D03*
X275431250Y-141479000D03*
X274264524Y-141962274D03*
X273781250Y-143129000D03*
X274264524Y-144295726D03*
X275431250Y-144779000D03*
X276597976Y-144295726D03*
X277081250Y-143129000D03*
D11*
X275431250Y-143129000D03*
D10*
X39266726Y-141962274D03*
X38100000Y-141479000D03*
X36933274Y-141962274D03*
X36450000Y-143129000D03*
X36933274Y-144295726D03*
X38100000Y-144779000D03*
X39266726Y-144295726D03*
X39750000Y-143129000D03*
D11*
X38100000Y-143129000D03*
D10*
X38472976Y-47252024D03*
X37306250Y-46768750D03*
X36139524Y-47252024D03*
X35656250Y-48418750D03*
X36139524Y-49585476D03*
X37306250Y-50068750D03*
X38472976Y-49585476D03*
X38956250Y-48418750D03*
D11*
X37306250Y-48418750D03*
D12*
G36*
X278785788Y-45924519D02*
G01*
X278958487Y-45976660D01*
X279117768Y-46061352D01*
X279257569Y-46175369D01*
X279372558Y-46314367D01*
X279458360Y-46473055D01*
X279511705Y-46645385D01*
X279533751Y-46855140D01*
X279533750Y-53213668D01*
X279533751Y-53213678D01*
X279533750Y-144430220D01*
X279512981Y-144642038D01*
X279460841Y-144814736D01*
X279376149Y-144974018D01*
X279262128Y-145113821D01*
X279123135Y-145228806D01*
X278964445Y-145314610D01*
X278792115Y-145367955D01*
X278582369Y-145390000D01*
X34163530Y-145390000D01*
X33951712Y-145369231D01*
X33779014Y-145317091D01*
X33619732Y-145232399D01*
X33479929Y-145118378D01*
X33364944Y-144979385D01*
X33279140Y-144820695D01*
X33225795Y-144648365D01*
X33203750Y-144438619D01*
X33203750Y-46863529D01*
X33224519Y-46651712D01*
X33276660Y-46479013D01*
X33361352Y-46319732D01*
X33475369Y-46179931D01*
X33614367Y-46064942D01*
X33773055Y-45979140D01*
X33945385Y-45925795D01*
X34155130Y-45903750D01*
X278573971Y-45903750D01*
X278785788Y-45924519D01*
G37*
X278785788Y-45924519D02*
X278958487Y-45976660D01*
X279117768Y-46061352D01*
X279257569Y-46175369D01*
X279372558Y-46314367D01*
X279458360Y-46473055D01*
X279511705Y-46645385D01*
X279533751Y-46855140D01*
X279533750Y-53213668D01*
X279533751Y-53213678D01*
X279533750Y-144430220D01*
X279512981Y-144642038D01*
X279460841Y-144814736D01*
X279376149Y-144974018D01*
X279262128Y-145113821D01*
X279123135Y-145228806D01*
X278964445Y-145314610D01*
X278792115Y-145367955D01*
X278582369Y-145390000D01*
X34163530Y-145390000D01*
X33951712Y-145369231D01*
X33779014Y-145317091D01*
X33619732Y-145232399D01*
X33479929Y-145118378D01*
X33364944Y-144979385D01*
X33279140Y-144820695D01*
X33225795Y-144648365D01*
X33203750Y-144438619D01*
X33203750Y-46863529D01*
X33224519Y-46651712D01*
X33276660Y-46479013D01*
X33361352Y-46319732D01*
X33475369Y-46179931D01*
X33614367Y-46064942D01*
X33773055Y-45979140D01*
X33945385Y-45925795D01*
X34155130Y-45903750D01*
X278573971Y-45903750D01*
X278785788Y-45924519D01*
M02*
